%TF.GenerationSoftware,KiCad,Pcbnew,5.1.4-e60b266~84~ubuntu18.04.1*%
%TF.CreationDate,2020-06-02T14:46:13-03:00*%
%TF.ProjectId,Driver Motor PaP_V2.0,44726976-6572-4204-9d6f-746f72205061,2.0*%
%TF.SameCoordinates,Original*%
%TF.FileFunction,Legend,Top*%
%TF.FilePolarity,Positive*%
%FSLAX46Y46*%
G04 Gerber Fmt 4.6, Leading zero omitted, Abs format (unit mm)*
G04 Created by KiCad (PCBNEW 5.1.4-e60b266~84~ubuntu18.04.1) date 2020-06-02 14:46:13*
%MOMM*%
%LPD*%
G04 APERTURE LIST*
%ADD10C,0.150000*%
%ADD11C,0.120000*%
%ADD12C,0.050000*%
G04 APERTURE END LIST*
D10*
X85495238Y-56004761D02*
X85400000Y-56052380D01*
X85209523Y-56052380D01*
X85114285Y-56004761D01*
X85066666Y-55957142D01*
X85019047Y-55861904D01*
X85019047Y-55576190D01*
X85066666Y-55480952D01*
X85114285Y-55433333D01*
X85209523Y-55385714D01*
X85400000Y-55385714D01*
X85495238Y-55433333D01*
X85923809Y-56052380D02*
X85923809Y-55385714D01*
X85923809Y-55052380D02*
X85876190Y-55100000D01*
X85923809Y-55147619D01*
X85971428Y-55100000D01*
X85923809Y-55052380D01*
X85923809Y-55147619D01*
X86828571Y-56052380D02*
X86828571Y-55528571D01*
X86780952Y-55433333D01*
X86685714Y-55385714D01*
X86495238Y-55385714D01*
X86400000Y-55433333D01*
X86828571Y-56004761D02*
X86733333Y-56052380D01*
X86495238Y-56052380D01*
X86400000Y-56004761D01*
X86352380Y-55909523D01*
X86352380Y-55814285D01*
X86400000Y-55719047D01*
X86495238Y-55671428D01*
X86733333Y-55671428D01*
X86828571Y-55623809D01*
X87733333Y-56052380D02*
X87733333Y-55528571D01*
X87685714Y-55433333D01*
X87590476Y-55385714D01*
X87400000Y-55385714D01*
X87304761Y-55433333D01*
X87733333Y-56004761D02*
X87638095Y-56052380D01*
X87400000Y-56052380D01*
X87304761Y-56004761D01*
X87257142Y-55909523D01*
X87257142Y-55814285D01*
X87304761Y-55719047D01*
X87400000Y-55671428D01*
X87638095Y-55671428D01*
X87733333Y-55623809D01*
X85909523Y-53785714D02*
X85909523Y-54595238D01*
X85861904Y-54690476D01*
X85814285Y-54738095D01*
X85719047Y-54785714D01*
X85576190Y-54785714D01*
X85480952Y-54738095D01*
X85909523Y-54404761D02*
X85814285Y-54452380D01*
X85623809Y-54452380D01*
X85528571Y-54404761D01*
X85480952Y-54357142D01*
X85433333Y-54261904D01*
X85433333Y-53976190D01*
X85480952Y-53880952D01*
X85528571Y-53833333D01*
X85623809Y-53785714D01*
X85814285Y-53785714D01*
X85909523Y-53833333D01*
X86385714Y-53785714D02*
X86385714Y-54452380D01*
X86385714Y-53880952D02*
X86433333Y-53833333D01*
X86528571Y-53785714D01*
X86671428Y-53785714D01*
X86766666Y-53833333D01*
X86814285Y-53928571D01*
X86814285Y-54452380D01*
X87719047Y-54452380D02*
X87719047Y-53452380D01*
X87719047Y-54404761D02*
X87623809Y-54452380D01*
X87433333Y-54452380D01*
X87338095Y-54404761D01*
X87290476Y-54357142D01*
X87242857Y-54261904D01*
X87242857Y-53976190D01*
X87290476Y-53880952D01*
X87338095Y-53833333D01*
X87433333Y-53785714D01*
X87623809Y-53785714D01*
X87719047Y-53833333D01*
D11*
X101000000Y-77750000D02*
X101000000Y-60000000D01*
X111500000Y-77750000D02*
X101000000Y-77750000D01*
X111500000Y-60000000D02*
X111500000Y-77750000D01*
X101000000Y-60000000D02*
X111500000Y-60000000D01*
X128000000Y-94000000D02*
X128000000Y-84250000D01*
X112000000Y-94000000D02*
X112000000Y-93750000D01*
X128000000Y-94000000D02*
X112000000Y-94000000D01*
X112000000Y-84250000D02*
X128000000Y-84250000D01*
X112000000Y-93750000D02*
X112000000Y-84250000D01*
D10*
X138190476Y-65904761D02*
X138285714Y-65952380D01*
X138476190Y-65952380D01*
X138571428Y-65904761D01*
X138619047Y-65809523D01*
X138619047Y-65761904D01*
X138571428Y-65666666D01*
X138476190Y-65619047D01*
X138333333Y-65619047D01*
X138238095Y-65571428D01*
X138190476Y-65476190D01*
X138190476Y-65428571D01*
X138238095Y-65333333D01*
X138333333Y-65285714D01*
X138476190Y-65285714D01*
X138571428Y-65333333D01*
X138904761Y-65285714D02*
X139285714Y-65285714D01*
X139047619Y-64952380D02*
X139047619Y-65809523D01*
X139095238Y-65904761D01*
X139190476Y-65952380D01*
X139285714Y-65952380D01*
X139619047Y-65571428D02*
X140380952Y-65571428D01*
X141000000Y-65952380D02*
X140904761Y-65904761D01*
X140857142Y-65857142D01*
X140809523Y-65761904D01*
X140809523Y-65476190D01*
X140857142Y-65380952D01*
X140904761Y-65333333D01*
X141000000Y-65285714D01*
X141142857Y-65285714D01*
X141238095Y-65333333D01*
X141285714Y-65380952D01*
X141333333Y-65476190D01*
X141333333Y-65761904D01*
X141285714Y-65857142D01*
X141238095Y-65904761D01*
X141142857Y-65952380D01*
X141000000Y-65952380D01*
X142190476Y-65285714D02*
X142190476Y-65952380D01*
X141761904Y-65285714D02*
X141761904Y-65809523D01*
X141809523Y-65904761D01*
X141904761Y-65952380D01*
X142047619Y-65952380D01*
X142142857Y-65904761D01*
X142190476Y-65857142D01*
X142523809Y-65285714D02*
X142904761Y-65285714D01*
X142666666Y-64952380D02*
X142666666Y-65809523D01*
X142714285Y-65904761D01*
X142809523Y-65952380D01*
X142904761Y-65952380D01*
X139190476Y-67904761D02*
X139285714Y-67952380D01*
X139476190Y-67952380D01*
X139571428Y-67904761D01*
X139619047Y-67809523D01*
X139619047Y-67761904D01*
X139571428Y-67666666D01*
X139476190Y-67619047D01*
X139333333Y-67619047D01*
X139238095Y-67571428D01*
X139190476Y-67476190D01*
X139190476Y-67428571D01*
X139238095Y-67333333D01*
X139333333Y-67285714D01*
X139476190Y-67285714D01*
X139571428Y-67333333D01*
X139904761Y-67285714D02*
X140285714Y-67285714D01*
X140047619Y-66952380D02*
X140047619Y-67809523D01*
X140095238Y-67904761D01*
X140190476Y-67952380D01*
X140285714Y-67952380D01*
X140619047Y-67571428D02*
X141380952Y-67571428D01*
X141857142Y-67952380D02*
X141857142Y-67285714D01*
X141857142Y-66952380D02*
X141809523Y-67000000D01*
X141857142Y-67047619D01*
X141904761Y-67000000D01*
X141857142Y-66952380D01*
X141857142Y-67047619D01*
X142333333Y-67285714D02*
X142333333Y-67952380D01*
X142333333Y-67380952D02*
X142380952Y-67333333D01*
X142476190Y-67285714D01*
X142619047Y-67285714D01*
X142714285Y-67333333D01*
X142761904Y-67428571D01*
X142761904Y-67952380D01*
X135690476Y-72952380D02*
X135690476Y-71952380D01*
X136023809Y-72666666D01*
X136357142Y-71952380D01*
X136357142Y-72952380D01*
X136785714Y-72047619D02*
X136833333Y-72000000D01*
X136928571Y-71952380D01*
X137166666Y-71952380D01*
X137261904Y-72000000D01*
X137309523Y-72047619D01*
X137357142Y-72142857D01*
X137357142Y-72238095D01*
X137309523Y-72380952D01*
X136738095Y-72952380D01*
X137357142Y-72952380D01*
X140690476Y-81202380D02*
X140690476Y-80202380D01*
X141023809Y-80916666D01*
X141357142Y-80202380D01*
X141357142Y-81202380D01*
X142023809Y-80202380D02*
X142119047Y-80202380D01*
X142214285Y-80250000D01*
X142261904Y-80297619D01*
X142309523Y-80392857D01*
X142357142Y-80583333D01*
X142357142Y-80821428D01*
X142309523Y-81011904D01*
X142261904Y-81107142D01*
X142214285Y-81154761D01*
X142119047Y-81202380D01*
X142023809Y-81202380D01*
X141928571Y-81154761D01*
X141880952Y-81107142D01*
X141833333Y-81011904D01*
X141785714Y-80821428D01*
X141785714Y-80583333D01*
X141833333Y-80392857D01*
X141880952Y-80297619D01*
X141928571Y-80250000D01*
X142023809Y-80202380D01*
X127976190Y-102452380D02*
X127976190Y-101452380D01*
X128214285Y-101452380D01*
X128357142Y-101500000D01*
X128452380Y-101595238D01*
X128500000Y-101690476D01*
X128547619Y-101880952D01*
X128547619Y-102023809D01*
X128500000Y-102214285D01*
X128452380Y-102309523D01*
X128357142Y-102404761D01*
X128214285Y-102452380D01*
X127976190Y-102452380D01*
X129119047Y-102452380D02*
X129023809Y-102404761D01*
X128976190Y-102357142D01*
X128928571Y-102261904D01*
X128928571Y-101976190D01*
X128976190Y-101880952D01*
X129023809Y-101833333D01*
X129119047Y-101785714D01*
X129261904Y-101785714D01*
X129357142Y-101833333D01*
X129404761Y-101880952D01*
X129452380Y-101976190D01*
X129452380Y-102261904D01*
X129404761Y-102357142D01*
X129357142Y-102404761D01*
X129261904Y-102452380D01*
X129119047Y-102452380D01*
X129880952Y-102452380D02*
X129880952Y-101452380D01*
X129880952Y-101833333D02*
X129976190Y-101785714D01*
X130166666Y-101785714D01*
X130261904Y-101833333D01*
X130309523Y-101880952D01*
X130357142Y-101976190D01*
X130357142Y-102261904D01*
X130309523Y-102357142D01*
X130261904Y-102404761D01*
X130166666Y-102452380D01*
X129976190Y-102452380D01*
X129880952Y-102404761D01*
X130928571Y-102452380D02*
X130833333Y-102404761D01*
X130785714Y-102309523D01*
X130785714Y-101452380D01*
X131690476Y-102404761D02*
X131595238Y-102452380D01*
X131404761Y-102452380D01*
X131309523Y-102404761D01*
X131261904Y-102309523D01*
X131261904Y-101928571D01*
X131309523Y-101833333D01*
X131404761Y-101785714D01*
X131595238Y-101785714D01*
X131690476Y-101833333D01*
X131738095Y-101928571D01*
X131738095Y-102023809D01*
X131261904Y-102119047D01*
X133261904Y-101928571D02*
X132928571Y-101928571D01*
X132928571Y-102452380D02*
X132928571Y-101452380D01*
X133404761Y-101452380D01*
X134214285Y-102452380D02*
X134214285Y-101928571D01*
X134166666Y-101833333D01*
X134071428Y-101785714D01*
X133880952Y-101785714D01*
X133785714Y-101833333D01*
X134214285Y-102404761D02*
X134119047Y-102452380D01*
X133880952Y-102452380D01*
X133785714Y-102404761D01*
X133738095Y-102309523D01*
X133738095Y-102214285D01*
X133785714Y-102119047D01*
X133880952Y-102071428D01*
X134119047Y-102071428D01*
X134214285Y-102023809D01*
X134595238Y-101785714D02*
X135119047Y-101785714D01*
X134595238Y-102452380D01*
X135119047Y-102452380D01*
X126285714Y-100404761D02*
X126428571Y-100452380D01*
X126666666Y-100452380D01*
X126761904Y-100404761D01*
X126809523Y-100357142D01*
X126857142Y-100261904D01*
X126857142Y-100166666D01*
X126809523Y-100071428D01*
X126761904Y-100023809D01*
X126666666Y-99976190D01*
X126476190Y-99928571D01*
X126380952Y-99880952D01*
X126333333Y-99833333D01*
X126285714Y-99738095D01*
X126285714Y-99642857D01*
X126333333Y-99547619D01*
X126380952Y-99500000D01*
X126476190Y-99452380D01*
X126714285Y-99452380D01*
X126857142Y-99500000D01*
X127285714Y-100452380D02*
X127285714Y-99452380D01*
X127714285Y-100452380D02*
X127714285Y-99928571D01*
X127666666Y-99833333D01*
X127571428Y-99785714D01*
X127428571Y-99785714D01*
X127333333Y-99833333D01*
X127285714Y-99880952D01*
X128571428Y-100404761D02*
X128476190Y-100452380D01*
X128285714Y-100452380D01*
X128190476Y-100404761D01*
X128142857Y-100309523D01*
X128142857Y-99928571D01*
X128190476Y-99833333D01*
X128285714Y-99785714D01*
X128476190Y-99785714D01*
X128571428Y-99833333D01*
X128619047Y-99928571D01*
X128619047Y-100023809D01*
X128142857Y-100119047D01*
X129047619Y-100452380D02*
X129047619Y-99785714D01*
X129047619Y-99976190D02*
X129095238Y-99880952D01*
X129142857Y-99833333D01*
X129238095Y-99785714D01*
X129333333Y-99785714D01*
X129666666Y-99785714D02*
X129666666Y-100785714D01*
X129666666Y-99833333D02*
X129761904Y-99785714D01*
X129952380Y-99785714D01*
X130047619Y-99833333D01*
X130095238Y-99880952D01*
X130142857Y-99976190D01*
X130142857Y-100261904D01*
X130095238Y-100357142D01*
X130047619Y-100404761D01*
X129952380Y-100452380D01*
X129761904Y-100452380D01*
X129666666Y-100404761D01*
X131000000Y-100452380D02*
X131000000Y-99928571D01*
X130952380Y-99833333D01*
X130857142Y-99785714D01*
X130666666Y-99785714D01*
X130571428Y-99833333D01*
X131000000Y-100404761D02*
X130904761Y-100452380D01*
X130666666Y-100452380D01*
X130571428Y-100404761D01*
X130523809Y-100309523D01*
X130523809Y-100214285D01*
X130571428Y-100119047D01*
X130666666Y-100071428D01*
X130904761Y-100071428D01*
X131000000Y-100023809D01*
X132238095Y-100071428D02*
X133000000Y-100071428D01*
X134142857Y-99785714D02*
X134380952Y-100452380D01*
X134619047Y-99785714D01*
X134952380Y-99547619D02*
X135000000Y-99500000D01*
X135095238Y-99452380D01*
X135333333Y-99452380D01*
X135428571Y-99500000D01*
X135476190Y-99547619D01*
X135523809Y-99642857D01*
X135523809Y-99738095D01*
X135476190Y-99880952D01*
X134904761Y-100452380D01*
X135523809Y-100452380D01*
X135952380Y-100357142D02*
X136000000Y-100404761D01*
X135952380Y-100452380D01*
X135904761Y-100404761D01*
X135952380Y-100357142D01*
X135952380Y-100452380D01*
X136619047Y-99452380D02*
X136714285Y-99452380D01*
X136809523Y-99500000D01*
X136857142Y-99547619D01*
X136904761Y-99642857D01*
X136952380Y-99833333D01*
X136952380Y-100071428D01*
X136904761Y-100261904D01*
X136857142Y-100357142D01*
X136809523Y-100404761D01*
X136714285Y-100452380D01*
X136619047Y-100452380D01*
X136523809Y-100404761D01*
X136476190Y-100357142D01*
X136428571Y-100261904D01*
X136380952Y-100071428D01*
X136380952Y-99833333D01*
X136428571Y-99642857D01*
X136476190Y-99547619D01*
X136523809Y-99500000D01*
X136619047Y-99452380D01*
X87690476Y-95678571D02*
X87357142Y-95678571D01*
X87357142Y-96202380D02*
X87357142Y-95202380D01*
X87833333Y-95202380D01*
X88642857Y-96202380D02*
X88642857Y-95678571D01*
X88595238Y-95583333D01*
X88500000Y-95535714D01*
X88309523Y-95535714D01*
X88214285Y-95583333D01*
X88642857Y-96154761D02*
X88547619Y-96202380D01*
X88309523Y-96202380D01*
X88214285Y-96154761D01*
X88166666Y-96059523D01*
X88166666Y-95964285D01*
X88214285Y-95869047D01*
X88309523Y-95821428D01*
X88547619Y-95821428D01*
X88642857Y-95773809D01*
X89547619Y-95535714D02*
X89547619Y-96202380D01*
X89119047Y-95535714D02*
X89119047Y-96059523D01*
X89166666Y-96154761D01*
X89261904Y-96202380D01*
X89404761Y-96202380D01*
X89500000Y-96154761D01*
X89547619Y-96107142D01*
X90166666Y-96202380D02*
X90071428Y-96154761D01*
X90023809Y-96059523D01*
X90023809Y-95202380D01*
X90404761Y-95535714D02*
X90785714Y-95535714D01*
X90547619Y-95202380D02*
X90547619Y-96059523D01*
X90595238Y-96154761D01*
X90690476Y-96202380D01*
X90785714Y-96202380D01*
X106000000Y-97952380D02*
X106333333Y-98952380D01*
X106666666Y-97952380D01*
X107000000Y-98952380D02*
X107000000Y-98285714D01*
X107000000Y-98380952D02*
X107047619Y-98333333D01*
X107142857Y-98285714D01*
X107285714Y-98285714D01*
X107380952Y-98333333D01*
X107428571Y-98428571D01*
X107428571Y-98952380D01*
X107428571Y-98428571D02*
X107476190Y-98333333D01*
X107571428Y-98285714D01*
X107714285Y-98285714D01*
X107809523Y-98333333D01*
X107857142Y-98428571D01*
X107857142Y-98952380D01*
X108476190Y-98952380D02*
X108380952Y-98904761D01*
X108333333Y-98857142D01*
X108285714Y-98761904D01*
X108285714Y-98476190D01*
X108333333Y-98380952D01*
X108380952Y-98333333D01*
X108476190Y-98285714D01*
X108619047Y-98285714D01*
X108714285Y-98333333D01*
X108761904Y-98380952D01*
X108809523Y-98476190D01*
X108809523Y-98761904D01*
X108761904Y-98857142D01*
X108714285Y-98904761D01*
X108619047Y-98952380D01*
X108476190Y-98952380D01*
X109095238Y-98285714D02*
X109476190Y-98285714D01*
X109238095Y-97952380D02*
X109238095Y-98809523D01*
X109285714Y-98904761D01*
X109380952Y-98952380D01*
X109476190Y-98952380D01*
X109952380Y-98952380D02*
X109857142Y-98904761D01*
X109809523Y-98857142D01*
X109761904Y-98761904D01*
X109761904Y-98476190D01*
X109809523Y-98380952D01*
X109857142Y-98333333D01*
X109952380Y-98285714D01*
X110095238Y-98285714D01*
X110190476Y-98333333D01*
X110238095Y-98380952D01*
X110285714Y-98476190D01*
X110285714Y-98761904D01*
X110238095Y-98857142D01*
X110190476Y-98904761D01*
X110095238Y-98952380D01*
X109952380Y-98952380D01*
X110714285Y-98952380D02*
X110714285Y-98285714D01*
X110714285Y-98476190D02*
X110761904Y-98380952D01*
X110809523Y-98333333D01*
X110904761Y-98285714D01*
X111000000Y-98285714D01*
D12*
X75000000Y-109750000D02*
X75000000Y-49750000D01*
X145000000Y-109750000D02*
X75000000Y-109750000D01*
X145000000Y-49750000D02*
X145000000Y-109750000D01*
X75000000Y-49750000D02*
X145000000Y-49750000D01*
D10*
X102559523Y-60785714D02*
X102559523Y-61595238D01*
X102511904Y-61690476D01*
X102464285Y-61738095D01*
X102369047Y-61785714D01*
X102226190Y-61785714D01*
X102130952Y-61738095D01*
X102559523Y-61404761D02*
X102464285Y-61452380D01*
X102273809Y-61452380D01*
X102178571Y-61404761D01*
X102130952Y-61357142D01*
X102083333Y-61261904D01*
X102083333Y-60976190D01*
X102130952Y-60880952D01*
X102178571Y-60833333D01*
X102273809Y-60785714D01*
X102464285Y-60785714D01*
X102559523Y-60833333D01*
X103035714Y-60785714D02*
X103035714Y-61452380D01*
X103035714Y-60880952D02*
X103083333Y-60833333D01*
X103178571Y-60785714D01*
X103321428Y-60785714D01*
X103416666Y-60833333D01*
X103464285Y-60928571D01*
X103464285Y-61452380D01*
X104369047Y-61452380D02*
X104369047Y-60452380D01*
X104369047Y-61404761D02*
X104273809Y-61452380D01*
X104083333Y-61452380D01*
X103988095Y-61404761D01*
X103940476Y-61357142D01*
X103892857Y-61261904D01*
X103892857Y-60976190D01*
X103940476Y-60880952D01*
X103988095Y-60833333D01*
X104083333Y-60785714D01*
X104273809Y-60785714D01*
X104369047Y-60833333D01*
X102595238Y-67404761D02*
X102500000Y-67452380D01*
X102309523Y-67452380D01*
X102214285Y-67404761D01*
X102166666Y-67357142D01*
X102119047Y-67261904D01*
X102119047Y-66976190D01*
X102166666Y-66880952D01*
X102214285Y-66833333D01*
X102309523Y-66785714D01*
X102500000Y-66785714D01*
X102595238Y-66833333D01*
X103023809Y-67452380D02*
X103023809Y-66785714D01*
X103023809Y-66452380D02*
X102976190Y-66500000D01*
X103023809Y-66547619D01*
X103071428Y-66500000D01*
X103023809Y-66452380D01*
X103023809Y-66547619D01*
X103928571Y-67452380D02*
X103928571Y-66928571D01*
X103880952Y-66833333D01*
X103785714Y-66785714D01*
X103595238Y-66785714D01*
X103500000Y-66833333D01*
X103928571Y-67404761D02*
X103833333Y-67452380D01*
X103595238Y-67452380D01*
X103500000Y-67404761D01*
X103452380Y-67309523D01*
X103452380Y-67214285D01*
X103500000Y-67119047D01*
X103595238Y-67071428D01*
X103833333Y-67071428D01*
X103928571Y-67023809D01*
X104833333Y-67452380D02*
X104833333Y-66928571D01*
X104785714Y-66833333D01*
X104690476Y-66785714D01*
X104500000Y-66785714D01*
X104404761Y-66833333D01*
X104833333Y-67404761D02*
X104738095Y-67452380D01*
X104500000Y-67452380D01*
X104404761Y-67404761D01*
X104357142Y-67309523D01*
X104357142Y-67214285D01*
X104404761Y-67119047D01*
X104500000Y-67071428D01*
X104738095Y-67071428D01*
X104833333Y-67023809D01*
X102154761Y-72285714D02*
X102392857Y-72952380D01*
X102630952Y-72285714D01*
X103440476Y-72904761D02*
X103345238Y-72952380D01*
X103154761Y-72952380D01*
X103059523Y-72904761D01*
X103011904Y-72857142D01*
X102964285Y-72761904D01*
X102964285Y-72476190D01*
X103011904Y-72380952D01*
X103059523Y-72333333D01*
X103154761Y-72285714D01*
X103345238Y-72285714D01*
X103440476Y-72333333D01*
X104297619Y-72904761D02*
X104202380Y-72952380D01*
X104011904Y-72952380D01*
X103916666Y-72904761D01*
X103869047Y-72857142D01*
X103821428Y-72761904D01*
X103821428Y-72476190D01*
X103869047Y-72380952D01*
X103916666Y-72333333D01*
X104011904Y-72285714D01*
X104202380Y-72285714D01*
X104297619Y-72333333D01*
X98690476Y-75702380D02*
X98690476Y-74702380D01*
X99023809Y-75416666D01*
X99357142Y-74702380D01*
X99357142Y-75702380D01*
X99785714Y-74797619D02*
X99833333Y-74750000D01*
X99928571Y-74702380D01*
X100166666Y-74702380D01*
X100261904Y-74750000D01*
X100309523Y-74797619D01*
X100357142Y-74892857D01*
X100357142Y-74988095D01*
X100309523Y-75130952D01*
X99738095Y-75702380D01*
X100357142Y-75702380D01*
X119095238Y-93404761D02*
X119000000Y-93452380D01*
X118809523Y-93452380D01*
X118714285Y-93404761D01*
X118666666Y-93357142D01*
X118619047Y-93261904D01*
X118619047Y-92976190D01*
X118666666Y-92880952D01*
X118714285Y-92833333D01*
X118809523Y-92785714D01*
X119000000Y-92785714D01*
X119095238Y-92833333D01*
X119523809Y-93452380D02*
X119523809Y-92785714D01*
X119523809Y-92452380D02*
X119476190Y-92500000D01*
X119523809Y-92547619D01*
X119571428Y-92500000D01*
X119523809Y-92452380D01*
X119523809Y-92547619D01*
X120428571Y-93452380D02*
X120428571Y-92928571D01*
X120380952Y-92833333D01*
X120285714Y-92785714D01*
X120095238Y-92785714D01*
X120000000Y-92833333D01*
X120428571Y-93404761D02*
X120333333Y-93452380D01*
X120095238Y-93452380D01*
X120000000Y-93404761D01*
X119952380Y-93309523D01*
X119952380Y-93214285D01*
X120000000Y-93119047D01*
X120095238Y-93071428D01*
X120333333Y-93071428D01*
X120428571Y-93023809D01*
X121333333Y-93452380D02*
X121333333Y-92928571D01*
X121285714Y-92833333D01*
X121190476Y-92785714D01*
X121000000Y-92785714D01*
X120904761Y-92833333D01*
X121333333Y-93404761D02*
X121238095Y-93452380D01*
X121000000Y-93452380D01*
X120904761Y-93404761D01*
X120857142Y-93309523D01*
X120857142Y-93214285D01*
X120904761Y-93119047D01*
X121000000Y-93071428D01*
X121238095Y-93071428D01*
X121333333Y-93023809D01*
X112654761Y-92535714D02*
X112892857Y-93202380D01*
X113130952Y-92535714D01*
X113940476Y-93154761D02*
X113845238Y-93202380D01*
X113654761Y-93202380D01*
X113559523Y-93154761D01*
X113511904Y-93107142D01*
X113464285Y-93011904D01*
X113464285Y-92726190D01*
X113511904Y-92630952D01*
X113559523Y-92583333D01*
X113654761Y-92535714D01*
X113845238Y-92535714D01*
X113940476Y-92583333D01*
X114797619Y-93154761D02*
X114702380Y-93202380D01*
X114511904Y-93202380D01*
X114416666Y-93154761D01*
X114369047Y-93107142D01*
X114321428Y-93011904D01*
X114321428Y-92726190D01*
X114369047Y-92630952D01*
X114416666Y-92583333D01*
X114511904Y-92535714D01*
X114702380Y-92535714D01*
X114797619Y-92583333D01*
X125059523Y-92785714D02*
X125059523Y-93595238D01*
X125011904Y-93690476D01*
X124964285Y-93738095D01*
X124869047Y-93785714D01*
X124726190Y-93785714D01*
X124630952Y-93738095D01*
X125059523Y-93404761D02*
X124964285Y-93452380D01*
X124773809Y-93452380D01*
X124678571Y-93404761D01*
X124630952Y-93357142D01*
X124583333Y-93261904D01*
X124583333Y-92976190D01*
X124630952Y-92880952D01*
X124678571Y-92833333D01*
X124773809Y-92785714D01*
X124964285Y-92785714D01*
X125059523Y-92833333D01*
X125535714Y-92785714D02*
X125535714Y-93452380D01*
X125535714Y-92880952D02*
X125583333Y-92833333D01*
X125678571Y-92785714D01*
X125821428Y-92785714D01*
X125916666Y-92833333D01*
X125964285Y-92928571D01*
X125964285Y-93452380D01*
X126869047Y-93452380D02*
X126869047Y-92452380D01*
X126869047Y-93404761D02*
X126773809Y-93452380D01*
X126583333Y-93452380D01*
X126488095Y-93404761D01*
X126440476Y-93357142D01*
X126392857Y-93261904D01*
X126392857Y-92976190D01*
X126440476Y-92880952D01*
X126488095Y-92833333D01*
X126583333Y-92785714D01*
X126773809Y-92785714D01*
X126869047Y-92833333D01*
X113590476Y-95452380D02*
X113590476Y-94452380D01*
X113923809Y-95166666D01*
X114257142Y-94452380D01*
X114257142Y-95452380D01*
X115257142Y-95452380D02*
X114685714Y-95452380D01*
X114971428Y-95452380D02*
X114971428Y-94452380D01*
X114876190Y-94595238D01*
X114780952Y-94690476D01*
X114685714Y-94738095D01*
X92166666Y-58452380D02*
X92166666Y-57452380D01*
X92166666Y-58404761D02*
X92071428Y-58452380D01*
X91880952Y-58452380D01*
X91785714Y-58404761D01*
X91738095Y-58357142D01*
X91690476Y-58261904D01*
X91690476Y-57976190D01*
X91738095Y-57880952D01*
X91785714Y-57833333D01*
X91880952Y-57785714D01*
X92071428Y-57785714D01*
X92166666Y-57833333D01*
X92642857Y-58452380D02*
X92642857Y-57785714D01*
X92642857Y-57452380D02*
X92595238Y-57500000D01*
X92642857Y-57547619D01*
X92690476Y-57500000D01*
X92642857Y-57452380D01*
X92642857Y-57547619D01*
X93119047Y-58452380D02*
X93119047Y-57785714D01*
X93119047Y-57976190D02*
X93166666Y-57880952D01*
X93214285Y-57833333D01*
X93309523Y-57785714D01*
X93404761Y-57785714D01*
X94297619Y-58404761D02*
X94392857Y-58452380D01*
X94583333Y-58452380D01*
X94678571Y-58404761D01*
X94726190Y-58309523D01*
X94726190Y-58261904D01*
X94678571Y-58166666D01*
X94583333Y-58119047D01*
X94440476Y-58119047D01*
X94345238Y-58071428D01*
X94297619Y-57976190D01*
X94297619Y-57928571D01*
X94345238Y-57833333D01*
X94440476Y-57785714D01*
X94583333Y-57785714D01*
X94678571Y-57833333D01*
X95011904Y-57785714D02*
X95392857Y-57785714D01*
X95154761Y-57452380D02*
X95154761Y-58309523D01*
X95202380Y-58404761D01*
X95297619Y-58452380D01*
X95392857Y-58452380D01*
X95726190Y-57785714D02*
X95726190Y-58785714D01*
X95726190Y-57833333D02*
X95821428Y-57785714D01*
X96011904Y-57785714D01*
X96107142Y-57833333D01*
X96154761Y-57880952D01*
X96202380Y-57976190D01*
X96202380Y-58261904D01*
X96154761Y-58357142D01*
X96107142Y-58404761D01*
X96011904Y-58452380D01*
X95821428Y-58452380D01*
X95726190Y-58404761D01*
X97535714Y-58404761D02*
X97440476Y-58452380D01*
X97250000Y-58452380D01*
X97154761Y-58404761D01*
X97107142Y-58309523D01*
X97107142Y-57928571D01*
X97154761Y-57833333D01*
X97250000Y-57785714D01*
X97440476Y-57785714D01*
X97535714Y-57833333D01*
X97583333Y-57928571D01*
X97583333Y-58023809D01*
X97107142Y-58119047D01*
X98011904Y-57785714D02*
X98011904Y-58452380D01*
X98011904Y-57880952D02*
X98059523Y-57833333D01*
X98154761Y-57785714D01*
X98297619Y-57785714D01*
X98392857Y-57833333D01*
X98440476Y-57928571D01*
X98440476Y-58452380D01*
X99345238Y-58452380D02*
X99345238Y-57928571D01*
X99297619Y-57833333D01*
X99202380Y-57785714D01*
X99011904Y-57785714D01*
X98916666Y-57833333D01*
X99345238Y-58404761D02*
X99250000Y-58452380D01*
X99011904Y-58452380D01*
X98916666Y-58404761D01*
X98869047Y-58309523D01*
X98869047Y-58214285D01*
X98916666Y-58119047D01*
X99011904Y-58071428D01*
X99250000Y-58071428D01*
X99345238Y-58023809D01*
X87988095Y-101285714D02*
X87988095Y-102285714D01*
X87988095Y-101333333D02*
X88083333Y-101285714D01*
X88273809Y-101285714D01*
X88369047Y-101333333D01*
X88416666Y-101380952D01*
X88464285Y-101476190D01*
X88464285Y-101761904D01*
X88416666Y-101857142D01*
X88369047Y-101904761D01*
X88273809Y-101952380D01*
X88083333Y-101952380D01*
X87988095Y-101904761D01*
X88892857Y-101952380D02*
X88892857Y-100952380D01*
X89321428Y-101952380D02*
X89321428Y-101428571D01*
X89273809Y-101333333D01*
X89178571Y-101285714D01*
X89035714Y-101285714D01*
X88940476Y-101333333D01*
X88892857Y-101380952D01*
X90226190Y-101952380D02*
X90226190Y-101428571D01*
X90178571Y-101333333D01*
X90083333Y-101285714D01*
X89892857Y-101285714D01*
X89797619Y-101333333D01*
X90226190Y-101904761D02*
X90130952Y-101952380D01*
X89892857Y-101952380D01*
X89797619Y-101904761D01*
X89750000Y-101809523D01*
X89750000Y-101714285D01*
X89797619Y-101619047D01*
X89892857Y-101571428D01*
X90130952Y-101571428D01*
X90226190Y-101523809D01*
X90654761Y-101904761D02*
X90750000Y-101952380D01*
X90940476Y-101952380D01*
X91035714Y-101904761D01*
X91083333Y-101809523D01*
X91083333Y-101761904D01*
X91035714Y-101666666D01*
X90940476Y-101619047D01*
X90797619Y-101619047D01*
X90702380Y-101571428D01*
X90654761Y-101476190D01*
X90654761Y-101428571D01*
X90702380Y-101333333D01*
X90797619Y-101285714D01*
X90940476Y-101285714D01*
X91035714Y-101333333D01*
X91892857Y-101904761D02*
X91797619Y-101952380D01*
X91607142Y-101952380D01*
X91511904Y-101904761D01*
X91464285Y-101809523D01*
X91464285Y-101428571D01*
X91511904Y-101333333D01*
X91607142Y-101285714D01*
X91797619Y-101285714D01*
X91892857Y-101333333D01*
X91940476Y-101428571D01*
X91940476Y-101523809D01*
X91464285Y-101619047D01*
X93083333Y-101666666D02*
X93559523Y-101666666D01*
X92988095Y-101952380D02*
X93321428Y-100952380D01*
X93654761Y-101952380D01*
X96166666Y-101035714D02*
X96166666Y-102035714D01*
X96166666Y-101083333D02*
X96261904Y-101035714D01*
X96452380Y-101035714D01*
X96547619Y-101083333D01*
X96595238Y-101130952D01*
X96642857Y-101226190D01*
X96642857Y-101511904D01*
X96595238Y-101607142D01*
X96547619Y-101654761D01*
X96452380Y-101702380D01*
X96261904Y-101702380D01*
X96166666Y-101654761D01*
X97071428Y-101702380D02*
X97071428Y-100702380D01*
X97500000Y-101702380D02*
X97500000Y-101178571D01*
X97452380Y-101083333D01*
X97357142Y-101035714D01*
X97214285Y-101035714D01*
X97119047Y-101083333D01*
X97071428Y-101130952D01*
X98404761Y-101702380D02*
X98404761Y-101178571D01*
X98357142Y-101083333D01*
X98261904Y-101035714D01*
X98071428Y-101035714D01*
X97976190Y-101083333D01*
X98404761Y-101654761D02*
X98309523Y-101702380D01*
X98071428Y-101702380D01*
X97976190Y-101654761D01*
X97928571Y-101559523D01*
X97928571Y-101464285D01*
X97976190Y-101369047D01*
X98071428Y-101321428D01*
X98309523Y-101321428D01*
X98404761Y-101273809D01*
X98833333Y-101654761D02*
X98928571Y-101702380D01*
X99119047Y-101702380D01*
X99214285Y-101654761D01*
X99261904Y-101559523D01*
X99261904Y-101511904D01*
X99214285Y-101416666D01*
X99119047Y-101369047D01*
X98976190Y-101369047D01*
X98880952Y-101321428D01*
X98833333Y-101226190D01*
X98833333Y-101178571D01*
X98880952Y-101083333D01*
X98976190Y-101035714D01*
X99119047Y-101035714D01*
X99214285Y-101083333D01*
X100071428Y-101654761D02*
X99976190Y-101702380D01*
X99785714Y-101702380D01*
X99690476Y-101654761D01*
X99642857Y-101559523D01*
X99642857Y-101178571D01*
X99690476Y-101083333D01*
X99785714Y-101035714D01*
X99976190Y-101035714D01*
X100071428Y-101083333D01*
X100119047Y-101178571D01*
X100119047Y-101273809D01*
X99642857Y-101369047D01*
X101642857Y-101178571D02*
X101785714Y-101226190D01*
X101833333Y-101273809D01*
X101880952Y-101369047D01*
X101880952Y-101511904D01*
X101833333Y-101607142D01*
X101785714Y-101654761D01*
X101690476Y-101702380D01*
X101309523Y-101702380D01*
X101309523Y-100702380D01*
X101642857Y-100702380D01*
X101738095Y-100750000D01*
X101785714Y-100797619D01*
X101833333Y-100892857D01*
X101833333Y-100988095D01*
X101785714Y-101083333D01*
X101738095Y-101130952D01*
X101642857Y-101178571D01*
X101309523Y-101178571D01*
X106726190Y-55428571D02*
X106392857Y-55428571D01*
X106392857Y-55952380D02*
X106392857Y-54952380D01*
X106869047Y-54952380D01*
X107678571Y-55952380D02*
X107678571Y-55428571D01*
X107630952Y-55333333D01*
X107535714Y-55285714D01*
X107345238Y-55285714D01*
X107250000Y-55333333D01*
X107678571Y-55904761D02*
X107583333Y-55952380D01*
X107345238Y-55952380D01*
X107250000Y-55904761D01*
X107202380Y-55809523D01*
X107202380Y-55714285D01*
X107250000Y-55619047D01*
X107345238Y-55571428D01*
X107583333Y-55571428D01*
X107678571Y-55523809D01*
X108583333Y-55904761D02*
X108488095Y-55952380D01*
X108297619Y-55952380D01*
X108202380Y-55904761D01*
X108154761Y-55857142D01*
X108107142Y-55761904D01*
X108107142Y-55476190D01*
X108154761Y-55380952D01*
X108202380Y-55333333D01*
X108297619Y-55285714D01*
X108488095Y-55285714D01*
X108583333Y-55333333D01*
X109440476Y-55285714D02*
X109440476Y-55952380D01*
X109011904Y-55285714D02*
X109011904Y-55809523D01*
X109059523Y-55904761D01*
X109154761Y-55952380D01*
X109297619Y-55952380D01*
X109392857Y-55904761D01*
X109440476Y-55857142D01*
X110059523Y-55952380D02*
X109964285Y-55904761D01*
X109916666Y-55809523D01*
X109916666Y-54952380D01*
X110297619Y-55285714D02*
X110678571Y-55285714D01*
X110440476Y-54952380D02*
X110440476Y-55809523D01*
X110488095Y-55904761D01*
X110583333Y-55952380D01*
X110678571Y-55952380D01*
X111440476Y-55952380D02*
X111440476Y-55428571D01*
X111392857Y-55333333D01*
X111297619Y-55285714D01*
X111107142Y-55285714D01*
X111011904Y-55333333D01*
X111440476Y-55904761D02*
X111345238Y-55952380D01*
X111107142Y-55952380D01*
X111011904Y-55904761D01*
X110964285Y-55809523D01*
X110964285Y-55714285D01*
X111011904Y-55619047D01*
X111107142Y-55571428D01*
X111345238Y-55571428D01*
X111440476Y-55523809D01*
X112345238Y-55952380D02*
X112345238Y-54952380D01*
X112345238Y-55904761D02*
X112250000Y-55952380D01*
X112059523Y-55952380D01*
X111964285Y-55904761D01*
X111916666Y-55857142D01*
X111869047Y-55761904D01*
X111869047Y-55476190D01*
X111916666Y-55380952D01*
X111964285Y-55333333D01*
X112059523Y-55285714D01*
X112250000Y-55285714D01*
X112345238Y-55333333D01*
X114011904Y-55952380D02*
X114011904Y-54952380D01*
X114011904Y-55904761D02*
X113916666Y-55952380D01*
X113726190Y-55952380D01*
X113630952Y-55904761D01*
X113583333Y-55857142D01*
X113535714Y-55761904D01*
X113535714Y-55476190D01*
X113583333Y-55380952D01*
X113630952Y-55333333D01*
X113726190Y-55285714D01*
X113916666Y-55285714D01*
X114011904Y-55333333D01*
X114869047Y-55904761D02*
X114773809Y-55952380D01*
X114583333Y-55952380D01*
X114488095Y-55904761D01*
X114440476Y-55809523D01*
X114440476Y-55428571D01*
X114488095Y-55333333D01*
X114583333Y-55285714D01*
X114773809Y-55285714D01*
X114869047Y-55333333D01*
X114916666Y-55428571D01*
X114916666Y-55523809D01*
X114440476Y-55619047D01*
X116107142Y-55952380D02*
X116107142Y-54952380D01*
X116583333Y-55285714D02*
X116583333Y-55952380D01*
X116583333Y-55380952D02*
X116630952Y-55333333D01*
X116726190Y-55285714D01*
X116869047Y-55285714D01*
X116964285Y-55333333D01*
X117011904Y-55428571D01*
X117011904Y-55952380D01*
X117916666Y-55285714D02*
X117916666Y-56095238D01*
X117869047Y-56190476D01*
X117821428Y-56238095D01*
X117726190Y-56285714D01*
X117583333Y-56285714D01*
X117488095Y-56238095D01*
X117916666Y-55904761D02*
X117821428Y-55952380D01*
X117630952Y-55952380D01*
X117535714Y-55904761D01*
X117488095Y-55857142D01*
X117440476Y-55761904D01*
X117440476Y-55476190D01*
X117488095Y-55380952D01*
X117535714Y-55333333D01*
X117630952Y-55285714D01*
X117821428Y-55285714D01*
X117916666Y-55333333D01*
X118773809Y-55904761D02*
X118678571Y-55952380D01*
X118488095Y-55952380D01*
X118392857Y-55904761D01*
X118345238Y-55809523D01*
X118345238Y-55428571D01*
X118392857Y-55333333D01*
X118488095Y-55285714D01*
X118678571Y-55285714D01*
X118773809Y-55333333D01*
X118821428Y-55428571D01*
X118821428Y-55523809D01*
X118345238Y-55619047D01*
X119250000Y-55285714D02*
X119250000Y-55952380D01*
X119250000Y-55380952D02*
X119297619Y-55333333D01*
X119392857Y-55285714D01*
X119535714Y-55285714D01*
X119630952Y-55333333D01*
X119678571Y-55428571D01*
X119678571Y-55952380D01*
X120154761Y-55952380D02*
X120154761Y-55285714D01*
X120154761Y-54952380D02*
X120107142Y-55000000D01*
X120154761Y-55047619D01*
X120202380Y-55000000D01*
X120154761Y-54952380D01*
X120154761Y-55047619D01*
X121011904Y-55904761D02*
X120916666Y-55952380D01*
X120726190Y-55952380D01*
X120630952Y-55904761D01*
X120583333Y-55809523D01*
X120583333Y-55428571D01*
X120630952Y-55333333D01*
X120726190Y-55285714D01*
X120916666Y-55285714D01*
X121011904Y-55333333D01*
X121059523Y-55428571D01*
X121059523Y-55523809D01*
X120583333Y-55619047D01*
X121488095Y-55952380D02*
X121488095Y-55285714D01*
X121488095Y-55476190D02*
X121535714Y-55380952D01*
X121583333Y-55333333D01*
X121678571Y-55285714D01*
X121773809Y-55285714D01*
X122107142Y-55952380D02*
X122107142Y-55285714D01*
X122202380Y-54904761D02*
X122059523Y-55047619D01*
X123011904Y-55952380D02*
X123011904Y-55428571D01*
X122964285Y-55333333D01*
X122869047Y-55285714D01*
X122678571Y-55285714D01*
X122583333Y-55333333D01*
X123011904Y-55904761D02*
X122916666Y-55952380D01*
X122678571Y-55952380D01*
X122583333Y-55904761D01*
X122535714Y-55809523D01*
X122535714Y-55714285D01*
X122583333Y-55619047D01*
X122678571Y-55571428D01*
X122916666Y-55571428D01*
X123011904Y-55523809D01*
X124250000Y-55571428D02*
X125011904Y-55571428D01*
X126250000Y-54952380D02*
X126250000Y-55761904D01*
X126297619Y-55857142D01*
X126345238Y-55904761D01*
X126440476Y-55952380D01*
X126630952Y-55952380D01*
X126726190Y-55904761D01*
X126773809Y-55857142D01*
X126821428Y-55761904D01*
X126821428Y-54952380D01*
X127297619Y-55857142D02*
X127345238Y-55904761D01*
X127297619Y-55952380D01*
X127250000Y-55904761D01*
X127297619Y-55857142D01*
X127297619Y-55952380D01*
X128107142Y-55428571D02*
X128250000Y-55476190D01*
X128297619Y-55523809D01*
X128345238Y-55619047D01*
X128345238Y-55761904D01*
X128297619Y-55857142D01*
X128250000Y-55904761D01*
X128154761Y-55952380D01*
X127773809Y-55952380D01*
X127773809Y-54952380D01*
X128107142Y-54952380D01*
X128202380Y-55000000D01*
X128250000Y-55047619D01*
X128297619Y-55142857D01*
X128297619Y-55238095D01*
X128250000Y-55333333D01*
X128202380Y-55380952D01*
X128107142Y-55428571D01*
X127773809Y-55428571D01*
X128773809Y-55857142D02*
X128821428Y-55904761D01*
X128773809Y-55952380D01*
X128726190Y-55904761D01*
X128773809Y-55857142D01*
X128773809Y-55952380D01*
X129202380Y-55666666D02*
X129678571Y-55666666D01*
X129107142Y-55952380D02*
X129440476Y-54952380D01*
X129773809Y-55952380D01*
X130107142Y-55857142D02*
X130154761Y-55904761D01*
X130107142Y-55952380D01*
X130059523Y-55904761D01*
X130107142Y-55857142D01*
X130107142Y-55952380D01*
X105083333Y-57416666D02*
X105559523Y-57416666D01*
X104988095Y-57702380D02*
X105321428Y-56702380D01*
X105654761Y-57702380D01*
X106416666Y-57035714D02*
X106416666Y-57702380D01*
X105988095Y-57035714D02*
X105988095Y-57559523D01*
X106035714Y-57654761D01*
X106130952Y-57702380D01*
X106273809Y-57702380D01*
X106369047Y-57654761D01*
X106416666Y-57607142D01*
X106749999Y-57035714D02*
X107130952Y-57035714D01*
X106892857Y-56702380D02*
X106892857Y-57559523D01*
X106940476Y-57654761D01*
X107035714Y-57702380D01*
X107130952Y-57702380D01*
X107607142Y-57702380D02*
X107511904Y-57654761D01*
X107464285Y-57607142D01*
X107416666Y-57511904D01*
X107416666Y-57226190D01*
X107464285Y-57130952D01*
X107511904Y-57083333D01*
X107607142Y-57035714D01*
X107749999Y-57035714D01*
X107845238Y-57083333D01*
X107892857Y-57130952D01*
X107940476Y-57226190D01*
X107940476Y-57511904D01*
X107892857Y-57607142D01*
X107845238Y-57654761D01*
X107749999Y-57702380D01*
X107607142Y-57702380D01*
X108369047Y-57702380D02*
X108369047Y-57035714D01*
X108369047Y-57226190D02*
X108416666Y-57130952D01*
X108464285Y-57083333D01*
X108559523Y-57035714D01*
X108654761Y-57035714D01*
X108988095Y-57607142D02*
X109035714Y-57654761D01*
X108988095Y-57702380D01*
X108940476Y-57654761D01*
X108988095Y-57607142D01*
X108988095Y-57702380D01*
X108988095Y-57083333D02*
X109035714Y-57130952D01*
X108988095Y-57178571D01*
X108940476Y-57130952D01*
X108988095Y-57083333D01*
X108988095Y-57178571D01*
X110226190Y-57178571D02*
X110559523Y-57178571D01*
X110702380Y-57702380D02*
X110226190Y-57702380D01*
X110226190Y-56702380D01*
X110702380Y-56702380D01*
X111083333Y-57654761D02*
X111178571Y-57702380D01*
X111369047Y-57702380D01*
X111464285Y-57654761D01*
X111511904Y-57559523D01*
X111511904Y-57511904D01*
X111464285Y-57416666D01*
X111369047Y-57369047D01*
X111226190Y-57369047D01*
X111130952Y-57321428D01*
X111083333Y-57226190D01*
X111083333Y-57178571D01*
X111130952Y-57083333D01*
X111226190Y-57035714D01*
X111369047Y-57035714D01*
X111464285Y-57083333D01*
X111940476Y-57035714D02*
X111940476Y-58035714D01*
X111940476Y-57083333D02*
X112035714Y-57035714D01*
X112226190Y-57035714D01*
X112321428Y-57083333D01*
X112369047Y-57130952D01*
X112416666Y-57226190D01*
X112416666Y-57511904D01*
X112369047Y-57607142D01*
X112321428Y-57654761D01*
X112226190Y-57702380D01*
X112035714Y-57702380D01*
X111940476Y-57654761D01*
X112845238Y-57607142D02*
X112892857Y-57654761D01*
X112845238Y-57702380D01*
X112797619Y-57654761D01*
X112845238Y-57607142D01*
X112845238Y-57702380D01*
X114083333Y-57702380D02*
X114083333Y-56702380D01*
X114559523Y-57035714D02*
X114559523Y-57702380D01*
X114559523Y-57130952D02*
X114607142Y-57083333D01*
X114702380Y-57035714D01*
X114845238Y-57035714D01*
X114940476Y-57083333D01*
X114988095Y-57178571D01*
X114988095Y-57702380D01*
X115892857Y-57035714D02*
X115892857Y-57845238D01*
X115845238Y-57940476D01*
X115797619Y-57988095D01*
X115702380Y-58035714D01*
X115559523Y-58035714D01*
X115464285Y-57988095D01*
X115892857Y-57654761D02*
X115797619Y-57702380D01*
X115607142Y-57702380D01*
X115511904Y-57654761D01*
X115464285Y-57607142D01*
X115416666Y-57511904D01*
X115416666Y-57226190D01*
X115464285Y-57130952D01*
X115511904Y-57083333D01*
X115607142Y-57035714D01*
X115797619Y-57035714D01*
X115892857Y-57083333D01*
X116369047Y-57607142D02*
X116416666Y-57654761D01*
X116369047Y-57702380D01*
X116321428Y-57654761D01*
X116369047Y-57607142D01*
X116369047Y-57702380D01*
X118083333Y-57702380D02*
X117607142Y-57702380D01*
X117607142Y-56702380D01*
X118845238Y-57035714D02*
X118845238Y-57702380D01*
X118416666Y-57035714D02*
X118416666Y-57559523D01*
X118464285Y-57654761D01*
X118559523Y-57702380D01*
X118702380Y-57702380D01*
X118797619Y-57654761D01*
X118845238Y-57607142D01*
X119321428Y-57702380D02*
X119321428Y-57035714D01*
X119321428Y-56702380D02*
X119273809Y-56750000D01*
X119321428Y-56797619D01*
X119369047Y-56750000D01*
X119321428Y-56702380D01*
X119321428Y-56797619D01*
X119749999Y-57654761D02*
X119845238Y-57702380D01*
X120035714Y-57702380D01*
X120130952Y-57654761D01*
X120178571Y-57559523D01*
X120178571Y-57511904D01*
X120130952Y-57416666D01*
X120035714Y-57369047D01*
X119892857Y-57369047D01*
X119797619Y-57321428D01*
X119749999Y-57226190D01*
X119749999Y-57178571D01*
X119797619Y-57083333D01*
X119892857Y-57035714D01*
X120035714Y-57035714D01*
X120130952Y-57083333D01*
X121369047Y-57702380D02*
X121369047Y-56702380D01*
X121702380Y-57416666D01*
X122035714Y-56702380D01*
X122035714Y-57702380D01*
X122940476Y-57702380D02*
X122940476Y-57178571D01*
X122892857Y-57083333D01*
X122797619Y-57035714D01*
X122607142Y-57035714D01*
X122511904Y-57083333D01*
X122940476Y-57654761D02*
X122845238Y-57702380D01*
X122607142Y-57702380D01*
X122511904Y-57654761D01*
X122464285Y-57559523D01*
X122464285Y-57464285D01*
X122511904Y-57369047D01*
X122607142Y-57321428D01*
X122845238Y-57321428D01*
X122940476Y-57273809D01*
X123416666Y-57702380D02*
X123416666Y-57035714D01*
X123416666Y-57226190D02*
X123464285Y-57130952D01*
X123511904Y-57083333D01*
X123607142Y-57035714D01*
X123702380Y-57035714D01*
X124035714Y-57702380D02*
X124035714Y-57035714D01*
X124035714Y-56702380D02*
X123988095Y-56750000D01*
X124035714Y-56797619D01*
X124083333Y-56750000D01*
X124035714Y-56702380D01*
X124035714Y-56797619D01*
X124940476Y-57702380D02*
X124940476Y-57178571D01*
X124892857Y-57083333D01*
X124797619Y-57035714D01*
X124607142Y-57035714D01*
X124511904Y-57083333D01*
X124940476Y-57654761D02*
X124845238Y-57702380D01*
X124607142Y-57702380D01*
X124511904Y-57654761D01*
X124464285Y-57559523D01*
X124464285Y-57464285D01*
X124511904Y-57369047D01*
X124607142Y-57321428D01*
X124845238Y-57321428D01*
X124940476Y-57273809D01*
X125416666Y-57035714D02*
X125416666Y-57702380D01*
X125416666Y-57130952D02*
X125464285Y-57083333D01*
X125559523Y-57035714D01*
X125702380Y-57035714D01*
X125797619Y-57083333D01*
X125845238Y-57178571D01*
X125845238Y-57702380D01*
X126464285Y-57702380D02*
X126369047Y-57654761D01*
X126321428Y-57607142D01*
X126273809Y-57511904D01*
X126273809Y-57226190D01*
X126321428Y-57130952D01*
X126369047Y-57083333D01*
X126464285Y-57035714D01*
X126607142Y-57035714D01*
X126702380Y-57083333D01*
X126749999Y-57130952D01*
X126797619Y-57226190D01*
X126797619Y-57511904D01*
X126749999Y-57607142D01*
X126702380Y-57654761D01*
X126607142Y-57702380D01*
X126464285Y-57702380D01*
X128559523Y-57607142D02*
X128511904Y-57654761D01*
X128369047Y-57702380D01*
X128273809Y-57702380D01*
X128130952Y-57654761D01*
X128035714Y-57559523D01*
X127988095Y-57464285D01*
X127940476Y-57273809D01*
X127940476Y-57130952D01*
X127988095Y-56940476D01*
X128035714Y-56845238D01*
X128130952Y-56750000D01*
X128273809Y-56702380D01*
X128369047Y-56702380D01*
X128511904Y-56750000D01*
X128559523Y-56797619D01*
X129416666Y-57702380D02*
X129416666Y-57178571D01*
X129369047Y-57083333D01*
X129273809Y-57035714D01*
X129083333Y-57035714D01*
X128988095Y-57083333D01*
X129416666Y-57654761D02*
X129321428Y-57702380D01*
X129083333Y-57702380D01*
X128988095Y-57654761D01*
X128940476Y-57559523D01*
X128940476Y-57464285D01*
X128988095Y-57369047D01*
X129083333Y-57321428D01*
X129321428Y-57321428D01*
X129416666Y-57273809D01*
X129892857Y-57702380D02*
X129892857Y-57035714D01*
X129892857Y-57130952D02*
X129940476Y-57083333D01*
X130035714Y-57035714D01*
X130178571Y-57035714D01*
X130273809Y-57083333D01*
X130321428Y-57178571D01*
X130321428Y-57702380D01*
X130321428Y-57178571D02*
X130369047Y-57083333D01*
X130464285Y-57035714D01*
X130607142Y-57035714D01*
X130702380Y-57083333D01*
X130749999Y-57178571D01*
X130749999Y-57702380D01*
X131226190Y-57035714D02*
X131226190Y-58035714D01*
X131226190Y-57083333D02*
X131321428Y-57035714D01*
X131511904Y-57035714D01*
X131607142Y-57083333D01*
X131654761Y-57130952D01*
X131702380Y-57226190D01*
X131702380Y-57511904D01*
X131654761Y-57607142D01*
X131607142Y-57654761D01*
X131511904Y-57702380D01*
X131321428Y-57702380D01*
X131226190Y-57654761D01*
X132273809Y-57702380D02*
X132178571Y-57654761D01*
X132130952Y-57607142D01*
X132083333Y-57511904D01*
X132083333Y-57226190D01*
X132130952Y-57130952D01*
X132178571Y-57083333D01*
X132273809Y-57035714D01*
X132416666Y-57035714D01*
X132511904Y-57083333D01*
X132559523Y-57130952D01*
X132607142Y-57226190D01*
X132607142Y-57511904D01*
X132559523Y-57607142D01*
X132511904Y-57654761D01*
X132416666Y-57702380D01*
X132273809Y-57702380D01*
X132988095Y-57654761D02*
X133083333Y-57702380D01*
X133273809Y-57702380D01*
X133369047Y-57654761D01*
X133416666Y-57559523D01*
X133416666Y-57511904D01*
X133369047Y-57416666D01*
X133273809Y-57369047D01*
X133130952Y-57369047D01*
X133035714Y-57321428D01*
X132988095Y-57226190D01*
X132988095Y-57178571D01*
X133035714Y-57083333D01*
X133130952Y-57035714D01*
X133273809Y-57035714D01*
X133369047Y-57083333D01*
X113130952Y-59452380D02*
X113130952Y-58452380D01*
X113369047Y-58452380D01*
X113511904Y-58500000D01*
X113607142Y-58595238D01*
X113654761Y-58690476D01*
X113702380Y-58880952D01*
X113702380Y-59023809D01*
X113654761Y-59214285D01*
X113607142Y-59309523D01*
X113511904Y-59404761D01*
X113369047Y-59452380D01*
X113130952Y-59452380D01*
X114130952Y-59452380D02*
X114130952Y-58785714D01*
X114130952Y-58452380D02*
X114083333Y-58500000D01*
X114130952Y-58547619D01*
X114178571Y-58500000D01*
X114130952Y-58452380D01*
X114130952Y-58547619D01*
X114559523Y-59404761D02*
X114654761Y-59452380D01*
X114845238Y-59452380D01*
X114940476Y-59404761D01*
X114988095Y-59309523D01*
X114988095Y-59261904D01*
X114940476Y-59166666D01*
X114845238Y-59119047D01*
X114702380Y-59119047D01*
X114607142Y-59071428D01*
X114559523Y-58976190D01*
X114559523Y-58928571D01*
X114607142Y-58833333D01*
X114702380Y-58785714D01*
X114845238Y-58785714D01*
X114940476Y-58833333D01*
X115797619Y-59404761D02*
X115702380Y-59452380D01*
X115511904Y-59452380D01*
X115416666Y-59404761D01*
X115369047Y-59309523D01*
X115369047Y-58928571D01*
X115416666Y-58833333D01*
X115511904Y-58785714D01*
X115702380Y-58785714D01*
X115797619Y-58833333D01*
X115845238Y-58928571D01*
X115845238Y-59023809D01*
X115369047Y-59119047D01*
X116273809Y-58785714D02*
X116273809Y-59452380D01*
X116273809Y-58880952D02*
X116321428Y-58833333D01*
X116416666Y-58785714D01*
X116559523Y-58785714D01*
X116654761Y-58833333D01*
X116702380Y-58928571D01*
X116702380Y-59452380D01*
X116226190Y-58547619D02*
X116273809Y-58500000D01*
X116369047Y-58452380D01*
X116559523Y-58547619D01*
X116654761Y-58500000D01*
X116702380Y-58452380D01*
X117321428Y-59452380D02*
X117226190Y-59404761D01*
X117178571Y-59357142D01*
X117130952Y-59261904D01*
X117130952Y-58976190D01*
X117178571Y-58880952D01*
X117226190Y-58833333D01*
X117321428Y-58785714D01*
X117464285Y-58785714D01*
X117559523Y-58833333D01*
X117607142Y-58880952D01*
X117654761Y-58976190D01*
X117654761Y-59261904D01*
X117607142Y-59357142D01*
X117559523Y-59404761D01*
X117464285Y-59452380D01*
X117321428Y-59452380D01*
X118797619Y-59166666D02*
X119273809Y-59166666D01*
X118702380Y-59452380D02*
X119035714Y-58452380D01*
X119369047Y-59452380D01*
X119702380Y-59452380D02*
X119702380Y-58785714D01*
X119702380Y-58976190D02*
X119750000Y-58880952D01*
X119797619Y-58833333D01*
X119892857Y-58785714D01*
X119988095Y-58785714D01*
X120750000Y-58785714D02*
X120750000Y-59595238D01*
X120702380Y-59690476D01*
X120654761Y-59738095D01*
X120559523Y-59785714D01*
X120416666Y-59785714D01*
X120321428Y-59738095D01*
X120750000Y-59404761D02*
X120654761Y-59452380D01*
X120464285Y-59452380D01*
X120369047Y-59404761D01*
X120321428Y-59357142D01*
X120273809Y-59261904D01*
X120273809Y-58976190D01*
X120321428Y-58880952D01*
X120369047Y-58833333D01*
X120464285Y-58785714D01*
X120654761Y-58785714D01*
X120750000Y-58833333D01*
X121607142Y-59404761D02*
X121511904Y-59452380D01*
X121321428Y-59452380D01*
X121226190Y-59404761D01*
X121178571Y-59309523D01*
X121178571Y-58928571D01*
X121226190Y-58833333D01*
X121321428Y-58785714D01*
X121511904Y-58785714D01*
X121607142Y-58833333D01*
X121654761Y-58928571D01*
X121654761Y-59023809D01*
X121178571Y-59119047D01*
X122083333Y-58785714D02*
X122083333Y-59452380D01*
X122083333Y-58880952D02*
X122130952Y-58833333D01*
X122226190Y-58785714D01*
X122369047Y-58785714D01*
X122464285Y-58833333D01*
X122511904Y-58928571D01*
X122511904Y-59452380D01*
X122845238Y-58785714D02*
X123226190Y-58785714D01*
X122988095Y-58452380D02*
X122988095Y-59309523D01*
X123035714Y-59404761D01*
X123130952Y-59452380D01*
X123226190Y-59452380D01*
X123559523Y-59452380D02*
X123559523Y-58785714D01*
X123559523Y-58452380D02*
X123511904Y-58500000D01*
X123559523Y-58547619D01*
X123607142Y-58500000D01*
X123559523Y-58452380D01*
X123559523Y-58547619D01*
X124035714Y-58785714D02*
X124035714Y-59452380D01*
X124035714Y-58880952D02*
X124083333Y-58833333D01*
X124178571Y-58785714D01*
X124321428Y-58785714D01*
X124416666Y-58833333D01*
X124464285Y-58928571D01*
X124464285Y-59452380D01*
X125083333Y-59452380D02*
X124988095Y-59404761D01*
X124940476Y-59357142D01*
X124892857Y-59261904D01*
X124892857Y-58976190D01*
X124940476Y-58880952D01*
X124988095Y-58833333D01*
X125083333Y-58785714D01*
X125226190Y-58785714D01*
X125321428Y-58833333D01*
X125369047Y-58880952D01*
X125416666Y-58976190D01*
X125416666Y-59261904D01*
X125369047Y-59357142D01*
X125321428Y-59404761D01*
X125226190Y-59452380D01*
X125083333Y-59452380D01*
X103785714Y-54202380D02*
X103785714Y-53202380D01*
X104166666Y-53202380D01*
X104261904Y-53250000D01*
X104309523Y-53297619D01*
X104357142Y-53392857D01*
X104357142Y-53535714D01*
X104309523Y-53630952D01*
X104261904Y-53678571D01*
X104166666Y-53726190D01*
X103785714Y-53726190D01*
X104785714Y-54202380D02*
X104785714Y-53535714D01*
X104785714Y-53726190D02*
X104833333Y-53630952D01*
X104880952Y-53583333D01*
X104976190Y-53535714D01*
X105071428Y-53535714D01*
X105547619Y-54202380D02*
X105452380Y-54154761D01*
X105404761Y-54107142D01*
X105357142Y-54011904D01*
X105357142Y-53726190D01*
X105404761Y-53630952D01*
X105452380Y-53583333D01*
X105547619Y-53535714D01*
X105690476Y-53535714D01*
X105785714Y-53583333D01*
X105833333Y-53630952D01*
X105880952Y-53726190D01*
X105880952Y-54011904D01*
X105833333Y-54107142D01*
X105785714Y-54154761D01*
X105690476Y-54202380D01*
X105547619Y-54202380D01*
X106214285Y-53535714D02*
X106452380Y-54202380D01*
X106690476Y-53535714D02*
X106452380Y-54202380D01*
X106357142Y-54440476D01*
X106309523Y-54488095D01*
X106214285Y-54535714D01*
X107452380Y-54154761D02*
X107357142Y-54202380D01*
X107166666Y-54202380D01*
X107071428Y-54154761D01*
X107023809Y-54059523D01*
X107023809Y-53678571D01*
X107071428Y-53583333D01*
X107166666Y-53535714D01*
X107357142Y-53535714D01*
X107452380Y-53583333D01*
X107500000Y-53678571D01*
X107500000Y-53773809D01*
X107023809Y-53869047D01*
X108357142Y-54154761D02*
X108261904Y-54202380D01*
X108071428Y-54202380D01*
X107976190Y-54154761D01*
X107928571Y-54107142D01*
X107880952Y-54011904D01*
X107880952Y-53726190D01*
X107928571Y-53630952D01*
X107976190Y-53583333D01*
X108071428Y-53535714D01*
X108261904Y-53535714D01*
X108357142Y-53583333D01*
X108642857Y-53535714D02*
X109023809Y-53535714D01*
X108785714Y-53202380D02*
X108785714Y-54059523D01*
X108833333Y-54154761D01*
X108928571Y-54202380D01*
X109023809Y-54202380D01*
X109500000Y-54202380D02*
X109404761Y-54154761D01*
X109357142Y-54107142D01*
X109309523Y-54011904D01*
X109309523Y-53726190D01*
X109357142Y-53630952D01*
X109404761Y-53583333D01*
X109500000Y-53535714D01*
X109642857Y-53535714D01*
X109738095Y-53583333D01*
X109785714Y-53630952D01*
X109833333Y-53726190D01*
X109833333Y-54011904D01*
X109785714Y-54107142D01*
X109738095Y-54154761D01*
X109642857Y-54202380D01*
X109500000Y-54202380D01*
X111357142Y-53678571D02*
X111023809Y-53678571D01*
X111023809Y-54202380D02*
X111023809Y-53202380D01*
X111500000Y-53202380D01*
X111880952Y-54202380D02*
X111880952Y-53535714D01*
X111880952Y-53202380D02*
X111833333Y-53250000D01*
X111880952Y-53297619D01*
X111928571Y-53250000D01*
X111880952Y-53202380D01*
X111880952Y-53297619D01*
X112357142Y-53535714D02*
X112357142Y-54202380D01*
X112357142Y-53630952D02*
X112404761Y-53583333D01*
X112500000Y-53535714D01*
X112642857Y-53535714D01*
X112738095Y-53583333D01*
X112785714Y-53678571D01*
X112785714Y-54202380D01*
X113690476Y-54202380D02*
X113690476Y-53678571D01*
X113642857Y-53583333D01*
X113547619Y-53535714D01*
X113357142Y-53535714D01*
X113261904Y-53583333D01*
X113690476Y-54154761D02*
X113595238Y-54202380D01*
X113357142Y-54202380D01*
X113261904Y-54154761D01*
X113214285Y-54059523D01*
X113214285Y-53964285D01*
X113261904Y-53869047D01*
X113357142Y-53821428D01*
X113595238Y-53821428D01*
X113690476Y-53773809D01*
X114309523Y-54202380D02*
X114214285Y-54154761D01*
X114166666Y-54059523D01*
X114166666Y-53202380D01*
X115452380Y-53821428D02*
X116214285Y-53821428D01*
X118023809Y-54107142D02*
X117976190Y-54154761D01*
X117833333Y-54202380D01*
X117738095Y-54202380D01*
X117595238Y-54154761D01*
X117500000Y-54059523D01*
X117452380Y-53964285D01*
X117404761Y-53773809D01*
X117404761Y-53630952D01*
X117452380Y-53440476D01*
X117500000Y-53345238D01*
X117595238Y-53250000D01*
X117738095Y-53202380D01*
X117833333Y-53202380D01*
X117976190Y-53250000D01*
X118023809Y-53297619D01*
X118452380Y-53678571D02*
X118785714Y-53678571D01*
X118928571Y-54202380D02*
X118452380Y-54202380D01*
X118452380Y-53202380D01*
X118928571Y-53202380D01*
X119309523Y-54154761D02*
X119452380Y-54202380D01*
X119690476Y-54202380D01*
X119785714Y-54154761D01*
X119833333Y-54107142D01*
X119880952Y-54011904D01*
X119880952Y-53916666D01*
X119833333Y-53821428D01*
X119785714Y-53773809D01*
X119690476Y-53726190D01*
X119500000Y-53678571D01*
X119404761Y-53630952D01*
X119357142Y-53583333D01*
X119309523Y-53488095D01*
X119309523Y-53392857D01*
X119357142Y-53297619D01*
X119404761Y-53250000D01*
X119500000Y-53202380D01*
X119738095Y-53202380D01*
X119880952Y-53250000D01*
X120309523Y-53678571D02*
X120642857Y-53678571D01*
X120785714Y-54202380D02*
X120309523Y-54202380D01*
X120309523Y-53202380D01*
X120785714Y-53202380D01*
X122119047Y-53630952D02*
X122023809Y-53583333D01*
X121976190Y-53535714D01*
X121928571Y-53440476D01*
X121928571Y-53392857D01*
X121976190Y-53297619D01*
X122023809Y-53250000D01*
X122119047Y-53202380D01*
X122309523Y-53202380D01*
X122404761Y-53250000D01*
X122452380Y-53297619D01*
X122500000Y-53392857D01*
X122500000Y-53440476D01*
X122452380Y-53535714D01*
X122404761Y-53583333D01*
X122309523Y-53630952D01*
X122119047Y-53630952D01*
X122023809Y-53678571D01*
X121976190Y-53726190D01*
X121928571Y-53821428D01*
X121928571Y-54011904D01*
X121976190Y-54107142D01*
X122023809Y-54154761D01*
X122119047Y-54202380D01*
X122309523Y-54202380D01*
X122404761Y-54154761D01*
X122452380Y-54107142D01*
X122500000Y-54011904D01*
X122500000Y-53821428D01*
X122452380Y-53726190D01*
X122404761Y-53678571D01*
X122309523Y-53630952D01*
X122833333Y-53535714D02*
X123071428Y-54202380D01*
X123309523Y-53535714D01*
X124119047Y-54202380D02*
X124119047Y-53678571D01*
X124071428Y-53583333D01*
X123976190Y-53535714D01*
X123785714Y-53535714D01*
X123690476Y-53583333D01*
X124119047Y-54154761D02*
X124023809Y-54202380D01*
X123785714Y-54202380D01*
X123690476Y-54154761D01*
X123642857Y-54059523D01*
X123642857Y-53964285D01*
X123690476Y-53869047D01*
X123785714Y-53821428D01*
X124023809Y-53821428D01*
X124119047Y-53773809D01*
X125928571Y-54107142D02*
X125880952Y-54154761D01*
X125738095Y-54202380D01*
X125642857Y-54202380D01*
X125499999Y-54154761D01*
X125404761Y-54059523D01*
X125357142Y-53964285D01*
X125309523Y-53773809D01*
X125309523Y-53630952D01*
X125357142Y-53440476D01*
X125404761Y-53345238D01*
X125499999Y-53250000D01*
X125642857Y-53202380D01*
X125738095Y-53202380D01*
X125880952Y-53250000D01*
X125928571Y-53297619D01*
X126499999Y-54202380D02*
X126404761Y-54154761D01*
X126357142Y-54107142D01*
X126309523Y-54011904D01*
X126309523Y-53726190D01*
X126357142Y-53630952D01*
X126404761Y-53583333D01*
X126499999Y-53535714D01*
X126642857Y-53535714D01*
X126738095Y-53583333D01*
X126785714Y-53630952D01*
X126833333Y-53726190D01*
X126833333Y-54011904D01*
X126785714Y-54107142D01*
X126738095Y-54154761D01*
X126642857Y-54202380D01*
X126499999Y-54202380D01*
X127261904Y-54202380D02*
X127261904Y-53202380D01*
X127690476Y-54202380D02*
X127690476Y-53678571D01*
X127642857Y-53583333D01*
X127547619Y-53535714D01*
X127404761Y-53535714D01*
X127309523Y-53583333D01*
X127261904Y-53630952D01*
X128309523Y-54202380D02*
X128214285Y-54154761D01*
X128166666Y-54107142D01*
X128119047Y-54011904D01*
X128119047Y-53726190D01*
X128166666Y-53630952D01*
X128214285Y-53583333D01*
X128309523Y-53535714D01*
X128452380Y-53535714D01*
X128547619Y-53583333D01*
X128595238Y-53630952D01*
X128642857Y-53726190D01*
X128642857Y-54011904D01*
X128595238Y-54107142D01*
X128547619Y-54154761D01*
X128452380Y-54202380D01*
X128309523Y-54202380D01*
X129071428Y-54202380D02*
X129071428Y-53535714D01*
X129071428Y-53726190D02*
X129119047Y-53630952D01*
X129166666Y-53583333D01*
X129261904Y-53535714D01*
X129357142Y-53535714D01*
X129547619Y-53535714D02*
X129928571Y-53535714D01*
X129690476Y-53202380D02*
X129690476Y-54059523D01*
X129738095Y-54154761D01*
X129833333Y-54202380D01*
X129928571Y-54202380D01*
X130642857Y-54154761D02*
X130547619Y-54202380D01*
X130357142Y-54202380D01*
X130261904Y-54154761D01*
X130214285Y-54059523D01*
X130214285Y-53678571D01*
X130261904Y-53583333D01*
X130357142Y-53535714D01*
X130547619Y-53535714D01*
X130642857Y-53583333D01*
X130690476Y-53678571D01*
X130690476Y-53773809D01*
X130214285Y-53869047D01*
X131833333Y-53297619D02*
X131880952Y-53250000D01*
X131976190Y-53202380D01*
X132214285Y-53202380D01*
X132309523Y-53250000D01*
X132357142Y-53297619D01*
X132404761Y-53392857D01*
X132404761Y-53488095D01*
X132357142Y-53630952D01*
X131785714Y-54202380D01*
X132404761Y-54202380D01*
X133023809Y-53202380D02*
X133119047Y-53202380D01*
X133214285Y-53250000D01*
X133261904Y-53297619D01*
X133309523Y-53392857D01*
X133357142Y-53583333D01*
X133357142Y-53821428D01*
X133309523Y-54011904D01*
X133261904Y-54107142D01*
X133214285Y-54154761D01*
X133119047Y-54202380D01*
X133023809Y-54202380D01*
X132928571Y-54154761D01*
X132880952Y-54107142D01*
X132833333Y-54011904D01*
X132785714Y-53821428D01*
X132785714Y-53583333D01*
X132833333Y-53392857D01*
X132880952Y-53297619D01*
X132928571Y-53250000D01*
X133023809Y-53202380D01*
X134309523Y-54202380D02*
X133738095Y-54202380D01*
X134023809Y-54202380D02*
X134023809Y-53202380D01*
X133928571Y-53345238D01*
X133833333Y-53440476D01*
X133738095Y-53488095D01*
X134785714Y-54202380D02*
X134976190Y-54202380D01*
X135071428Y-54154761D01*
X135119047Y-54107142D01*
X135214285Y-53964285D01*
X135261904Y-53773809D01*
X135261904Y-53392857D01*
X135214285Y-53297619D01*
X135166666Y-53250000D01*
X135071428Y-53202380D01*
X134880952Y-53202380D01*
X134785714Y-53250000D01*
X134738095Y-53297619D01*
X134690476Y-53392857D01*
X134690476Y-53630952D01*
X134738095Y-53726190D01*
X134785714Y-53773809D01*
X134880952Y-53821428D01*
X135071428Y-53821428D01*
X135166666Y-53773809D01*
X135214285Y-53726190D01*
X135261904Y-53630952D01*
X112785714Y-52202380D02*
X112785714Y-51202380D01*
X113023809Y-51202380D01*
X113166666Y-51250000D01*
X113261904Y-51345238D01*
X113309523Y-51440476D01*
X113357142Y-51630952D01*
X113357142Y-51773809D01*
X113309523Y-51964285D01*
X113261904Y-52059523D01*
X113166666Y-52154761D01*
X113023809Y-52202380D01*
X112785714Y-52202380D01*
X113785714Y-52202380D02*
X113785714Y-51535714D01*
X113785714Y-51726190D02*
X113833333Y-51630952D01*
X113880952Y-51583333D01*
X113976190Y-51535714D01*
X114071428Y-51535714D01*
X114404761Y-52202380D02*
X114404761Y-51535714D01*
X114404761Y-51202380D02*
X114357142Y-51250000D01*
X114404761Y-51297619D01*
X114452380Y-51250000D01*
X114404761Y-51202380D01*
X114404761Y-51297619D01*
X114785714Y-51535714D02*
X115023809Y-52202380D01*
X115261904Y-51535714D01*
X116023809Y-52154761D02*
X115928571Y-52202380D01*
X115738095Y-52202380D01*
X115642857Y-52154761D01*
X115595238Y-52059523D01*
X115595238Y-51678571D01*
X115642857Y-51583333D01*
X115738095Y-51535714D01*
X115928571Y-51535714D01*
X116023809Y-51583333D01*
X116071428Y-51678571D01*
X116071428Y-51773809D01*
X115595238Y-51869047D01*
X116500000Y-52202380D02*
X116500000Y-51535714D01*
X116500000Y-51726190D02*
X116547619Y-51630952D01*
X116595238Y-51583333D01*
X116690476Y-51535714D01*
X116785714Y-51535714D01*
X117880952Y-52202380D02*
X117880952Y-51202380D01*
X118214285Y-51916666D01*
X118547619Y-51202380D01*
X118547619Y-52202380D01*
X119166666Y-52202380D02*
X119071428Y-52154761D01*
X119023809Y-52107142D01*
X118976190Y-52011904D01*
X118976190Y-51726190D01*
X119023809Y-51630952D01*
X119071428Y-51583333D01*
X119166666Y-51535714D01*
X119309523Y-51535714D01*
X119404761Y-51583333D01*
X119452380Y-51630952D01*
X119500000Y-51726190D01*
X119500000Y-52011904D01*
X119452380Y-52107142D01*
X119404761Y-52154761D01*
X119309523Y-52202380D01*
X119166666Y-52202380D01*
X119785714Y-51535714D02*
X120166666Y-51535714D01*
X119928571Y-51202380D02*
X119928571Y-52059523D01*
X119976190Y-52154761D01*
X120071428Y-52202380D01*
X120166666Y-52202380D01*
X120642857Y-52202380D02*
X120547619Y-52154761D01*
X120500000Y-52107142D01*
X120452380Y-52011904D01*
X120452380Y-51726190D01*
X120500000Y-51630952D01*
X120547619Y-51583333D01*
X120642857Y-51535714D01*
X120785714Y-51535714D01*
X120880952Y-51583333D01*
X120928571Y-51630952D01*
X120976190Y-51726190D01*
X120976190Y-52011904D01*
X120928571Y-52107142D01*
X120880952Y-52154761D01*
X120785714Y-52202380D01*
X120642857Y-52202380D01*
X121404761Y-52202380D02*
X121404761Y-51535714D01*
X121404761Y-51726190D02*
X121452380Y-51630952D01*
X121500000Y-51583333D01*
X121595238Y-51535714D01*
X121690476Y-51535714D01*
X122785714Y-52202380D02*
X122785714Y-51202380D01*
X123166666Y-51202380D01*
X123261904Y-51250000D01*
X123309523Y-51297619D01*
X123357142Y-51392857D01*
X123357142Y-51535714D01*
X123309523Y-51630952D01*
X123261904Y-51678571D01*
X123166666Y-51726190D01*
X122785714Y-51726190D01*
X124214285Y-52202380D02*
X124214285Y-51678571D01*
X124166666Y-51583333D01*
X124071428Y-51535714D01*
X123880952Y-51535714D01*
X123785714Y-51583333D01*
X124214285Y-52154761D02*
X124119047Y-52202380D01*
X123880952Y-52202380D01*
X123785714Y-52154761D01*
X123738095Y-52059523D01*
X123738095Y-51964285D01*
X123785714Y-51869047D01*
X123880952Y-51821428D01*
X124119047Y-51821428D01*
X124214285Y-51773809D01*
X124690476Y-52202380D02*
X124690476Y-51202380D01*
X125071428Y-51202380D01*
X125166666Y-51250000D01*
X125214285Y-51297619D01*
X125261904Y-51392857D01*
X125261904Y-51535714D01*
X125214285Y-51630952D01*
X125166666Y-51678571D01*
X125071428Y-51726190D01*
X124690476Y-51726190D01*
D11*
%TO.C,Q1*%
X118858478Y-78838478D02*
G75*
G03X117020000Y-74400000I-1838478J1838478D01*
G01*
X115181522Y-78838478D02*
G75*
G02X117020000Y-74400000I1838478J1838478D01*
G01*
X115220000Y-78850000D02*
X118820000Y-78850000D01*
%TO.C,R2*%
X117000000Y-62630000D02*
X117000000Y-63400000D01*
X117000000Y-70710000D02*
X117000000Y-69940000D01*
X115630000Y-63400000D02*
X115630000Y-69940000D01*
X118370000Y-63400000D02*
X115630000Y-63400000D01*
X118370000Y-69940000D02*
X118370000Y-63400000D01*
X115630000Y-69940000D02*
X118370000Y-69940000D01*
%TO.C,JP6*%
X102170000Y-70830000D02*
X102170000Y-69500000D01*
X103500000Y-70830000D02*
X102170000Y-70830000D01*
X104770000Y-70830000D02*
X104770000Y-68170000D01*
X104770000Y-68170000D02*
X107370000Y-68170000D01*
X104770000Y-70830000D02*
X107370000Y-70830000D01*
X107370000Y-70830000D02*
X107370000Y-68170000D01*
%TO.C,U2*%
X131860000Y-84800000D02*
X131860000Y-95080000D01*
X142260000Y-84800000D02*
X131860000Y-84800000D01*
X142260000Y-95080000D02*
X142260000Y-84800000D01*
X131860000Y-95080000D02*
X142260000Y-95080000D01*
X131920000Y-87290000D02*
X131920000Y-88940000D01*
X142200000Y-87290000D02*
X131920000Y-87290000D01*
X142200000Y-92590000D02*
X142200000Y-87290000D01*
X131920000Y-92590000D02*
X142200000Y-92590000D01*
X131920000Y-90940000D02*
X131920000Y-92590000D01*
X131920000Y-88940000D02*
G75*
G02X131920000Y-90940000I0J-1000000D01*
G01*
%TO.C,A1*%
X89750000Y-79400000D02*
X89750000Y-92230000D01*
X110330000Y-79400000D02*
X89750000Y-79400000D01*
X110330000Y-94900000D02*
X110330000Y-79400000D01*
X92420000Y-94900000D02*
X110330000Y-94900000D01*
X92420000Y-92230000D02*
X92420000Y-94900000D01*
X89750000Y-92230000D02*
X92420000Y-92230000D01*
X89750000Y-94900000D02*
X91150000Y-94900000D01*
X89750000Y-93500000D02*
X89750000Y-94900000D01*
X92420000Y-92230000D02*
X110330000Y-92230000D01*
X89750000Y-82070000D02*
X110330000Y-82070000D01*
%TO.C,J6*%
X88660000Y-107930000D02*
X88660000Y-108530000D01*
X90260000Y-107930000D02*
X88660000Y-107930000D01*
X90260000Y-108530000D02*
X90260000Y-107930000D01*
X91200000Y-107930000D02*
X91200000Y-108530000D01*
X92800000Y-107930000D02*
X91200000Y-107930000D01*
X92800000Y-108530000D02*
X92800000Y-107930000D01*
X89710000Y-102510000D02*
X89710000Y-103510000D01*
X91750000Y-102510000D02*
X91750000Y-103510000D01*
X89710000Y-104040000D02*
X89460000Y-103510000D01*
X91750000Y-104040000D02*
X89710000Y-104040000D01*
X92000000Y-103510000D02*
X91750000Y-104040000D01*
X89460000Y-103510000D02*
X89460000Y-102510000D01*
X92000000Y-103510000D02*
X89460000Y-103510000D01*
X92000000Y-102510000D02*
X92000000Y-103510000D01*
X93670000Y-107500000D02*
X93670000Y-103500000D01*
X88080000Y-108530000D02*
X93380000Y-108530000D01*
X88080000Y-102510000D02*
X88080000Y-108530000D01*
X93380000Y-102510000D02*
X88080000Y-102510000D01*
X93380000Y-108530000D02*
X93380000Y-102510000D01*
%TO.C,U3*%
X124360000Y-67300000D02*
X124360000Y-77580000D01*
X134760000Y-67300000D02*
X124360000Y-67300000D01*
X134760000Y-77580000D02*
X134760000Y-67300000D01*
X124360000Y-77580000D02*
X134760000Y-77580000D01*
X124420000Y-69790000D02*
X124420000Y-71440000D01*
X134700000Y-69790000D02*
X124420000Y-69790000D01*
X134700000Y-75090000D02*
X134700000Y-69790000D01*
X124420000Y-75090000D02*
X134700000Y-75090000D01*
X124420000Y-73440000D02*
X124420000Y-75090000D01*
X124420000Y-71440000D02*
G75*
G02X124420000Y-73440000I0J-1000000D01*
G01*
%TO.C,U1*%
X87050000Y-70390000D02*
X97330000Y-70390000D01*
X87050000Y-59990000D02*
X87050000Y-70390000D01*
X97330000Y-59990000D02*
X87050000Y-59990000D01*
X97330000Y-70390000D02*
X97330000Y-59990000D01*
X89540000Y-70330000D02*
X91190000Y-70330000D01*
X89540000Y-60050000D02*
X89540000Y-70330000D01*
X94840000Y-60050000D02*
X89540000Y-60050000D01*
X94840000Y-70330000D02*
X94840000Y-60050000D01*
X93190000Y-70330000D02*
X94840000Y-70330000D01*
X91190000Y-70330000D02*
G75*
G02X93190000Y-70330000I1000000J0D01*
G01*
%TO.C,R3*%
X113880000Y-81750000D02*
X114650000Y-81750000D01*
X121960000Y-81750000D02*
X121190000Y-81750000D01*
X114650000Y-83120000D02*
X121190000Y-83120000D01*
X114650000Y-80380000D02*
X114650000Y-83120000D01*
X121190000Y-80380000D02*
X114650000Y-80380000D01*
X121190000Y-83120000D02*
X121190000Y-80380000D01*
%TO.C,R1*%
X78750000Y-66880000D02*
X78750000Y-67650000D01*
X78750000Y-74960000D02*
X78750000Y-74190000D01*
X77380000Y-67650000D02*
X77380000Y-74190000D01*
X80120000Y-67650000D02*
X77380000Y-67650000D01*
X80120000Y-74190000D02*
X80120000Y-67650000D01*
X77380000Y-74190000D02*
X80120000Y-74190000D01*
%TO.C,JP5*%
X102170000Y-65080000D02*
X102170000Y-63750000D01*
X103500000Y-65080000D02*
X102170000Y-65080000D01*
X104770000Y-65080000D02*
X104770000Y-62420000D01*
X104770000Y-62420000D02*
X107370000Y-62420000D01*
X104770000Y-65080000D02*
X107370000Y-65080000D01*
X107370000Y-65080000D02*
X107370000Y-62420000D01*
%TO.C,JP4*%
X107330000Y-73920000D02*
X107330000Y-75250000D01*
X106000000Y-73920000D02*
X107330000Y-73920000D01*
X104730000Y-73920000D02*
X104730000Y-76580000D01*
X104730000Y-76580000D02*
X102130000Y-76580000D01*
X104730000Y-73920000D02*
X102130000Y-73920000D01*
X102130000Y-73920000D02*
X102130000Y-76580000D01*
%TO.C,JP3*%
X124420000Y-86420000D02*
X125750000Y-86420000D01*
X124420000Y-87750000D02*
X124420000Y-86420000D01*
X124420000Y-89020000D02*
X127080000Y-89020000D01*
X127080000Y-89020000D02*
X127080000Y-91620000D01*
X124420000Y-89020000D02*
X124420000Y-91620000D01*
X124420000Y-91620000D02*
X127080000Y-91620000D01*
%TO.C,JP2*%
X118670000Y-86420000D02*
X120000000Y-86420000D01*
X118670000Y-87750000D02*
X118670000Y-86420000D01*
X118670000Y-89020000D02*
X121330000Y-89020000D01*
X121330000Y-89020000D02*
X121330000Y-91620000D01*
X118670000Y-89020000D02*
X118670000Y-91620000D01*
X118670000Y-91620000D02*
X121330000Y-91620000D01*
%TO.C,JP1*%
X112670000Y-86420000D02*
X114000000Y-86420000D01*
X112670000Y-87750000D02*
X112670000Y-86420000D01*
X112670000Y-89020000D02*
X115330000Y-89020000D01*
X115330000Y-89020000D02*
X115330000Y-91620000D01*
X112670000Y-89020000D02*
X112670000Y-91620000D01*
X112670000Y-91620000D02*
X115330000Y-91620000D01*
%TO.C,J8*%
X87820000Y-99630000D02*
X87820000Y-98300000D01*
X89150000Y-99630000D02*
X87820000Y-99630000D01*
X90420000Y-99630000D02*
X90420000Y-96970000D01*
X90420000Y-96970000D02*
X90480000Y-96970000D01*
X90420000Y-99630000D02*
X90480000Y-99630000D01*
X90480000Y-99630000D02*
X90480000Y-96970000D01*
%TO.C,J7*%
X97010000Y-107930000D02*
X97010000Y-108530000D01*
X98610000Y-107930000D02*
X97010000Y-107930000D01*
X98610000Y-108530000D02*
X98610000Y-107930000D01*
X99550000Y-107930000D02*
X99550000Y-108530000D01*
X101150000Y-107930000D02*
X99550000Y-107930000D01*
X101150000Y-108530000D02*
X101150000Y-107930000D01*
X98060000Y-102510000D02*
X98060000Y-103510000D01*
X100100000Y-102510000D02*
X100100000Y-103510000D01*
X98060000Y-104040000D02*
X97810000Y-103510000D01*
X100100000Y-104040000D02*
X98060000Y-104040000D01*
X100350000Y-103510000D02*
X100100000Y-104040000D01*
X97810000Y-103510000D02*
X97810000Y-102510000D01*
X100350000Y-103510000D02*
X97810000Y-103510000D01*
X100350000Y-102510000D02*
X100350000Y-103510000D01*
X102020000Y-107500000D02*
X102020000Y-103500000D01*
X96430000Y-108530000D02*
X101730000Y-108530000D01*
X96430000Y-102510000D02*
X96430000Y-108530000D01*
X101730000Y-102510000D02*
X96430000Y-102510000D01*
X101730000Y-108530000D02*
X101730000Y-102510000D01*
%TO.C,J5*%
X139170000Y-64080000D02*
X139170000Y-62750000D01*
X140500000Y-64080000D02*
X139170000Y-64080000D01*
X141770000Y-64080000D02*
X141770000Y-61420000D01*
X141770000Y-61420000D02*
X141830000Y-61420000D01*
X141770000Y-64080000D02*
X141830000Y-64080000D01*
X141830000Y-64080000D02*
X141830000Y-61420000D01*
%TO.C,J4*%
X143180000Y-78520000D02*
X143780000Y-78520000D01*
X143180000Y-76920000D02*
X143180000Y-78520000D01*
X143780000Y-76920000D02*
X143180000Y-76920000D01*
X143180000Y-75980000D02*
X143780000Y-75980000D01*
X143180000Y-74380000D02*
X143180000Y-75980000D01*
X143780000Y-74380000D02*
X143180000Y-74380000D01*
X143180000Y-73440000D02*
X143780000Y-73440000D01*
X143180000Y-71840000D02*
X143180000Y-73440000D01*
X143780000Y-71840000D02*
X143180000Y-71840000D01*
X143180000Y-70900000D02*
X143780000Y-70900000D01*
X143180000Y-69300000D02*
X143180000Y-70900000D01*
X143780000Y-69300000D02*
X143180000Y-69300000D01*
X137760000Y-77470000D02*
X138760000Y-77470000D01*
X137760000Y-70350000D02*
X138760000Y-70350000D01*
X139290000Y-77470000D02*
X138760000Y-77720000D01*
X139290000Y-70350000D02*
X139290000Y-77470000D01*
X138760000Y-70100000D02*
X139290000Y-70350000D01*
X138760000Y-77720000D02*
X137760000Y-77720000D01*
X138760000Y-70100000D02*
X138760000Y-77720000D01*
X137760000Y-70100000D02*
X138760000Y-70100000D01*
X142750000Y-68430000D02*
X138750000Y-68430000D01*
X143780000Y-79100000D02*
X143780000Y-68720000D01*
X137760000Y-79100000D02*
X143780000Y-79100000D01*
X137760000Y-68720000D02*
X137760000Y-79100000D01*
X143780000Y-68720000D02*
X137760000Y-68720000D01*
%TO.C,J3*%
X98420000Y-51570000D02*
X98420000Y-50970000D01*
X96820000Y-51570000D02*
X98420000Y-51570000D01*
X96820000Y-50970000D02*
X96820000Y-51570000D01*
X95880000Y-51570000D02*
X95880000Y-50970000D01*
X94280000Y-51570000D02*
X95880000Y-51570000D01*
X94280000Y-50970000D02*
X94280000Y-51570000D01*
X93340000Y-51570000D02*
X93340000Y-50970000D01*
X91740000Y-51570000D02*
X93340000Y-51570000D01*
X91740000Y-50970000D02*
X91740000Y-51570000D01*
X90800000Y-51570000D02*
X90800000Y-50970000D01*
X89200000Y-51570000D02*
X90800000Y-51570000D01*
X89200000Y-50970000D02*
X89200000Y-51570000D01*
X97370000Y-56990000D02*
X97370000Y-55990000D01*
X90250000Y-56990000D02*
X90250000Y-55990000D01*
X97370000Y-55460000D02*
X97620000Y-55990000D01*
X90250000Y-55460000D02*
X97370000Y-55460000D01*
X90000000Y-55990000D02*
X90250000Y-55460000D01*
X97620000Y-55990000D02*
X97620000Y-56990000D01*
X90000000Y-55990000D02*
X97620000Y-55990000D01*
X90000000Y-56990000D02*
X90000000Y-55990000D01*
X88330000Y-52000000D02*
X88330000Y-56000000D01*
X99000000Y-50970000D02*
X88620000Y-50970000D01*
X99000000Y-56990000D02*
X99000000Y-50970000D01*
X88620000Y-56990000D02*
X99000000Y-56990000D01*
X88620000Y-50970000D02*
X88620000Y-56990000D01*
%TO.C,D1*%
X81540000Y-83045000D02*
X81540000Y-79955000D01*
X81480000Y-81500000D02*
G75*
G03X81480000Y-81500000I-2500000J0D01*
G01*
X75990000Y-81500462D02*
G75*
G02X81540000Y-79955170I2990000J462D01*
G01*
X75990000Y-81499538D02*
G75*
G03X81540000Y-83044830I2990000J-462D01*
G01*
%TO.C,C1*%
X82630000Y-64880000D02*
X85370000Y-64880000D01*
X82630000Y-70120000D02*
X85370000Y-70120000D01*
X85370000Y-70120000D02*
X85370000Y-64880000D01*
X82630000Y-70120000D02*
X82630000Y-64880000D01*
%TO.C,C2*%
X137370000Y-80880000D02*
X137370000Y-83620000D01*
X132130000Y-80880000D02*
X132130000Y-83620000D01*
X132130000Y-83620000D02*
X137370000Y-83620000D01*
X132130000Y-80880000D02*
X137370000Y-80880000D01*
%TO.C,C3*%
X129620000Y-63130000D02*
X129620000Y-65870000D01*
X124380000Y-63130000D02*
X124380000Y-65870000D01*
X124380000Y-65870000D02*
X129620000Y-65870000D01*
X124380000Y-63130000D02*
X129620000Y-63130000D01*
%TO.C,J1*%
X76440000Y-96866000D02*
X76440000Y-86706000D01*
X76440000Y-86706000D02*
X84568000Y-86706000D01*
X84568000Y-86706000D02*
X84314000Y-86706000D01*
X84314000Y-86706000D02*
X84568000Y-86706000D01*
X78218000Y-86452000D02*
X76186000Y-86452000D01*
X76186000Y-86452000D02*
X76186000Y-89246000D01*
X82028000Y-86706000D02*
X82028000Y-96866000D01*
X78726000Y-86706000D02*
X78726000Y-96866000D01*
X85076000Y-86706000D02*
X85076000Y-96866000D01*
X85076000Y-86706000D02*
X84568000Y-86706000D01*
X76440000Y-97120000D02*
X85076000Y-97120000D01*
X85076000Y-97120000D02*
X85076000Y-96866000D01*
X82028000Y-96866000D02*
X82028000Y-97120000D01*
X78726000Y-96866000D02*
X78726000Y-97120000D01*
X78726000Y-97120000D02*
X76440000Y-97120000D01*
X76440000Y-97120000D02*
X76440000Y-96866000D01*
%TO.C,J2*%
X115570000Y-108310000D02*
X115316000Y-108310000D01*
X115570000Y-106024000D02*
X115570000Y-108310000D01*
X115316000Y-106024000D02*
X115570000Y-106024000D01*
X115316000Y-102722000D02*
X115570000Y-102722000D01*
X115570000Y-99674000D02*
X115316000Y-99674000D01*
X115570000Y-108310000D02*
X115570000Y-99674000D01*
X105156000Y-99674000D02*
X105156000Y-100182000D01*
X105156000Y-99674000D02*
X115316000Y-99674000D01*
X105156000Y-106024000D02*
X115316000Y-106024000D01*
X105156000Y-102722000D02*
X115316000Y-102722000D01*
X104902000Y-108564000D02*
X107696000Y-108564000D01*
X104902000Y-106532000D02*
X104902000Y-108564000D01*
X105156000Y-100436000D02*
X105156000Y-100182000D01*
X105156000Y-100182000D02*
X105156000Y-100436000D01*
X105156000Y-108310000D02*
X105156000Y-100182000D01*
X115316000Y-108310000D02*
X105156000Y-108310000D01*
%TO.C,C4*%
X125170000Y-100900000D02*
G75*
G03X125170000Y-100900000I-3270000J0D01*
G01*
%TD*%
%TO.C,Q1*%
D10*
X112904761Y-75797619D02*
X112809523Y-75750000D01*
X112714285Y-75654761D01*
X112571428Y-75511904D01*
X112476190Y-75464285D01*
X112380952Y-75464285D01*
X112428571Y-75702380D02*
X112333333Y-75654761D01*
X112238095Y-75559523D01*
X112190476Y-75369047D01*
X112190476Y-75035714D01*
X112238095Y-74845238D01*
X112333333Y-74750000D01*
X112428571Y-74702380D01*
X112619047Y-74702380D01*
X112714285Y-74750000D01*
X112809523Y-74845238D01*
X112857142Y-75035714D01*
X112857142Y-75369047D01*
X112809523Y-75559523D01*
X112714285Y-75654761D01*
X112619047Y-75702380D01*
X112428571Y-75702380D01*
X113809523Y-75702380D02*
X113238095Y-75702380D01*
X113523809Y-75702380D02*
X113523809Y-74702380D01*
X113428571Y-74845238D01*
X113333333Y-74940476D01*
X113238095Y-74988095D01*
%TO.C,R2*%
X114083333Y-67702380D02*
X113750000Y-67226190D01*
X113511904Y-67702380D02*
X113511904Y-66702380D01*
X113892857Y-66702380D01*
X113988095Y-66750000D01*
X114035714Y-66797619D01*
X114083333Y-66892857D01*
X114083333Y-67035714D01*
X114035714Y-67130952D01*
X113988095Y-67178571D01*
X113892857Y-67226190D01*
X113511904Y-67226190D01*
X114464285Y-66797619D02*
X114511904Y-66750000D01*
X114607142Y-66702380D01*
X114845238Y-66702380D01*
X114940476Y-66750000D01*
X114988095Y-66797619D01*
X115035714Y-66892857D01*
X115035714Y-66988095D01*
X114988095Y-67130952D01*
X114416666Y-67702380D01*
X115035714Y-67702380D01*
%TO.C,JP6*%
X108666666Y-68952380D02*
X108666666Y-69666666D01*
X108619047Y-69809523D01*
X108523809Y-69904761D01*
X108380952Y-69952380D01*
X108285714Y-69952380D01*
X109142857Y-69952380D02*
X109142857Y-68952380D01*
X109523809Y-68952380D01*
X109619047Y-69000000D01*
X109666666Y-69047619D01*
X109714285Y-69142857D01*
X109714285Y-69285714D01*
X109666666Y-69380952D01*
X109619047Y-69428571D01*
X109523809Y-69476190D01*
X109142857Y-69476190D01*
X110571428Y-68952380D02*
X110380952Y-68952380D01*
X110285714Y-69000000D01*
X110238095Y-69047619D01*
X110142857Y-69190476D01*
X110095238Y-69380952D01*
X110095238Y-69761904D01*
X110142857Y-69857142D01*
X110190476Y-69904761D01*
X110285714Y-69952380D01*
X110476190Y-69952380D01*
X110571428Y-69904761D01*
X110619047Y-69857142D01*
X110666666Y-69761904D01*
X110666666Y-69523809D01*
X110619047Y-69428571D01*
X110571428Y-69380952D01*
X110476190Y-69333333D01*
X110285714Y-69333333D01*
X110190476Y-69380952D01*
X110142857Y-69428571D01*
X110095238Y-69523809D01*
%TO.C,U2*%
X129988095Y-89202380D02*
X129988095Y-90011904D01*
X130035714Y-90107142D01*
X130083333Y-90154761D01*
X130178571Y-90202380D01*
X130369047Y-90202380D01*
X130464285Y-90154761D01*
X130511904Y-90107142D01*
X130559523Y-90011904D01*
X130559523Y-89202380D01*
X130988095Y-89297619D02*
X131035714Y-89250000D01*
X131130952Y-89202380D01*
X131369047Y-89202380D01*
X131464285Y-89250000D01*
X131511904Y-89297619D01*
X131559523Y-89392857D01*
X131559523Y-89488095D01*
X131511904Y-89630952D01*
X130940476Y-90202380D01*
X131559523Y-90202380D01*
%TO.C,A1*%
X87895714Y-87316666D02*
X88371904Y-87316666D01*
X87800476Y-87602380D02*
X88133809Y-86602380D01*
X88467142Y-87602380D01*
X89324285Y-87602380D02*
X88752857Y-87602380D01*
X89038571Y-87602380D02*
X89038571Y-86602380D01*
X88943333Y-86745238D01*
X88848095Y-86840476D01*
X88752857Y-86888095D01*
%TO.C,J6*%
X86166666Y-105202380D02*
X86166666Y-105916666D01*
X86119047Y-106059523D01*
X86023809Y-106154761D01*
X85880952Y-106202380D01*
X85785714Y-106202380D01*
X87071428Y-105202380D02*
X86880952Y-105202380D01*
X86785714Y-105250000D01*
X86738095Y-105297619D01*
X86642857Y-105440476D01*
X86595238Y-105630952D01*
X86595238Y-106011904D01*
X86642857Y-106107142D01*
X86690476Y-106154761D01*
X86785714Y-106202380D01*
X86976190Y-106202380D01*
X87071428Y-106154761D01*
X87119047Y-106107142D01*
X87166666Y-106011904D01*
X87166666Y-105773809D01*
X87119047Y-105678571D01*
X87071428Y-105630952D01*
X86976190Y-105583333D01*
X86785714Y-105583333D01*
X86690476Y-105630952D01*
X86642857Y-105678571D01*
X86595238Y-105773809D01*
%TO.C,U3*%
X122238095Y-71952380D02*
X122238095Y-72761904D01*
X122285714Y-72857142D01*
X122333333Y-72904761D01*
X122428571Y-72952380D01*
X122619047Y-72952380D01*
X122714285Y-72904761D01*
X122761904Y-72857142D01*
X122809523Y-72761904D01*
X122809523Y-71952380D01*
X123190476Y-71952380D02*
X123809523Y-71952380D01*
X123476190Y-72333333D01*
X123619047Y-72333333D01*
X123714285Y-72380952D01*
X123761904Y-72428571D01*
X123809523Y-72523809D01*
X123809523Y-72761904D01*
X123761904Y-72857142D01*
X123714285Y-72904761D01*
X123619047Y-72952380D01*
X123333333Y-72952380D01*
X123238095Y-72904761D01*
X123190476Y-72857142D01*
%TO.C,U1*%
X91488095Y-71952380D02*
X91488095Y-72761904D01*
X91535714Y-72857142D01*
X91583333Y-72904761D01*
X91678571Y-72952380D01*
X91869047Y-72952380D01*
X91964285Y-72904761D01*
X92011904Y-72857142D01*
X92059523Y-72761904D01*
X92059523Y-71952380D01*
X93059523Y-72952380D02*
X92488095Y-72952380D01*
X92773809Y-72952380D02*
X92773809Y-71952380D01*
X92678571Y-72095238D01*
X92583333Y-72190476D01*
X92488095Y-72238095D01*
%TO.C,R3*%
X122583333Y-79452380D02*
X122250000Y-78976190D01*
X122011904Y-79452380D02*
X122011904Y-78452380D01*
X122392857Y-78452380D01*
X122488095Y-78500000D01*
X122535714Y-78547619D01*
X122583333Y-78642857D01*
X122583333Y-78785714D01*
X122535714Y-78880952D01*
X122488095Y-78928571D01*
X122392857Y-78976190D01*
X122011904Y-78976190D01*
X122916666Y-78452380D02*
X123535714Y-78452380D01*
X123202380Y-78833333D01*
X123345238Y-78833333D01*
X123440476Y-78880952D01*
X123488095Y-78928571D01*
X123535714Y-79023809D01*
X123535714Y-79261904D01*
X123488095Y-79357142D01*
X123440476Y-79404761D01*
X123345238Y-79452380D01*
X123059523Y-79452380D01*
X122964285Y-79404761D01*
X122916666Y-79357142D01*
%TO.C,R1*%
X81083333Y-71702380D02*
X80750000Y-71226190D01*
X80511904Y-71702380D02*
X80511904Y-70702380D01*
X80892857Y-70702380D01*
X80988095Y-70750000D01*
X81035714Y-70797619D01*
X81083333Y-70892857D01*
X81083333Y-71035714D01*
X81035714Y-71130952D01*
X80988095Y-71178571D01*
X80892857Y-71226190D01*
X80511904Y-71226190D01*
X82035714Y-71702380D02*
X81464285Y-71702380D01*
X81750000Y-71702380D02*
X81750000Y-70702380D01*
X81654761Y-70845238D01*
X81559523Y-70940476D01*
X81464285Y-70988095D01*
%TO.C,JP5*%
X108666666Y-62952380D02*
X108666666Y-63666666D01*
X108619047Y-63809523D01*
X108523809Y-63904761D01*
X108380952Y-63952380D01*
X108285714Y-63952380D01*
X109142857Y-63952380D02*
X109142857Y-62952380D01*
X109523809Y-62952380D01*
X109619047Y-63000000D01*
X109666666Y-63047619D01*
X109714285Y-63142857D01*
X109714285Y-63285714D01*
X109666666Y-63380952D01*
X109619047Y-63428571D01*
X109523809Y-63476190D01*
X109142857Y-63476190D01*
X110619047Y-62952380D02*
X110142857Y-62952380D01*
X110095238Y-63428571D01*
X110142857Y-63380952D01*
X110238095Y-63333333D01*
X110476190Y-63333333D01*
X110571428Y-63380952D01*
X110619047Y-63428571D01*
X110666666Y-63523809D01*
X110666666Y-63761904D01*
X110619047Y-63857142D01*
X110571428Y-63904761D01*
X110476190Y-63952380D01*
X110238095Y-63952380D01*
X110142857Y-63904761D01*
X110095238Y-63857142D01*
%TO.C,JP4*%
X108666666Y-74702380D02*
X108666666Y-75416666D01*
X108619047Y-75559523D01*
X108523809Y-75654761D01*
X108380952Y-75702380D01*
X108285714Y-75702380D01*
X109142857Y-75702380D02*
X109142857Y-74702380D01*
X109523809Y-74702380D01*
X109619047Y-74750000D01*
X109666666Y-74797619D01*
X109714285Y-74892857D01*
X109714285Y-75035714D01*
X109666666Y-75130952D01*
X109619047Y-75178571D01*
X109523809Y-75226190D01*
X109142857Y-75226190D01*
X110571428Y-75035714D02*
X110571428Y-75702380D01*
X110333333Y-74654761D02*
X110095238Y-75369047D01*
X110714285Y-75369047D01*
%TO.C,JP3*%
X124916666Y-84702380D02*
X124916666Y-85416666D01*
X124869047Y-85559523D01*
X124773809Y-85654761D01*
X124630952Y-85702380D01*
X124535714Y-85702380D01*
X125392857Y-85702380D02*
X125392857Y-84702380D01*
X125773809Y-84702380D01*
X125869047Y-84750000D01*
X125916666Y-84797619D01*
X125964285Y-84892857D01*
X125964285Y-85035714D01*
X125916666Y-85130952D01*
X125869047Y-85178571D01*
X125773809Y-85226190D01*
X125392857Y-85226190D01*
X126297619Y-84702380D02*
X126916666Y-84702380D01*
X126583333Y-85083333D01*
X126726190Y-85083333D01*
X126821428Y-85130952D01*
X126869047Y-85178571D01*
X126916666Y-85273809D01*
X126916666Y-85511904D01*
X126869047Y-85607142D01*
X126821428Y-85654761D01*
X126726190Y-85702380D01*
X126440476Y-85702380D01*
X126345238Y-85654761D01*
X126297619Y-85607142D01*
%TO.C,JP2*%
X118916666Y-84702380D02*
X118916666Y-85416666D01*
X118869047Y-85559523D01*
X118773809Y-85654761D01*
X118630952Y-85702380D01*
X118535714Y-85702380D01*
X119392857Y-85702380D02*
X119392857Y-84702380D01*
X119773809Y-84702380D01*
X119869047Y-84750000D01*
X119916666Y-84797619D01*
X119964285Y-84892857D01*
X119964285Y-85035714D01*
X119916666Y-85130952D01*
X119869047Y-85178571D01*
X119773809Y-85226190D01*
X119392857Y-85226190D01*
X120345238Y-84797619D02*
X120392857Y-84750000D01*
X120488095Y-84702380D01*
X120726190Y-84702380D01*
X120821428Y-84750000D01*
X120869047Y-84797619D01*
X120916666Y-84892857D01*
X120916666Y-84988095D01*
X120869047Y-85130952D01*
X120297619Y-85702380D01*
X120916666Y-85702380D01*
%TO.C,JP1*%
X112916666Y-84702380D02*
X112916666Y-85416666D01*
X112869047Y-85559523D01*
X112773809Y-85654761D01*
X112630952Y-85702380D01*
X112535714Y-85702380D01*
X113392857Y-85702380D02*
X113392857Y-84702380D01*
X113773809Y-84702380D01*
X113869047Y-84750000D01*
X113916666Y-84797619D01*
X113964285Y-84892857D01*
X113964285Y-85035714D01*
X113916666Y-85130952D01*
X113869047Y-85178571D01*
X113773809Y-85226190D01*
X113392857Y-85226190D01*
X114916666Y-85702380D02*
X114345238Y-85702380D01*
X114630952Y-85702380D02*
X114630952Y-84702380D01*
X114535714Y-84845238D01*
X114440476Y-84940476D01*
X114345238Y-84988095D01*
%TO.C,J8*%
X85916666Y-98202380D02*
X85916666Y-98916666D01*
X85869047Y-99059523D01*
X85773809Y-99154761D01*
X85630952Y-99202380D01*
X85535714Y-99202380D01*
X86535714Y-98630952D02*
X86440476Y-98583333D01*
X86392857Y-98535714D01*
X86345238Y-98440476D01*
X86345238Y-98392857D01*
X86392857Y-98297619D01*
X86440476Y-98250000D01*
X86535714Y-98202380D01*
X86726190Y-98202380D01*
X86821428Y-98250000D01*
X86869047Y-98297619D01*
X86916666Y-98392857D01*
X86916666Y-98440476D01*
X86869047Y-98535714D01*
X86821428Y-98583333D01*
X86726190Y-98630952D01*
X86535714Y-98630952D01*
X86440476Y-98678571D01*
X86392857Y-98726190D01*
X86345238Y-98821428D01*
X86345238Y-99011904D01*
X86392857Y-99107142D01*
X86440476Y-99154761D01*
X86535714Y-99202380D01*
X86726190Y-99202380D01*
X86821428Y-99154761D01*
X86869047Y-99107142D01*
X86916666Y-99011904D01*
X86916666Y-98821428D01*
X86869047Y-98726190D01*
X86821428Y-98678571D01*
X86726190Y-98630952D01*
%TO.C,J7*%
X94666666Y-104702380D02*
X94666666Y-105416666D01*
X94619047Y-105559523D01*
X94523809Y-105654761D01*
X94380952Y-105702380D01*
X94285714Y-105702380D01*
X95047619Y-104702380D02*
X95714285Y-104702380D01*
X95285714Y-105702380D01*
%TO.C,J5*%
X137166666Y-62452380D02*
X137166666Y-63166666D01*
X137119047Y-63309523D01*
X137023809Y-63404761D01*
X136880952Y-63452380D01*
X136785714Y-63452380D01*
X138119047Y-62452380D02*
X137642857Y-62452380D01*
X137595238Y-62928571D01*
X137642857Y-62880952D01*
X137738095Y-62833333D01*
X137976190Y-62833333D01*
X138071428Y-62880952D01*
X138119047Y-62928571D01*
X138166666Y-63023809D01*
X138166666Y-63261904D01*
X138119047Y-63357142D01*
X138071428Y-63404761D01*
X137976190Y-63452380D01*
X137738095Y-63452380D01*
X137642857Y-63404761D01*
X137595238Y-63357142D01*
%TO.C,J4*%
X135916666Y-73952380D02*
X135916666Y-74666666D01*
X135869047Y-74809523D01*
X135773809Y-74904761D01*
X135630952Y-74952380D01*
X135535714Y-74952380D01*
X136821428Y-74285714D02*
X136821428Y-74952380D01*
X136583333Y-73904761D02*
X136345238Y-74619047D01*
X136964285Y-74619047D01*
%TO.C,J3*%
X100066666Y-52052380D02*
X100066666Y-52766666D01*
X100019047Y-52909523D01*
X99923809Y-53004761D01*
X99780952Y-53052380D01*
X99685714Y-53052380D01*
X100447619Y-52052380D02*
X101066666Y-52052380D01*
X100733333Y-52433333D01*
X100876190Y-52433333D01*
X100971428Y-52480952D01*
X101019047Y-52528571D01*
X101066666Y-52623809D01*
X101066666Y-52861904D01*
X101019047Y-52957142D01*
X100971428Y-53004761D01*
X100876190Y-53052380D01*
X100590476Y-53052380D01*
X100495238Y-53004761D01*
X100447619Y-52957142D01*
%TO.C,H4*%
X139488095Y-99952380D02*
X139488095Y-98952380D01*
X139488095Y-99428571D02*
X140059523Y-99428571D01*
X140059523Y-99952380D02*
X140059523Y-98952380D01*
X140964285Y-99285714D02*
X140964285Y-99952380D01*
X140726190Y-98904761D02*
X140488095Y-99619047D01*
X141107142Y-99619047D01*
%TO.C,H3*%
X139738095Y-60452380D02*
X139738095Y-59452380D01*
X139738095Y-59928571D02*
X140309523Y-59928571D01*
X140309523Y-60452380D02*
X140309523Y-59452380D01*
X140690476Y-59452380D02*
X141309523Y-59452380D01*
X140976190Y-59833333D01*
X141119047Y-59833333D01*
X141214285Y-59880952D01*
X141261904Y-59928571D01*
X141309523Y-60023809D01*
X141309523Y-60261904D01*
X141261904Y-60357142D01*
X141214285Y-60404761D01*
X141119047Y-60452380D01*
X140833333Y-60452380D01*
X140738095Y-60404761D01*
X140690476Y-60357142D01*
%TO.C,H2*%
X78988095Y-99952380D02*
X78988095Y-98952380D01*
X78988095Y-99428571D02*
X79559523Y-99428571D01*
X79559523Y-99952380D02*
X79559523Y-98952380D01*
X79988095Y-99047619D02*
X80035714Y-99000000D01*
X80130952Y-98952380D01*
X80369047Y-98952380D01*
X80464285Y-99000000D01*
X80511904Y-99047619D01*
X80559523Y-99142857D01*
X80559523Y-99238095D01*
X80511904Y-99380952D01*
X79940476Y-99952380D01*
X80559523Y-99952380D01*
%TO.C,D1*%
X82511904Y-81952380D02*
X82511904Y-80952380D01*
X82750000Y-80952380D01*
X82892857Y-81000000D01*
X82988095Y-81095238D01*
X83035714Y-81190476D01*
X83083333Y-81380952D01*
X83083333Y-81523809D01*
X83035714Y-81714285D01*
X82988095Y-81809523D01*
X82892857Y-81904761D01*
X82750000Y-81952380D01*
X82511904Y-81952380D01*
X84035714Y-81952380D02*
X83464285Y-81952380D01*
X83750000Y-81952380D02*
X83750000Y-80952380D01*
X83654761Y-81095238D01*
X83559523Y-81190476D01*
X83464285Y-81238095D01*
%TO.C,H1*%
X79238095Y-60702380D02*
X79238095Y-59702380D01*
X79238095Y-60178571D02*
X79809523Y-60178571D01*
X79809523Y-60702380D02*
X79809523Y-59702380D01*
X80809523Y-60702380D02*
X80238095Y-60702380D01*
X80523809Y-60702380D02*
X80523809Y-59702380D01*
X80428571Y-59845238D01*
X80333333Y-59940476D01*
X80238095Y-59988095D01*
%TO.C,C1*%
X81333333Y-67857142D02*
X81285714Y-67904761D01*
X81142857Y-67952380D01*
X81047619Y-67952380D01*
X80904761Y-67904761D01*
X80809523Y-67809523D01*
X80761904Y-67714285D01*
X80714285Y-67523809D01*
X80714285Y-67380952D01*
X80761904Y-67190476D01*
X80809523Y-67095238D01*
X80904761Y-67000000D01*
X81047619Y-66952380D01*
X81142857Y-66952380D01*
X81285714Y-67000000D01*
X81333333Y-67047619D01*
X82285714Y-67952380D02*
X81714285Y-67952380D01*
X82000000Y-67952380D02*
X82000000Y-66952380D01*
X81904761Y-67095238D01*
X81809523Y-67190476D01*
X81714285Y-67238095D01*
%TO.C,C2*%
X134583333Y-80107142D02*
X134535714Y-80154761D01*
X134392857Y-80202380D01*
X134297619Y-80202380D01*
X134154761Y-80154761D01*
X134059523Y-80059523D01*
X134011904Y-79964285D01*
X133964285Y-79773809D01*
X133964285Y-79630952D01*
X134011904Y-79440476D01*
X134059523Y-79345238D01*
X134154761Y-79250000D01*
X134297619Y-79202380D01*
X134392857Y-79202380D01*
X134535714Y-79250000D01*
X134583333Y-79297619D01*
X134964285Y-79297619D02*
X135011904Y-79250000D01*
X135107142Y-79202380D01*
X135345238Y-79202380D01*
X135440476Y-79250000D01*
X135488095Y-79297619D01*
X135535714Y-79392857D01*
X135535714Y-79488095D01*
X135488095Y-79630952D01*
X134916666Y-80202380D01*
X135535714Y-80202380D01*
%TO.C,C3*%
X126833333Y-62357142D02*
X126785714Y-62404761D01*
X126642857Y-62452380D01*
X126547619Y-62452380D01*
X126404761Y-62404761D01*
X126309523Y-62309523D01*
X126261904Y-62214285D01*
X126214285Y-62023809D01*
X126214285Y-61880952D01*
X126261904Y-61690476D01*
X126309523Y-61595238D01*
X126404761Y-61500000D01*
X126547619Y-61452380D01*
X126642857Y-61452380D01*
X126785714Y-61500000D01*
X126833333Y-61547619D01*
X127166666Y-61452380D02*
X127785714Y-61452380D01*
X127452380Y-61833333D01*
X127595238Y-61833333D01*
X127690476Y-61880952D01*
X127738095Y-61928571D01*
X127785714Y-62023809D01*
X127785714Y-62261904D01*
X127738095Y-62357142D01*
X127690476Y-62404761D01*
X127595238Y-62452380D01*
X127309523Y-62452380D01*
X127214285Y-62404761D01*
X127166666Y-62357142D01*
%TO.C,J1*%
X85758666Y-90476380D02*
X85758666Y-91190666D01*
X85711047Y-91333523D01*
X85615809Y-91428761D01*
X85472952Y-91476380D01*
X85377714Y-91476380D01*
X86758666Y-91476380D02*
X86187238Y-91476380D01*
X86472952Y-91476380D02*
X86472952Y-90476380D01*
X86377714Y-90619238D01*
X86282476Y-90714476D01*
X86187238Y-90762095D01*
%TO.C,J2*%
X103416666Y-103952380D02*
X103416666Y-104666666D01*
X103369047Y-104809523D01*
X103273809Y-104904761D01*
X103130952Y-104952380D01*
X103035714Y-104952380D01*
X103845238Y-104047619D02*
X103892857Y-104000000D01*
X103988095Y-103952380D01*
X104226190Y-103952380D01*
X104321428Y-104000000D01*
X104369047Y-104047619D01*
X104416666Y-104142857D01*
X104416666Y-104238095D01*
X104369047Y-104380952D01*
X103797619Y-104952380D01*
X104416666Y-104952380D01*
%TO.C,C4*%
X121733333Y-105657142D02*
X121685714Y-105704761D01*
X121542857Y-105752380D01*
X121447619Y-105752380D01*
X121304761Y-105704761D01*
X121209523Y-105609523D01*
X121161904Y-105514285D01*
X121114285Y-105323809D01*
X121114285Y-105180952D01*
X121161904Y-104990476D01*
X121209523Y-104895238D01*
X121304761Y-104800000D01*
X121447619Y-104752380D01*
X121542857Y-104752380D01*
X121685714Y-104800000D01*
X121733333Y-104847619D01*
X122590476Y-105085714D02*
X122590476Y-105752380D01*
X122352380Y-104704761D02*
X122114285Y-105419047D01*
X122733333Y-105419047D01*
%TD*%
M02*
