%TF.GenerationSoftware,KiCad,Pcbnew,5.1.4-e60b266~84~ubuntu18.04.1*%
%TF.CreationDate,2020-06-02T14:46:13-03:00*%
%TF.ProjectId,Driver Motor PaP_V2.0,44726976-6572-4204-9d6f-746f72205061,2.0*%
%TF.SameCoordinates,Original*%
%TF.FileFunction,Soldermask,Top*%
%TF.FilePolarity,Negative*%
%FSLAX46Y46*%
G04 Gerber Fmt 4.6, Leading zero omitted, Abs format (unit mm)*
G04 Created by KiCad (PCBNEW 5.1.4-e60b266~84~ubuntu18.04.1) date 2020-06-02 14:46:13*
%MOMM*%
%LPD*%
G04 APERTURE LIST*
%ADD10C,0.050000*%
%ADD11C,0.100000*%
G04 APERTURE END LIST*
D10*
X75000000Y-109750000D02*
X75000000Y-49750000D01*
X145000000Y-109750000D02*
X75000000Y-109750000D01*
X145000000Y-49750000D02*
X145000000Y-109750000D01*
X75000000Y-49750000D02*
X145000000Y-49750000D01*
D11*
G36*
X141431632Y-101104677D02*
G01*
X141737005Y-101231167D01*
X142168868Y-101410050D01*
X142832362Y-101853383D01*
X143396617Y-102417638D01*
X143839950Y-103081132D01*
X143854389Y-103115992D01*
X144145323Y-103818368D01*
X144301000Y-104601010D01*
X144301000Y-105398990D01*
X144145323Y-106181632D01*
X144061335Y-106384396D01*
X143839950Y-106918868D01*
X143396617Y-107582362D01*
X142832362Y-108146617D01*
X142168868Y-108589950D01*
X141737005Y-108768833D01*
X141431632Y-108895323D01*
X140648990Y-109051000D01*
X139851010Y-109051000D01*
X139068368Y-108895323D01*
X138762995Y-108768833D01*
X138331132Y-108589950D01*
X137667638Y-108146617D01*
X137103383Y-107582362D01*
X136660050Y-106918868D01*
X136438665Y-106384396D01*
X136354677Y-106181632D01*
X136199000Y-105398990D01*
X136199000Y-104601010D01*
X136354677Y-103818368D01*
X136645611Y-103115992D01*
X136660050Y-103081132D01*
X137103383Y-102417638D01*
X137667638Y-101853383D01*
X138331132Y-101410050D01*
X138762995Y-101231167D01*
X139068368Y-101104677D01*
X139851010Y-100949000D01*
X140648990Y-100949000D01*
X141431632Y-101104677D01*
X141431632Y-101104677D01*
G37*
G36*
X80931632Y-101104677D02*
G01*
X81237005Y-101231167D01*
X81668868Y-101410050D01*
X82332362Y-101853383D01*
X82896617Y-102417638D01*
X83339950Y-103081132D01*
X83354389Y-103115992D01*
X83645323Y-103818368D01*
X83801000Y-104601010D01*
X83801000Y-105398990D01*
X83645323Y-106181632D01*
X83561335Y-106384396D01*
X83339950Y-106918868D01*
X82896617Y-107582362D01*
X82332362Y-108146617D01*
X81668868Y-108589950D01*
X81237005Y-108768833D01*
X80931632Y-108895323D01*
X80148990Y-109051000D01*
X79351010Y-109051000D01*
X78568368Y-108895323D01*
X78262995Y-108768833D01*
X77831132Y-108589950D01*
X77167638Y-108146617D01*
X76603383Y-107582362D01*
X76160050Y-106918868D01*
X75938665Y-106384396D01*
X75854677Y-106181632D01*
X75699000Y-105398990D01*
X75699000Y-104601010D01*
X75854677Y-103818368D01*
X76145611Y-103115992D01*
X76160050Y-103081132D01*
X76603383Y-102417638D01*
X77167638Y-101853383D01*
X77831132Y-101410050D01*
X78262995Y-101231167D01*
X78568368Y-101104677D01*
X79351010Y-100949000D01*
X80148990Y-100949000D01*
X80931632Y-101104677D01*
X80931632Y-101104677D01*
G37*
G36*
X89640548Y-104362326D02*
G01*
X89814157Y-104414990D01*
X89974156Y-104500511D01*
X90010957Y-104530713D01*
X90114397Y-104615603D01*
X90167763Y-104680631D01*
X90229489Y-104755844D01*
X90315010Y-104915843D01*
X90367674Y-105089452D01*
X90381000Y-105224757D01*
X90381000Y-105775244D01*
X90367674Y-105910548D01*
X90315010Y-106084157D01*
X90229489Y-106244156D01*
X90193729Y-106287729D01*
X90114397Y-106384397D01*
X89974155Y-106499489D01*
X89814156Y-106585010D01*
X89640547Y-106637674D01*
X89460000Y-106655456D01*
X89279452Y-106637674D01*
X89105843Y-106585010D01*
X88945844Y-106499489D01*
X88902271Y-106463729D01*
X88805603Y-106384397D01*
X88690511Y-106244155D01*
X88604991Y-106084158D01*
X88604990Y-106084156D01*
X88552326Y-105910547D01*
X88539000Y-105775243D01*
X88539000Y-105224756D01*
X88552326Y-105089452D01*
X88604990Y-104915843D01*
X88690512Y-104755844D01*
X88700832Y-104743269D01*
X88805604Y-104615603D01*
X88909044Y-104530713D01*
X88945845Y-104500511D01*
X89105844Y-104414990D01*
X89279453Y-104362326D01*
X89460000Y-104344544D01*
X89640548Y-104362326D01*
X89640548Y-104362326D01*
G37*
G36*
X97990548Y-104362326D02*
G01*
X98164157Y-104414990D01*
X98324156Y-104500511D01*
X98360957Y-104530713D01*
X98464397Y-104615603D01*
X98517763Y-104680631D01*
X98579489Y-104755844D01*
X98665010Y-104915843D01*
X98717674Y-105089452D01*
X98731000Y-105224757D01*
X98731000Y-105775244D01*
X98717674Y-105910548D01*
X98665010Y-106084157D01*
X98579489Y-106244156D01*
X98543729Y-106287729D01*
X98464397Y-106384397D01*
X98324155Y-106499489D01*
X98164156Y-106585010D01*
X97990547Y-106637674D01*
X97810000Y-106655456D01*
X97629452Y-106637674D01*
X97455843Y-106585010D01*
X97295844Y-106499489D01*
X97252271Y-106463729D01*
X97155603Y-106384397D01*
X97040511Y-106244155D01*
X96954991Y-106084158D01*
X96954990Y-106084156D01*
X96902326Y-105910547D01*
X96889000Y-105775243D01*
X96889000Y-105224756D01*
X96902326Y-105089452D01*
X96954990Y-104915843D01*
X97040512Y-104755844D01*
X97050832Y-104743269D01*
X97155604Y-104615603D01*
X97259044Y-104530713D01*
X97295845Y-104500511D01*
X97455844Y-104414990D01*
X97629453Y-104362326D01*
X97810000Y-104344544D01*
X97990548Y-104362326D01*
X97990548Y-104362326D01*
G37*
G36*
X92779561Y-104352966D02*
G01*
X92812383Y-104362923D01*
X92842632Y-104379092D01*
X92869148Y-104400852D01*
X92890908Y-104427368D01*
X92907077Y-104457617D01*
X92917034Y-104490439D01*
X92921000Y-104530713D01*
X92921000Y-106469287D01*
X92917034Y-106509561D01*
X92907077Y-106542383D01*
X92890908Y-106572632D01*
X92869148Y-106599148D01*
X92842632Y-106620908D01*
X92812383Y-106637077D01*
X92779561Y-106647034D01*
X92739287Y-106651000D01*
X91260713Y-106651000D01*
X91220439Y-106647034D01*
X91187617Y-106637077D01*
X91157368Y-106620908D01*
X91130852Y-106599148D01*
X91109092Y-106572632D01*
X91092923Y-106542383D01*
X91082966Y-106509561D01*
X91079000Y-106469287D01*
X91079000Y-104530713D01*
X91082966Y-104490439D01*
X91092923Y-104457617D01*
X91109092Y-104427368D01*
X91130852Y-104400852D01*
X91157368Y-104379092D01*
X91187617Y-104362923D01*
X91220439Y-104352966D01*
X91260713Y-104349000D01*
X92739287Y-104349000D01*
X92779561Y-104352966D01*
X92779561Y-104352966D01*
G37*
G36*
X101129561Y-104352966D02*
G01*
X101162383Y-104362923D01*
X101192632Y-104379092D01*
X101219148Y-104400852D01*
X101240908Y-104427368D01*
X101257077Y-104457617D01*
X101267034Y-104490439D01*
X101271000Y-104530713D01*
X101271000Y-106469287D01*
X101267034Y-106509561D01*
X101257077Y-106542383D01*
X101240908Y-106572632D01*
X101219148Y-106599148D01*
X101192632Y-106620908D01*
X101162383Y-106637077D01*
X101129561Y-106647034D01*
X101089287Y-106651000D01*
X99610713Y-106651000D01*
X99570439Y-106647034D01*
X99537617Y-106637077D01*
X99507368Y-106620908D01*
X99480852Y-106599148D01*
X99459092Y-106572632D01*
X99442923Y-106542383D01*
X99432966Y-106509561D01*
X99429000Y-106469287D01*
X99429000Y-104530713D01*
X99432966Y-104490439D01*
X99442923Y-104457617D01*
X99459092Y-104427368D01*
X99480852Y-104400852D01*
X99507368Y-104379092D01*
X99537617Y-104362923D01*
X99570439Y-104352966D01*
X99610713Y-104349000D01*
X101089287Y-104349000D01*
X101129561Y-104352966D01*
X101129561Y-104352966D01*
G37*
G36*
X113394903Y-103297075D02*
G01*
X113594330Y-103379680D01*
X113622571Y-103391378D01*
X113827466Y-103528285D01*
X114001715Y-103702534D01*
X114001716Y-103702536D01*
X114138623Y-103907431D01*
X114232925Y-104135097D01*
X114274587Y-104344544D01*
X114281000Y-104376787D01*
X114281000Y-104623213D01*
X114232925Y-104864903D01*
X114138622Y-105092571D01*
X114001715Y-105297466D01*
X113827466Y-105471715D01*
X113622571Y-105608622D01*
X113622570Y-105608623D01*
X113622569Y-105608623D01*
X113394903Y-105702925D01*
X113153214Y-105751000D01*
X112906786Y-105751000D01*
X112665097Y-105702925D01*
X112437431Y-105608623D01*
X112437430Y-105608623D01*
X112437429Y-105608622D01*
X112232534Y-105471715D01*
X112058285Y-105297466D01*
X111921378Y-105092571D01*
X111827075Y-104864903D01*
X111779000Y-104623213D01*
X111779000Y-104376787D01*
X111785414Y-104344544D01*
X111827075Y-104135097D01*
X111921377Y-103907431D01*
X112058284Y-103702536D01*
X112058285Y-103702534D01*
X112232534Y-103528285D01*
X112437429Y-103391378D01*
X112465671Y-103379680D01*
X112665097Y-103297075D01*
X112906786Y-103249000D01*
X113153214Y-103249000D01*
X113394903Y-103297075D01*
X113394903Y-103297075D01*
G37*
G36*
X109201000Y-105751000D02*
G01*
X106699000Y-105751000D01*
X106699000Y-103249000D01*
X109201000Y-103249000D01*
X109201000Y-105751000D01*
X109201000Y-105751000D01*
G37*
G36*
X123398228Y-100081703D02*
G01*
X123553100Y-100145853D01*
X123692481Y-100238985D01*
X123811015Y-100357519D01*
X123904147Y-100496900D01*
X123968297Y-100651772D01*
X124001000Y-100816184D01*
X124001000Y-100983816D01*
X123968297Y-101148228D01*
X123904147Y-101303100D01*
X123811015Y-101442481D01*
X123692481Y-101561015D01*
X123553100Y-101654147D01*
X123398228Y-101718297D01*
X123233816Y-101751000D01*
X123066184Y-101751000D01*
X122901772Y-101718297D01*
X122746900Y-101654147D01*
X122607519Y-101561015D01*
X122488985Y-101442481D01*
X122395853Y-101303100D01*
X122331703Y-101148228D01*
X122299000Y-100983816D01*
X122299000Y-100816184D01*
X122331703Y-100651772D01*
X122395853Y-100496900D01*
X122488985Y-100357519D01*
X122607519Y-100238985D01*
X122746900Y-100145853D01*
X122901772Y-100081703D01*
X123066184Y-100049000D01*
X123233816Y-100049000D01*
X123398228Y-100081703D01*
X123398228Y-100081703D01*
G37*
G36*
X120898228Y-100081703D02*
G01*
X121053100Y-100145853D01*
X121192481Y-100238985D01*
X121311015Y-100357519D01*
X121404147Y-100496900D01*
X121468297Y-100651772D01*
X121501000Y-100816184D01*
X121501000Y-100983816D01*
X121468297Y-101148228D01*
X121404147Y-101303100D01*
X121311015Y-101442481D01*
X121192481Y-101561015D01*
X121053100Y-101654147D01*
X120898228Y-101718297D01*
X120733816Y-101751000D01*
X120566184Y-101751000D01*
X120401772Y-101718297D01*
X120246900Y-101654147D01*
X120107519Y-101561015D01*
X119988985Y-101442481D01*
X119895853Y-101303100D01*
X119831703Y-101148228D01*
X119799000Y-100983816D01*
X119799000Y-100816184D01*
X119831703Y-100651772D01*
X119895853Y-100496900D01*
X119988985Y-100357519D01*
X120107519Y-100238985D01*
X120246900Y-100145853D01*
X120401772Y-100081703D01*
X120566184Y-100049000D01*
X120733816Y-100049000D01*
X120898228Y-100081703D01*
X120898228Y-100081703D01*
G37*
G36*
X90051000Y-99201000D02*
G01*
X88249000Y-99201000D01*
X88249000Y-97399000D01*
X90051000Y-97399000D01*
X90051000Y-99201000D01*
X90051000Y-99201000D01*
G37*
G36*
X80614903Y-93377075D02*
G01*
X80842571Y-93471378D01*
X81047466Y-93608285D01*
X81221715Y-93782534D01*
X81350368Y-93975076D01*
X81358623Y-93987431D01*
X81395824Y-94077242D01*
X81452925Y-94215097D01*
X81501000Y-94456787D01*
X81501000Y-94703213D01*
X81452925Y-94944903D01*
X81358622Y-95172571D01*
X81221715Y-95377466D01*
X81047466Y-95551715D01*
X80842571Y-95688622D01*
X80842570Y-95688623D01*
X80842569Y-95688623D01*
X80614903Y-95782925D01*
X80373214Y-95831000D01*
X80126786Y-95831000D01*
X79885097Y-95782925D01*
X79657431Y-95688623D01*
X79657430Y-95688623D01*
X79657429Y-95688622D01*
X79452534Y-95551715D01*
X79278285Y-95377466D01*
X79141378Y-95172571D01*
X79047075Y-94944903D01*
X78999000Y-94703213D01*
X78999000Y-94456787D01*
X79047075Y-94215097D01*
X79104176Y-94077242D01*
X79141377Y-93987431D01*
X79149632Y-93975076D01*
X79278285Y-93782534D01*
X79452534Y-93608285D01*
X79657429Y-93471378D01*
X79885097Y-93377075D01*
X80126786Y-93329000D01*
X80373214Y-93329000D01*
X80614903Y-93377075D01*
X80614903Y-93377075D01*
G37*
G36*
X141036823Y-92911313D02*
G01*
X141197242Y-92959976D01*
X141318747Y-93024922D01*
X141345078Y-93038996D01*
X141474659Y-93145341D01*
X141581004Y-93274922D01*
X141581005Y-93274924D01*
X141660024Y-93422758D01*
X141708687Y-93583177D01*
X141725117Y-93750000D01*
X141708687Y-93916823D01*
X141660024Y-94077242D01*
X141645369Y-94104659D01*
X141581004Y-94225078D01*
X141474659Y-94354659D01*
X141345078Y-94461004D01*
X141345076Y-94461005D01*
X141197242Y-94540024D01*
X141036823Y-94588687D01*
X140911804Y-94601000D01*
X140828196Y-94601000D01*
X140703177Y-94588687D01*
X140542758Y-94540024D01*
X140394924Y-94461005D01*
X140394922Y-94461004D01*
X140265341Y-94354659D01*
X140158996Y-94225078D01*
X140094631Y-94104659D01*
X140079976Y-94077242D01*
X140031313Y-93916823D01*
X140014883Y-93750000D01*
X140031313Y-93583177D01*
X140079976Y-93422758D01*
X140158995Y-93274924D01*
X140158996Y-93274922D01*
X140265341Y-93145341D01*
X140394922Y-93038996D01*
X140421253Y-93024922D01*
X140542758Y-92959976D01*
X140703177Y-92911313D01*
X140828196Y-92899000D01*
X140911804Y-92899000D01*
X141036823Y-92911313D01*
X141036823Y-92911313D01*
G37*
G36*
X134101000Y-94601000D02*
G01*
X132399000Y-94601000D01*
X132399000Y-92899000D01*
X134101000Y-92899000D01*
X134101000Y-94601000D01*
X134101000Y-94601000D01*
G37*
G36*
X135956823Y-92911313D02*
G01*
X136117242Y-92959976D01*
X136238747Y-93024922D01*
X136265078Y-93038996D01*
X136394659Y-93145341D01*
X136501004Y-93274922D01*
X136501005Y-93274924D01*
X136580024Y-93422758D01*
X136628687Y-93583177D01*
X136645117Y-93750000D01*
X136628687Y-93916823D01*
X136580024Y-94077242D01*
X136565369Y-94104659D01*
X136501004Y-94225078D01*
X136394659Y-94354659D01*
X136265078Y-94461004D01*
X136265076Y-94461005D01*
X136117242Y-94540024D01*
X135956823Y-94588687D01*
X135831804Y-94601000D01*
X135748196Y-94601000D01*
X135623177Y-94588687D01*
X135462758Y-94540024D01*
X135314924Y-94461005D01*
X135314922Y-94461004D01*
X135185341Y-94354659D01*
X135078996Y-94225078D01*
X135014631Y-94104659D01*
X134999976Y-94077242D01*
X134951313Y-93916823D01*
X134934883Y-93750000D01*
X134951313Y-93583177D01*
X134999976Y-93422758D01*
X135078995Y-93274924D01*
X135078996Y-93274922D01*
X135185341Y-93145341D01*
X135314922Y-93038996D01*
X135341253Y-93024922D01*
X135462758Y-92959976D01*
X135623177Y-92911313D01*
X135748196Y-92899000D01*
X135831804Y-92899000D01*
X135956823Y-92911313D01*
X135956823Y-92911313D01*
G37*
G36*
X138496823Y-92911313D02*
G01*
X138657242Y-92959976D01*
X138778747Y-93024922D01*
X138805078Y-93038996D01*
X138934659Y-93145341D01*
X139041004Y-93274922D01*
X139041005Y-93274924D01*
X139120024Y-93422758D01*
X139168687Y-93583177D01*
X139185117Y-93750000D01*
X139168687Y-93916823D01*
X139120024Y-94077242D01*
X139105369Y-94104659D01*
X139041004Y-94225078D01*
X138934659Y-94354659D01*
X138805078Y-94461004D01*
X138805076Y-94461005D01*
X138657242Y-94540024D01*
X138496823Y-94588687D01*
X138371804Y-94601000D01*
X138288196Y-94601000D01*
X138163177Y-94588687D01*
X138002758Y-94540024D01*
X137854924Y-94461005D01*
X137854922Y-94461004D01*
X137725341Y-94354659D01*
X137618996Y-94225078D01*
X137554631Y-94104659D01*
X137539976Y-94077242D01*
X137491313Y-93916823D01*
X137474883Y-93750000D01*
X137491313Y-93583177D01*
X137539976Y-93422758D01*
X137618995Y-93274924D01*
X137618996Y-93274922D01*
X137725341Y-93145341D01*
X137854922Y-93038996D01*
X137881253Y-93024922D01*
X138002758Y-92959976D01*
X138163177Y-92911313D01*
X138288196Y-92899000D01*
X138371804Y-92899000D01*
X138496823Y-92911313D01*
X138496823Y-92911313D01*
G37*
G36*
X106556823Y-92661313D02*
G01*
X106717242Y-92709976D01*
X106849906Y-92780886D01*
X106865078Y-92788996D01*
X106994659Y-92895341D01*
X107101004Y-93024922D01*
X107101005Y-93024924D01*
X107180024Y-93172758D01*
X107228687Y-93333177D01*
X107245117Y-93500000D01*
X107228687Y-93666823D01*
X107180024Y-93827242D01*
X107132142Y-93916823D01*
X107101004Y-93975078D01*
X106994659Y-94104659D01*
X106865078Y-94211004D01*
X106865076Y-94211005D01*
X106717242Y-94290024D01*
X106556823Y-94338687D01*
X106431804Y-94351000D01*
X106348196Y-94351000D01*
X106223177Y-94338687D01*
X106062758Y-94290024D01*
X105914924Y-94211005D01*
X105914922Y-94211004D01*
X105785341Y-94104659D01*
X105678996Y-93975078D01*
X105647858Y-93916823D01*
X105599976Y-93827242D01*
X105551313Y-93666823D01*
X105534883Y-93500000D01*
X105551313Y-93333177D01*
X105599976Y-93172758D01*
X105678995Y-93024924D01*
X105678996Y-93024922D01*
X105785341Y-92895341D01*
X105914922Y-92788996D01*
X105930094Y-92780886D01*
X106062758Y-92709976D01*
X106223177Y-92661313D01*
X106348196Y-92649000D01*
X106431804Y-92649000D01*
X106556823Y-92661313D01*
X106556823Y-92661313D01*
G37*
G36*
X109096823Y-92661313D02*
G01*
X109257242Y-92709976D01*
X109389906Y-92780886D01*
X109405078Y-92788996D01*
X109534659Y-92895341D01*
X109641004Y-93024922D01*
X109641005Y-93024924D01*
X109720024Y-93172758D01*
X109768687Y-93333177D01*
X109785117Y-93500000D01*
X109768687Y-93666823D01*
X109720024Y-93827242D01*
X109672142Y-93916823D01*
X109641004Y-93975078D01*
X109534659Y-94104659D01*
X109405078Y-94211004D01*
X109405076Y-94211005D01*
X109257242Y-94290024D01*
X109096823Y-94338687D01*
X108971804Y-94351000D01*
X108888196Y-94351000D01*
X108763177Y-94338687D01*
X108602758Y-94290024D01*
X108454924Y-94211005D01*
X108454922Y-94211004D01*
X108325341Y-94104659D01*
X108218996Y-93975078D01*
X108187858Y-93916823D01*
X108139976Y-93827242D01*
X108091313Y-93666823D01*
X108074883Y-93500000D01*
X108091313Y-93333177D01*
X108139976Y-93172758D01*
X108218995Y-93024924D01*
X108218996Y-93024922D01*
X108325341Y-92895341D01*
X108454922Y-92788996D01*
X108470094Y-92780886D01*
X108602758Y-92709976D01*
X108763177Y-92661313D01*
X108888196Y-92649000D01*
X108971804Y-92649000D01*
X109096823Y-92661313D01*
X109096823Y-92661313D01*
G37*
G36*
X92001000Y-94351000D02*
G01*
X90299000Y-94351000D01*
X90299000Y-92649000D01*
X92001000Y-92649000D01*
X92001000Y-94351000D01*
X92001000Y-94351000D01*
G37*
G36*
X93856823Y-92661313D02*
G01*
X94017242Y-92709976D01*
X94149906Y-92780886D01*
X94165078Y-92788996D01*
X94294659Y-92895341D01*
X94401004Y-93024922D01*
X94401005Y-93024924D01*
X94480024Y-93172758D01*
X94528687Y-93333177D01*
X94545117Y-93500000D01*
X94528687Y-93666823D01*
X94480024Y-93827242D01*
X94432142Y-93916823D01*
X94401004Y-93975078D01*
X94294659Y-94104659D01*
X94165078Y-94211004D01*
X94165076Y-94211005D01*
X94017242Y-94290024D01*
X93856823Y-94338687D01*
X93731804Y-94351000D01*
X93648196Y-94351000D01*
X93523177Y-94338687D01*
X93362758Y-94290024D01*
X93214924Y-94211005D01*
X93214922Y-94211004D01*
X93085341Y-94104659D01*
X92978996Y-93975078D01*
X92947858Y-93916823D01*
X92899976Y-93827242D01*
X92851313Y-93666823D01*
X92834883Y-93500000D01*
X92851313Y-93333177D01*
X92899976Y-93172758D01*
X92978995Y-93024924D01*
X92978996Y-93024922D01*
X93085341Y-92895341D01*
X93214922Y-92788996D01*
X93230094Y-92780886D01*
X93362758Y-92709976D01*
X93523177Y-92661313D01*
X93648196Y-92649000D01*
X93731804Y-92649000D01*
X93856823Y-92661313D01*
X93856823Y-92661313D01*
G37*
G36*
X98936823Y-92661313D02*
G01*
X99097242Y-92709976D01*
X99229906Y-92780886D01*
X99245078Y-92788996D01*
X99374659Y-92895341D01*
X99481004Y-93024922D01*
X99481005Y-93024924D01*
X99560024Y-93172758D01*
X99608687Y-93333177D01*
X99625117Y-93500000D01*
X99608687Y-93666823D01*
X99560024Y-93827242D01*
X99512142Y-93916823D01*
X99481004Y-93975078D01*
X99374659Y-94104659D01*
X99245078Y-94211004D01*
X99245076Y-94211005D01*
X99097242Y-94290024D01*
X98936823Y-94338687D01*
X98811804Y-94351000D01*
X98728196Y-94351000D01*
X98603177Y-94338687D01*
X98442758Y-94290024D01*
X98294924Y-94211005D01*
X98294922Y-94211004D01*
X98165341Y-94104659D01*
X98058996Y-93975078D01*
X98027858Y-93916823D01*
X97979976Y-93827242D01*
X97931313Y-93666823D01*
X97914883Y-93500000D01*
X97931313Y-93333177D01*
X97979976Y-93172758D01*
X98058995Y-93024924D01*
X98058996Y-93024922D01*
X98165341Y-92895341D01*
X98294922Y-92788996D01*
X98310094Y-92780886D01*
X98442758Y-92709976D01*
X98603177Y-92661313D01*
X98728196Y-92649000D01*
X98811804Y-92649000D01*
X98936823Y-92661313D01*
X98936823Y-92661313D01*
G37*
G36*
X104016823Y-92661313D02*
G01*
X104177242Y-92709976D01*
X104309906Y-92780886D01*
X104325078Y-92788996D01*
X104454659Y-92895341D01*
X104561004Y-93024922D01*
X104561005Y-93024924D01*
X104640024Y-93172758D01*
X104688687Y-93333177D01*
X104705117Y-93500000D01*
X104688687Y-93666823D01*
X104640024Y-93827242D01*
X104592142Y-93916823D01*
X104561004Y-93975078D01*
X104454659Y-94104659D01*
X104325078Y-94211004D01*
X104325076Y-94211005D01*
X104177242Y-94290024D01*
X104016823Y-94338687D01*
X103891804Y-94351000D01*
X103808196Y-94351000D01*
X103683177Y-94338687D01*
X103522758Y-94290024D01*
X103374924Y-94211005D01*
X103374922Y-94211004D01*
X103245341Y-94104659D01*
X103138996Y-93975078D01*
X103107858Y-93916823D01*
X103059976Y-93827242D01*
X103011313Y-93666823D01*
X102994883Y-93500000D01*
X103011313Y-93333177D01*
X103059976Y-93172758D01*
X103138995Y-93024924D01*
X103138996Y-93024922D01*
X103245341Y-92895341D01*
X103374922Y-92788996D01*
X103390094Y-92780886D01*
X103522758Y-92709976D01*
X103683177Y-92661313D01*
X103808196Y-92649000D01*
X103891804Y-92649000D01*
X104016823Y-92661313D01*
X104016823Y-92661313D01*
G37*
G36*
X101476823Y-92661313D02*
G01*
X101637242Y-92709976D01*
X101769906Y-92780886D01*
X101785078Y-92788996D01*
X101914659Y-92895341D01*
X102021004Y-93024922D01*
X102021005Y-93024924D01*
X102100024Y-93172758D01*
X102148687Y-93333177D01*
X102165117Y-93500000D01*
X102148687Y-93666823D01*
X102100024Y-93827242D01*
X102052142Y-93916823D01*
X102021004Y-93975078D01*
X101914659Y-94104659D01*
X101785078Y-94211004D01*
X101785076Y-94211005D01*
X101637242Y-94290024D01*
X101476823Y-94338687D01*
X101351804Y-94351000D01*
X101268196Y-94351000D01*
X101143177Y-94338687D01*
X100982758Y-94290024D01*
X100834924Y-94211005D01*
X100834922Y-94211004D01*
X100705341Y-94104659D01*
X100598996Y-93975078D01*
X100567858Y-93916823D01*
X100519976Y-93827242D01*
X100471313Y-93666823D01*
X100454883Y-93500000D01*
X100471313Y-93333177D01*
X100519976Y-93172758D01*
X100598995Y-93024924D01*
X100598996Y-93024922D01*
X100705341Y-92895341D01*
X100834922Y-92788996D01*
X100850094Y-92780886D01*
X100982758Y-92709976D01*
X101143177Y-92661313D01*
X101268196Y-92649000D01*
X101351804Y-92649000D01*
X101476823Y-92661313D01*
X101476823Y-92661313D01*
G37*
G36*
X96396823Y-92661313D02*
G01*
X96557242Y-92709976D01*
X96689906Y-92780886D01*
X96705078Y-92788996D01*
X96834659Y-92895341D01*
X96941004Y-93024922D01*
X96941005Y-93024924D01*
X97020024Y-93172758D01*
X97068687Y-93333177D01*
X97085117Y-93500000D01*
X97068687Y-93666823D01*
X97020024Y-93827242D01*
X96972142Y-93916823D01*
X96941004Y-93975078D01*
X96834659Y-94104659D01*
X96705078Y-94211004D01*
X96705076Y-94211005D01*
X96557242Y-94290024D01*
X96396823Y-94338687D01*
X96271804Y-94351000D01*
X96188196Y-94351000D01*
X96063177Y-94338687D01*
X95902758Y-94290024D01*
X95754924Y-94211005D01*
X95754922Y-94211004D01*
X95625341Y-94104659D01*
X95518996Y-93975078D01*
X95487858Y-93916823D01*
X95439976Y-93827242D01*
X95391313Y-93666823D01*
X95374883Y-93500000D01*
X95391313Y-93333177D01*
X95439976Y-93172758D01*
X95518995Y-93024924D01*
X95518996Y-93024922D01*
X95625341Y-92895341D01*
X95754922Y-92788996D01*
X95770094Y-92780886D01*
X95902758Y-92709976D01*
X96063177Y-92661313D01*
X96188196Y-92649000D01*
X96271804Y-92649000D01*
X96396823Y-92661313D01*
X96396823Y-92661313D01*
G37*
G36*
X114110443Y-89395519D02*
G01*
X114176627Y-89402037D01*
X114346466Y-89453557D01*
X114502991Y-89537222D01*
X114538729Y-89566552D01*
X114640186Y-89649814D01*
X114723448Y-89751271D01*
X114752778Y-89787009D01*
X114836443Y-89943534D01*
X114887963Y-90113373D01*
X114905359Y-90290000D01*
X114887963Y-90466627D01*
X114836443Y-90636466D01*
X114752778Y-90792991D01*
X114723448Y-90828729D01*
X114640186Y-90930186D01*
X114538729Y-91013448D01*
X114502991Y-91042778D01*
X114346466Y-91126443D01*
X114176627Y-91177963D01*
X114110442Y-91184482D01*
X114044260Y-91191000D01*
X113955740Y-91191000D01*
X113889558Y-91184482D01*
X113823373Y-91177963D01*
X113653534Y-91126443D01*
X113497009Y-91042778D01*
X113461271Y-91013448D01*
X113359814Y-90930186D01*
X113276552Y-90828729D01*
X113247222Y-90792991D01*
X113163557Y-90636466D01*
X113112037Y-90466627D01*
X113094641Y-90290000D01*
X113112037Y-90113373D01*
X113163557Y-89943534D01*
X113247222Y-89787009D01*
X113276552Y-89751271D01*
X113359814Y-89649814D01*
X113461271Y-89566552D01*
X113497009Y-89537222D01*
X113653534Y-89453557D01*
X113823373Y-89402037D01*
X113889557Y-89395519D01*
X113955740Y-89389000D01*
X114044260Y-89389000D01*
X114110443Y-89395519D01*
X114110443Y-89395519D01*
G37*
G36*
X125860443Y-89395519D02*
G01*
X125926627Y-89402037D01*
X126096466Y-89453557D01*
X126252991Y-89537222D01*
X126288729Y-89566552D01*
X126390186Y-89649814D01*
X126473448Y-89751271D01*
X126502778Y-89787009D01*
X126586443Y-89943534D01*
X126637963Y-90113373D01*
X126655359Y-90290000D01*
X126637963Y-90466627D01*
X126586443Y-90636466D01*
X126502778Y-90792991D01*
X126473448Y-90828729D01*
X126390186Y-90930186D01*
X126288729Y-91013448D01*
X126252991Y-91042778D01*
X126096466Y-91126443D01*
X125926627Y-91177963D01*
X125860442Y-91184482D01*
X125794260Y-91191000D01*
X125705740Y-91191000D01*
X125639558Y-91184482D01*
X125573373Y-91177963D01*
X125403534Y-91126443D01*
X125247009Y-91042778D01*
X125211271Y-91013448D01*
X125109814Y-90930186D01*
X125026552Y-90828729D01*
X124997222Y-90792991D01*
X124913557Y-90636466D01*
X124862037Y-90466627D01*
X124844641Y-90290000D01*
X124862037Y-90113373D01*
X124913557Y-89943534D01*
X124997222Y-89787009D01*
X125026552Y-89751271D01*
X125109814Y-89649814D01*
X125211271Y-89566552D01*
X125247009Y-89537222D01*
X125403534Y-89453557D01*
X125573373Y-89402037D01*
X125639557Y-89395519D01*
X125705740Y-89389000D01*
X125794260Y-89389000D01*
X125860443Y-89395519D01*
X125860443Y-89395519D01*
G37*
G36*
X120110443Y-89395519D02*
G01*
X120176627Y-89402037D01*
X120346466Y-89453557D01*
X120502991Y-89537222D01*
X120538729Y-89566552D01*
X120640186Y-89649814D01*
X120723448Y-89751271D01*
X120752778Y-89787009D01*
X120836443Y-89943534D01*
X120887963Y-90113373D01*
X120905359Y-90290000D01*
X120887963Y-90466627D01*
X120836443Y-90636466D01*
X120752778Y-90792991D01*
X120723448Y-90828729D01*
X120640186Y-90930186D01*
X120538729Y-91013448D01*
X120502991Y-91042778D01*
X120346466Y-91126443D01*
X120176627Y-91177963D01*
X120110442Y-91184482D01*
X120044260Y-91191000D01*
X119955740Y-91191000D01*
X119889558Y-91184482D01*
X119823373Y-91177963D01*
X119653534Y-91126443D01*
X119497009Y-91042778D01*
X119461271Y-91013448D01*
X119359814Y-90930186D01*
X119276552Y-90828729D01*
X119247222Y-90792991D01*
X119163557Y-90636466D01*
X119112037Y-90466627D01*
X119094641Y-90290000D01*
X119112037Y-90113373D01*
X119163557Y-89943534D01*
X119247222Y-89787009D01*
X119276552Y-89751271D01*
X119359814Y-89649814D01*
X119461271Y-89566552D01*
X119497009Y-89537222D01*
X119653534Y-89453557D01*
X119823373Y-89402037D01*
X119889557Y-89395519D01*
X119955740Y-89389000D01*
X120044260Y-89389000D01*
X120110443Y-89395519D01*
X120110443Y-89395519D01*
G37*
G36*
X81501000Y-90751000D02*
G01*
X78999000Y-90751000D01*
X78999000Y-88249000D01*
X81501000Y-88249000D01*
X81501000Y-90751000D01*
X81501000Y-90751000D01*
G37*
G36*
X120901000Y-88651000D02*
G01*
X119099000Y-88651000D01*
X119099000Y-86849000D01*
X120901000Y-86849000D01*
X120901000Y-88651000D01*
X120901000Y-88651000D01*
G37*
G36*
X126651000Y-88651000D02*
G01*
X124849000Y-88651000D01*
X124849000Y-86849000D01*
X126651000Y-86849000D01*
X126651000Y-88651000D01*
X126651000Y-88651000D01*
G37*
G36*
X114901000Y-88651000D02*
G01*
X113099000Y-88651000D01*
X113099000Y-86849000D01*
X114901000Y-86849000D01*
X114901000Y-88651000D01*
X114901000Y-88651000D01*
G37*
G36*
X141036823Y-85291313D02*
G01*
X141197242Y-85339976D01*
X141329906Y-85410886D01*
X141345078Y-85418996D01*
X141474659Y-85525341D01*
X141581004Y-85654922D01*
X141581005Y-85654924D01*
X141660024Y-85802758D01*
X141708687Y-85963177D01*
X141725117Y-86130000D01*
X141708687Y-86296823D01*
X141660024Y-86457242D01*
X141589114Y-86589906D01*
X141581004Y-86605078D01*
X141474659Y-86734659D01*
X141345078Y-86841004D01*
X141345076Y-86841005D01*
X141197242Y-86920024D01*
X141036823Y-86968687D01*
X140911804Y-86981000D01*
X140828196Y-86981000D01*
X140703177Y-86968687D01*
X140542758Y-86920024D01*
X140394924Y-86841005D01*
X140394922Y-86841004D01*
X140265341Y-86734659D01*
X140158996Y-86605078D01*
X140150886Y-86589906D01*
X140079976Y-86457242D01*
X140031313Y-86296823D01*
X140014883Y-86130000D01*
X140031313Y-85963177D01*
X140079976Y-85802758D01*
X140158995Y-85654924D01*
X140158996Y-85654922D01*
X140265341Y-85525341D01*
X140394922Y-85418996D01*
X140410094Y-85410886D01*
X140542758Y-85339976D01*
X140703177Y-85291313D01*
X140828196Y-85279000D01*
X140911804Y-85279000D01*
X141036823Y-85291313D01*
X141036823Y-85291313D01*
G37*
G36*
X138496823Y-85291313D02*
G01*
X138657242Y-85339976D01*
X138789906Y-85410886D01*
X138805078Y-85418996D01*
X138934659Y-85525341D01*
X139041004Y-85654922D01*
X139041005Y-85654924D01*
X139120024Y-85802758D01*
X139168687Y-85963177D01*
X139185117Y-86130000D01*
X139168687Y-86296823D01*
X139120024Y-86457242D01*
X139049114Y-86589906D01*
X139041004Y-86605078D01*
X138934659Y-86734659D01*
X138805078Y-86841004D01*
X138805076Y-86841005D01*
X138657242Y-86920024D01*
X138496823Y-86968687D01*
X138371804Y-86981000D01*
X138288196Y-86981000D01*
X138163177Y-86968687D01*
X138002758Y-86920024D01*
X137854924Y-86841005D01*
X137854922Y-86841004D01*
X137725341Y-86734659D01*
X137618996Y-86605078D01*
X137610886Y-86589906D01*
X137539976Y-86457242D01*
X137491313Y-86296823D01*
X137474883Y-86130000D01*
X137491313Y-85963177D01*
X137539976Y-85802758D01*
X137618995Y-85654924D01*
X137618996Y-85654922D01*
X137725341Y-85525341D01*
X137854922Y-85418996D01*
X137870094Y-85410886D01*
X138002758Y-85339976D01*
X138163177Y-85291313D01*
X138288196Y-85279000D01*
X138371804Y-85279000D01*
X138496823Y-85291313D01*
X138496823Y-85291313D01*
G37*
G36*
X135956823Y-85291313D02*
G01*
X136117242Y-85339976D01*
X136249906Y-85410886D01*
X136265078Y-85418996D01*
X136394659Y-85525341D01*
X136501004Y-85654922D01*
X136501005Y-85654924D01*
X136580024Y-85802758D01*
X136628687Y-85963177D01*
X136645117Y-86130000D01*
X136628687Y-86296823D01*
X136580024Y-86457242D01*
X136509114Y-86589906D01*
X136501004Y-86605078D01*
X136394659Y-86734659D01*
X136265078Y-86841004D01*
X136265076Y-86841005D01*
X136117242Y-86920024D01*
X135956823Y-86968687D01*
X135831804Y-86981000D01*
X135748196Y-86981000D01*
X135623177Y-86968687D01*
X135462758Y-86920024D01*
X135314924Y-86841005D01*
X135314922Y-86841004D01*
X135185341Y-86734659D01*
X135078996Y-86605078D01*
X135070886Y-86589906D01*
X134999976Y-86457242D01*
X134951313Y-86296823D01*
X134934883Y-86130000D01*
X134951313Y-85963177D01*
X134999976Y-85802758D01*
X135078995Y-85654924D01*
X135078996Y-85654922D01*
X135185341Y-85525341D01*
X135314922Y-85418996D01*
X135330094Y-85410886D01*
X135462758Y-85339976D01*
X135623177Y-85291313D01*
X135748196Y-85279000D01*
X135831804Y-85279000D01*
X135956823Y-85291313D01*
X135956823Y-85291313D01*
G37*
G36*
X133416823Y-85291313D02*
G01*
X133577242Y-85339976D01*
X133709906Y-85410886D01*
X133725078Y-85418996D01*
X133854659Y-85525341D01*
X133961004Y-85654922D01*
X133961005Y-85654924D01*
X134040024Y-85802758D01*
X134088687Y-85963177D01*
X134105117Y-86130000D01*
X134088687Y-86296823D01*
X134040024Y-86457242D01*
X133969114Y-86589906D01*
X133961004Y-86605078D01*
X133854659Y-86734659D01*
X133725078Y-86841004D01*
X133725076Y-86841005D01*
X133577242Y-86920024D01*
X133416823Y-86968687D01*
X133291804Y-86981000D01*
X133208196Y-86981000D01*
X133083177Y-86968687D01*
X132922758Y-86920024D01*
X132774924Y-86841005D01*
X132774922Y-86841004D01*
X132645341Y-86734659D01*
X132538996Y-86605078D01*
X132530886Y-86589906D01*
X132459976Y-86457242D01*
X132411313Y-86296823D01*
X132394883Y-86130000D01*
X132411313Y-85963177D01*
X132459976Y-85802758D01*
X132538995Y-85654924D01*
X132538996Y-85654922D01*
X132645341Y-85525341D01*
X132774922Y-85418996D01*
X132790094Y-85410886D01*
X132922758Y-85339976D01*
X133083177Y-85291313D01*
X133208196Y-85279000D01*
X133291804Y-85279000D01*
X133416823Y-85291313D01*
X133416823Y-85291313D01*
G37*
G36*
X136248228Y-81431703D02*
G01*
X136403100Y-81495853D01*
X136542481Y-81588985D01*
X136661015Y-81707519D01*
X136754147Y-81846900D01*
X136818297Y-82001772D01*
X136851000Y-82166184D01*
X136851000Y-82333816D01*
X136818297Y-82498228D01*
X136754147Y-82653100D01*
X136661015Y-82792481D01*
X136542481Y-82911015D01*
X136403100Y-83004147D01*
X136248228Y-83068297D01*
X136083816Y-83101000D01*
X135916184Y-83101000D01*
X135751772Y-83068297D01*
X135596900Y-83004147D01*
X135457519Y-82911015D01*
X135338985Y-82792481D01*
X135245853Y-82653100D01*
X135181703Y-82498228D01*
X135149000Y-82333816D01*
X135149000Y-82166184D01*
X135181703Y-82001772D01*
X135245853Y-81846900D01*
X135338985Y-81707519D01*
X135457519Y-81588985D01*
X135596900Y-81495853D01*
X135751772Y-81431703D01*
X135916184Y-81399000D01*
X136083816Y-81399000D01*
X136248228Y-81431703D01*
X136248228Y-81431703D01*
G37*
G36*
X133748228Y-81431703D02*
G01*
X133903100Y-81495853D01*
X134042481Y-81588985D01*
X134161015Y-81707519D01*
X134254147Y-81846900D01*
X134318297Y-82001772D01*
X134351000Y-82166184D01*
X134351000Y-82333816D01*
X134318297Y-82498228D01*
X134254147Y-82653100D01*
X134161015Y-82792481D01*
X134042481Y-82911015D01*
X133903100Y-83004147D01*
X133748228Y-83068297D01*
X133583816Y-83101000D01*
X133416184Y-83101000D01*
X133251772Y-83068297D01*
X133096900Y-83004147D01*
X132957519Y-82911015D01*
X132838985Y-82792481D01*
X132745853Y-82653100D01*
X132681703Y-82498228D01*
X132649000Y-82333816D01*
X132649000Y-82166184D01*
X132681703Y-82001772D01*
X132745853Y-81846900D01*
X132838985Y-81707519D01*
X132957519Y-81588985D01*
X133096900Y-81495853D01*
X133251772Y-81431703D01*
X133416184Y-81399000D01*
X133583816Y-81399000D01*
X133748228Y-81431703D01*
X133748228Y-81431703D01*
G37*
G36*
X123248228Y-80931703D02*
G01*
X123403100Y-80995853D01*
X123542481Y-81088985D01*
X123661015Y-81207519D01*
X123754147Y-81346900D01*
X123818297Y-81501772D01*
X123851000Y-81666184D01*
X123851000Y-81833816D01*
X123818297Y-81998228D01*
X123754147Y-82153100D01*
X123661015Y-82292481D01*
X123542481Y-82411015D01*
X123403100Y-82504147D01*
X123248228Y-82568297D01*
X123083816Y-82601000D01*
X122916184Y-82601000D01*
X122751772Y-82568297D01*
X122596900Y-82504147D01*
X122457519Y-82411015D01*
X122338985Y-82292481D01*
X122245853Y-82153100D01*
X122181703Y-81998228D01*
X122149000Y-81833816D01*
X122149000Y-81666184D01*
X122181703Y-81501772D01*
X122245853Y-81346900D01*
X122338985Y-81207519D01*
X122457519Y-81088985D01*
X122596900Y-80995853D01*
X122751772Y-80931703D01*
X122916184Y-80899000D01*
X123083816Y-80899000D01*
X123248228Y-80931703D01*
X123248228Y-80931703D01*
G37*
G36*
X113006823Y-80911313D02*
G01*
X113167242Y-80959976D01*
X113234361Y-80995852D01*
X113315078Y-81038996D01*
X113444659Y-81145341D01*
X113551004Y-81274922D01*
X113551005Y-81274924D01*
X113630024Y-81422758D01*
X113630025Y-81422761D01*
X113632738Y-81431705D01*
X113678687Y-81583177D01*
X113695117Y-81750000D01*
X113678687Y-81916823D01*
X113630024Y-82077242D01*
X113589477Y-82153100D01*
X113551004Y-82225078D01*
X113444659Y-82354659D01*
X113315078Y-82461004D01*
X113315076Y-82461005D01*
X113167242Y-82540024D01*
X113006823Y-82588687D01*
X112881804Y-82601000D01*
X112798196Y-82601000D01*
X112673177Y-82588687D01*
X112512758Y-82540024D01*
X112364924Y-82461005D01*
X112364922Y-82461004D01*
X112235341Y-82354659D01*
X112128996Y-82225078D01*
X112090523Y-82153100D01*
X112049976Y-82077242D01*
X112001313Y-81916823D01*
X111984883Y-81750000D01*
X112001313Y-81583177D01*
X112047262Y-81431705D01*
X112049975Y-81422761D01*
X112049976Y-81422758D01*
X112128995Y-81274924D01*
X112128996Y-81274922D01*
X112235341Y-81145341D01*
X112364922Y-81038996D01*
X112445639Y-80995852D01*
X112512758Y-80959976D01*
X112673177Y-80911313D01*
X112798196Y-80899000D01*
X112881804Y-80899000D01*
X113006823Y-80911313D01*
X113006823Y-80911313D01*
G37*
G36*
X77987395Y-80585546D02*
G01*
X78160466Y-80657234D01*
X78160467Y-80657235D01*
X78316227Y-80761310D01*
X78448690Y-80893773D01*
X78492925Y-80959976D01*
X78552766Y-81049534D01*
X78624454Y-81222605D01*
X78661000Y-81406333D01*
X78661000Y-81593667D01*
X78624454Y-81777395D01*
X78552766Y-81950466D01*
X78552765Y-81950467D01*
X78448690Y-82106227D01*
X78316227Y-82238690D01*
X78237818Y-82291081D01*
X78160466Y-82342766D01*
X77987395Y-82414454D01*
X77803667Y-82451000D01*
X77616333Y-82451000D01*
X77432605Y-82414454D01*
X77259534Y-82342766D01*
X77182182Y-82291081D01*
X77103773Y-82238690D01*
X76971310Y-82106227D01*
X76867235Y-81950467D01*
X76867234Y-81950466D01*
X76795546Y-81777395D01*
X76759000Y-81593667D01*
X76759000Y-81406333D01*
X76795546Y-81222605D01*
X76867234Y-81049534D01*
X76927075Y-80959976D01*
X76971310Y-80893773D01*
X77103773Y-80761310D01*
X77259533Y-80657235D01*
X77259534Y-80657234D01*
X77432605Y-80585546D01*
X77616333Y-80549000D01*
X77803667Y-80549000D01*
X77987395Y-80585546D01*
X77987395Y-80585546D01*
G37*
G36*
X81201000Y-82451000D02*
G01*
X79299000Y-82451000D01*
X79299000Y-80549000D01*
X81201000Y-80549000D01*
X81201000Y-82451000D01*
X81201000Y-82451000D01*
G37*
G36*
X93856823Y-79961313D02*
G01*
X94017242Y-80009976D01*
X94149906Y-80080886D01*
X94165078Y-80088996D01*
X94294659Y-80195341D01*
X94401004Y-80324922D01*
X94401005Y-80324924D01*
X94480024Y-80472758D01*
X94528687Y-80633177D01*
X94545117Y-80800000D01*
X94528687Y-80966823D01*
X94480024Y-81127242D01*
X94437115Y-81207519D01*
X94401004Y-81275078D01*
X94294659Y-81404659D01*
X94165078Y-81511004D01*
X94165076Y-81511005D01*
X94017242Y-81590024D01*
X94017239Y-81590025D01*
X94005233Y-81593667D01*
X93856823Y-81638687D01*
X93731804Y-81651000D01*
X93648196Y-81651000D01*
X93523177Y-81638687D01*
X93374767Y-81593667D01*
X93362761Y-81590025D01*
X93362758Y-81590024D01*
X93214924Y-81511005D01*
X93214922Y-81511004D01*
X93085341Y-81404659D01*
X92978996Y-81275078D01*
X92942885Y-81207519D01*
X92899976Y-81127242D01*
X92851313Y-80966823D01*
X92834883Y-80800000D01*
X92851313Y-80633177D01*
X92899976Y-80472758D01*
X92978995Y-80324924D01*
X92978996Y-80324922D01*
X93085341Y-80195341D01*
X93214922Y-80088996D01*
X93230094Y-80080886D01*
X93362758Y-80009976D01*
X93523177Y-79961313D01*
X93648196Y-79949000D01*
X93731804Y-79949000D01*
X93856823Y-79961313D01*
X93856823Y-79961313D01*
G37*
G36*
X91316823Y-79961313D02*
G01*
X91477242Y-80009976D01*
X91609906Y-80080886D01*
X91625078Y-80088996D01*
X91754659Y-80195341D01*
X91861004Y-80324922D01*
X91861005Y-80324924D01*
X91940024Y-80472758D01*
X91988687Y-80633177D01*
X92005117Y-80800000D01*
X91988687Y-80966823D01*
X91940024Y-81127242D01*
X91897115Y-81207519D01*
X91861004Y-81275078D01*
X91754659Y-81404659D01*
X91625078Y-81511004D01*
X91625076Y-81511005D01*
X91477242Y-81590024D01*
X91477239Y-81590025D01*
X91465233Y-81593667D01*
X91316823Y-81638687D01*
X91191804Y-81651000D01*
X91108196Y-81651000D01*
X90983177Y-81638687D01*
X90834767Y-81593667D01*
X90822761Y-81590025D01*
X90822758Y-81590024D01*
X90674924Y-81511005D01*
X90674922Y-81511004D01*
X90545341Y-81404659D01*
X90438996Y-81275078D01*
X90402885Y-81207519D01*
X90359976Y-81127242D01*
X90311313Y-80966823D01*
X90294883Y-80800000D01*
X90311313Y-80633177D01*
X90359976Y-80472758D01*
X90438995Y-80324924D01*
X90438996Y-80324922D01*
X90545341Y-80195341D01*
X90674922Y-80088996D01*
X90690094Y-80080886D01*
X90822758Y-80009976D01*
X90983177Y-79961313D01*
X91108196Y-79949000D01*
X91191804Y-79949000D01*
X91316823Y-79961313D01*
X91316823Y-79961313D01*
G37*
G36*
X98936823Y-79961313D02*
G01*
X99097242Y-80009976D01*
X99229906Y-80080886D01*
X99245078Y-80088996D01*
X99374659Y-80195341D01*
X99481004Y-80324922D01*
X99481005Y-80324924D01*
X99560024Y-80472758D01*
X99608687Y-80633177D01*
X99625117Y-80800000D01*
X99608687Y-80966823D01*
X99560024Y-81127242D01*
X99517115Y-81207519D01*
X99481004Y-81275078D01*
X99374659Y-81404659D01*
X99245078Y-81511004D01*
X99245076Y-81511005D01*
X99097242Y-81590024D01*
X99097239Y-81590025D01*
X99085233Y-81593667D01*
X98936823Y-81638687D01*
X98811804Y-81651000D01*
X98728196Y-81651000D01*
X98603177Y-81638687D01*
X98454767Y-81593667D01*
X98442761Y-81590025D01*
X98442758Y-81590024D01*
X98294924Y-81511005D01*
X98294922Y-81511004D01*
X98165341Y-81404659D01*
X98058996Y-81275078D01*
X98022885Y-81207519D01*
X97979976Y-81127242D01*
X97931313Y-80966823D01*
X97914883Y-80800000D01*
X97931313Y-80633177D01*
X97979976Y-80472758D01*
X98058995Y-80324924D01*
X98058996Y-80324922D01*
X98165341Y-80195341D01*
X98294922Y-80088996D01*
X98310094Y-80080886D01*
X98442758Y-80009976D01*
X98603177Y-79961313D01*
X98728196Y-79949000D01*
X98811804Y-79949000D01*
X98936823Y-79961313D01*
X98936823Y-79961313D01*
G37*
G36*
X101476823Y-79961313D02*
G01*
X101637242Y-80009976D01*
X101769906Y-80080886D01*
X101785078Y-80088996D01*
X101914659Y-80195341D01*
X102021004Y-80324922D01*
X102021005Y-80324924D01*
X102100024Y-80472758D01*
X102148687Y-80633177D01*
X102165117Y-80800000D01*
X102148687Y-80966823D01*
X102100024Y-81127242D01*
X102057115Y-81207519D01*
X102021004Y-81275078D01*
X101914659Y-81404659D01*
X101785078Y-81511004D01*
X101785076Y-81511005D01*
X101637242Y-81590024D01*
X101637239Y-81590025D01*
X101625233Y-81593667D01*
X101476823Y-81638687D01*
X101351804Y-81651000D01*
X101268196Y-81651000D01*
X101143177Y-81638687D01*
X100994767Y-81593667D01*
X100982761Y-81590025D01*
X100982758Y-81590024D01*
X100834924Y-81511005D01*
X100834922Y-81511004D01*
X100705341Y-81404659D01*
X100598996Y-81275078D01*
X100562885Y-81207519D01*
X100519976Y-81127242D01*
X100471313Y-80966823D01*
X100454883Y-80800000D01*
X100471313Y-80633177D01*
X100519976Y-80472758D01*
X100598995Y-80324924D01*
X100598996Y-80324922D01*
X100705341Y-80195341D01*
X100834922Y-80088996D01*
X100850094Y-80080886D01*
X100982758Y-80009976D01*
X101143177Y-79961313D01*
X101268196Y-79949000D01*
X101351804Y-79949000D01*
X101476823Y-79961313D01*
X101476823Y-79961313D01*
G37*
G36*
X109096823Y-79961313D02*
G01*
X109257242Y-80009976D01*
X109389906Y-80080886D01*
X109405078Y-80088996D01*
X109534659Y-80195341D01*
X109641004Y-80324922D01*
X109641005Y-80324924D01*
X109720024Y-80472758D01*
X109768687Y-80633177D01*
X109785117Y-80800000D01*
X109768687Y-80966823D01*
X109720024Y-81127242D01*
X109677115Y-81207519D01*
X109641004Y-81275078D01*
X109534659Y-81404659D01*
X109405078Y-81511004D01*
X109405076Y-81511005D01*
X109257242Y-81590024D01*
X109257239Y-81590025D01*
X109245233Y-81593667D01*
X109096823Y-81638687D01*
X108971804Y-81651000D01*
X108888196Y-81651000D01*
X108763177Y-81638687D01*
X108614767Y-81593667D01*
X108602761Y-81590025D01*
X108602758Y-81590024D01*
X108454924Y-81511005D01*
X108454922Y-81511004D01*
X108325341Y-81404659D01*
X108218996Y-81275078D01*
X108182885Y-81207519D01*
X108139976Y-81127242D01*
X108091313Y-80966823D01*
X108074883Y-80800000D01*
X108091313Y-80633177D01*
X108139976Y-80472758D01*
X108218995Y-80324924D01*
X108218996Y-80324922D01*
X108325341Y-80195341D01*
X108454922Y-80088996D01*
X108470094Y-80080886D01*
X108602758Y-80009976D01*
X108763177Y-79961313D01*
X108888196Y-79949000D01*
X108971804Y-79949000D01*
X109096823Y-79961313D01*
X109096823Y-79961313D01*
G37*
G36*
X106556823Y-79961313D02*
G01*
X106717242Y-80009976D01*
X106849906Y-80080886D01*
X106865078Y-80088996D01*
X106994659Y-80195341D01*
X107101004Y-80324922D01*
X107101005Y-80324924D01*
X107180024Y-80472758D01*
X107228687Y-80633177D01*
X107245117Y-80800000D01*
X107228687Y-80966823D01*
X107180024Y-81127242D01*
X107137115Y-81207519D01*
X107101004Y-81275078D01*
X106994659Y-81404659D01*
X106865078Y-81511004D01*
X106865076Y-81511005D01*
X106717242Y-81590024D01*
X106717239Y-81590025D01*
X106705233Y-81593667D01*
X106556823Y-81638687D01*
X106431804Y-81651000D01*
X106348196Y-81651000D01*
X106223177Y-81638687D01*
X106074767Y-81593667D01*
X106062761Y-81590025D01*
X106062758Y-81590024D01*
X105914924Y-81511005D01*
X105914922Y-81511004D01*
X105785341Y-81404659D01*
X105678996Y-81275078D01*
X105642885Y-81207519D01*
X105599976Y-81127242D01*
X105551313Y-80966823D01*
X105534883Y-80800000D01*
X105551313Y-80633177D01*
X105599976Y-80472758D01*
X105678995Y-80324924D01*
X105678996Y-80324922D01*
X105785341Y-80195341D01*
X105914922Y-80088996D01*
X105930094Y-80080886D01*
X106062758Y-80009976D01*
X106223177Y-79961313D01*
X106348196Y-79949000D01*
X106431804Y-79949000D01*
X106556823Y-79961313D01*
X106556823Y-79961313D01*
G37*
G36*
X96396823Y-79961313D02*
G01*
X96557242Y-80009976D01*
X96689906Y-80080886D01*
X96705078Y-80088996D01*
X96834659Y-80195341D01*
X96941004Y-80324922D01*
X96941005Y-80324924D01*
X97020024Y-80472758D01*
X97068687Y-80633177D01*
X97085117Y-80800000D01*
X97068687Y-80966823D01*
X97020024Y-81127242D01*
X96977115Y-81207519D01*
X96941004Y-81275078D01*
X96834659Y-81404659D01*
X96705078Y-81511004D01*
X96705076Y-81511005D01*
X96557242Y-81590024D01*
X96557239Y-81590025D01*
X96545233Y-81593667D01*
X96396823Y-81638687D01*
X96271804Y-81651000D01*
X96188196Y-81651000D01*
X96063177Y-81638687D01*
X95914767Y-81593667D01*
X95902761Y-81590025D01*
X95902758Y-81590024D01*
X95754924Y-81511005D01*
X95754922Y-81511004D01*
X95625341Y-81404659D01*
X95518996Y-81275078D01*
X95482885Y-81207519D01*
X95439976Y-81127242D01*
X95391313Y-80966823D01*
X95374883Y-80800000D01*
X95391313Y-80633177D01*
X95439976Y-80472758D01*
X95518995Y-80324924D01*
X95518996Y-80324922D01*
X95625341Y-80195341D01*
X95754922Y-80088996D01*
X95770094Y-80080886D01*
X95902758Y-80009976D01*
X96063177Y-79961313D01*
X96188196Y-79949000D01*
X96271804Y-79949000D01*
X96396823Y-79961313D01*
X96396823Y-79961313D01*
G37*
G36*
X104016823Y-79961313D02*
G01*
X104177242Y-80009976D01*
X104309906Y-80080886D01*
X104325078Y-80088996D01*
X104454659Y-80195341D01*
X104561004Y-80324922D01*
X104561005Y-80324924D01*
X104640024Y-80472758D01*
X104688687Y-80633177D01*
X104705117Y-80800000D01*
X104688687Y-80966823D01*
X104640024Y-81127242D01*
X104597115Y-81207519D01*
X104561004Y-81275078D01*
X104454659Y-81404659D01*
X104325078Y-81511004D01*
X104325076Y-81511005D01*
X104177242Y-81590024D01*
X104177239Y-81590025D01*
X104165233Y-81593667D01*
X104016823Y-81638687D01*
X103891804Y-81651000D01*
X103808196Y-81651000D01*
X103683177Y-81638687D01*
X103534767Y-81593667D01*
X103522761Y-81590025D01*
X103522758Y-81590024D01*
X103374924Y-81511005D01*
X103374922Y-81511004D01*
X103245341Y-81404659D01*
X103138996Y-81275078D01*
X103102885Y-81207519D01*
X103059976Y-81127242D01*
X103011313Y-80966823D01*
X102994883Y-80800000D01*
X103011313Y-80633177D01*
X103059976Y-80472758D01*
X103138995Y-80324924D01*
X103138996Y-80324922D01*
X103245341Y-80195341D01*
X103374922Y-80088996D01*
X103390094Y-80080886D01*
X103522758Y-80009976D01*
X103683177Y-79961313D01*
X103808196Y-79949000D01*
X103891804Y-79949000D01*
X104016823Y-79961313D01*
X104016823Y-79961313D01*
G37*
G36*
X141070345Y-76803442D02*
G01*
X141160548Y-76812326D01*
X141334157Y-76864990D01*
X141494156Y-76950511D01*
X141537729Y-76986271D01*
X141634397Y-77065603D01*
X141713729Y-77162271D01*
X141749489Y-77205844D01*
X141835010Y-77365843D01*
X141887674Y-77539452D01*
X141905456Y-77720000D01*
X141887674Y-77900548D01*
X141835010Y-78074157D01*
X141749489Y-78234156D01*
X141713729Y-78277729D01*
X141634397Y-78374397D01*
X141537729Y-78453729D01*
X141494156Y-78489489D01*
X141334157Y-78575010D01*
X141160548Y-78627674D01*
X141070345Y-78636558D01*
X141025245Y-78641000D01*
X140474755Y-78641000D01*
X140429655Y-78636558D01*
X140339452Y-78627674D01*
X140165843Y-78575010D01*
X140005844Y-78489489D01*
X139962271Y-78453729D01*
X139865603Y-78374397D01*
X139786271Y-78277729D01*
X139750511Y-78234156D01*
X139664990Y-78074157D01*
X139612326Y-77900548D01*
X139594544Y-77720000D01*
X139612326Y-77539452D01*
X139664990Y-77365843D01*
X139750511Y-77205844D01*
X139786271Y-77162271D01*
X139865603Y-77065603D01*
X139962271Y-76986271D01*
X140005844Y-76950511D01*
X140165843Y-76864990D01*
X140339452Y-76812326D01*
X140429655Y-76803442D01*
X140474755Y-76799000D01*
X141025245Y-76799000D01*
X141070345Y-76803442D01*
X141070345Y-76803442D01*
G37*
G36*
X116072000Y-77801000D02*
G01*
X114920000Y-77801000D01*
X114920000Y-76199000D01*
X116072000Y-76199000D01*
X116072000Y-77801000D01*
X116072000Y-77801000D01*
G37*
G36*
X118792915Y-76197334D02*
G01*
X118901491Y-76230271D01*
X118901494Y-76230272D01*
X118935087Y-76248228D01*
X119001556Y-76283756D01*
X119089264Y-76355736D01*
X119161244Y-76443443D01*
X119195429Y-76507399D01*
X119214728Y-76543505D01*
X119214728Y-76543506D01*
X119214729Y-76543508D01*
X119247666Y-76652084D01*
X119256000Y-76736702D01*
X119256000Y-77243297D01*
X119247666Y-77327916D01*
X119214729Y-77436492D01*
X119214728Y-77436495D01*
X119195429Y-77472601D01*
X119161244Y-77536557D01*
X119089264Y-77624264D01*
X119001557Y-77696244D01*
X118937601Y-77730429D01*
X118901495Y-77749728D01*
X118901492Y-77749729D01*
X118792916Y-77782666D01*
X118680000Y-77793787D01*
X118567085Y-77782666D01*
X118458509Y-77749729D01*
X118458506Y-77749728D01*
X118422400Y-77730429D01*
X118358444Y-77696244D01*
X118270737Y-77624264D01*
X118198757Y-77536557D01*
X118193267Y-77526286D01*
X118145272Y-77436495D01*
X118145271Y-77436492D01*
X118112334Y-77327916D01*
X118104000Y-77243298D01*
X118104000Y-76736703D01*
X118112334Y-76652085D01*
X118145271Y-76543509D01*
X118145272Y-76543506D01*
X118164571Y-76507400D01*
X118198756Y-76443444D01*
X118270736Y-76355736D01*
X118358443Y-76283756D01*
X118424912Y-76248228D01*
X118458505Y-76230272D01*
X118458508Y-76230271D01*
X118567084Y-76197334D01*
X118680000Y-76186213D01*
X118792915Y-76197334D01*
X118792915Y-76197334D01*
G37*
G36*
X117202915Y-76197334D02*
G01*
X117311491Y-76230271D01*
X117311494Y-76230272D01*
X117345087Y-76248228D01*
X117411556Y-76283756D01*
X117499264Y-76355736D01*
X117571244Y-76443443D01*
X117605429Y-76507399D01*
X117624728Y-76543505D01*
X117624728Y-76543506D01*
X117624729Y-76543508D01*
X117657666Y-76652084D01*
X117666000Y-76736702D01*
X117666000Y-77243297D01*
X117657666Y-77327916D01*
X117624729Y-77436492D01*
X117624728Y-77436495D01*
X117605429Y-77472601D01*
X117571244Y-77536557D01*
X117499264Y-77624264D01*
X117411557Y-77696244D01*
X117347601Y-77730429D01*
X117311495Y-77749728D01*
X117311492Y-77749729D01*
X117202916Y-77782666D01*
X117090000Y-77793787D01*
X116977085Y-77782666D01*
X116868509Y-77749729D01*
X116868506Y-77749728D01*
X116832400Y-77730429D01*
X116768444Y-77696244D01*
X116680737Y-77624264D01*
X116608757Y-77536557D01*
X116603267Y-77526286D01*
X116555272Y-77436495D01*
X116555271Y-77436492D01*
X116522334Y-77327916D01*
X116514000Y-77243298D01*
X116514000Y-76736703D01*
X116522334Y-76652085D01*
X116555271Y-76543509D01*
X116555272Y-76543506D01*
X116574571Y-76507400D01*
X116608756Y-76443444D01*
X116680736Y-76355736D01*
X116768443Y-76283756D01*
X116834912Y-76248228D01*
X116868505Y-76230272D01*
X116868508Y-76230271D01*
X116977084Y-76197334D01*
X117090000Y-76186213D01*
X117202915Y-76197334D01*
X117202915Y-76197334D01*
G37*
G36*
X133536823Y-75411313D02*
G01*
X133667380Y-75450917D01*
X133689143Y-75457519D01*
X133697242Y-75459976D01*
X133829906Y-75530886D01*
X133845078Y-75538996D01*
X133974659Y-75645341D01*
X134081004Y-75774922D01*
X134081005Y-75774924D01*
X134160024Y-75922758D01*
X134208687Y-76083177D01*
X134225117Y-76250000D01*
X134208687Y-76416823D01*
X134160024Y-76577242D01*
X134120019Y-76652086D01*
X134081004Y-76725078D01*
X133974659Y-76854659D01*
X133845078Y-76961004D01*
X133845076Y-76961005D01*
X133697242Y-77040024D01*
X133536823Y-77088687D01*
X133411804Y-77101000D01*
X133328196Y-77101000D01*
X133203177Y-77088687D01*
X133042758Y-77040024D01*
X132894924Y-76961005D01*
X132894922Y-76961004D01*
X132765341Y-76854659D01*
X132658996Y-76725078D01*
X132619981Y-76652086D01*
X132579976Y-76577242D01*
X132531313Y-76416823D01*
X132514883Y-76250000D01*
X132531313Y-76083177D01*
X132579976Y-75922758D01*
X132658995Y-75774924D01*
X132658996Y-75774922D01*
X132765341Y-75645341D01*
X132894922Y-75538996D01*
X132910094Y-75530886D01*
X133042758Y-75459976D01*
X133050858Y-75457519D01*
X133072620Y-75450917D01*
X133203177Y-75411313D01*
X133328196Y-75399000D01*
X133411804Y-75399000D01*
X133536823Y-75411313D01*
X133536823Y-75411313D01*
G37*
G36*
X130996823Y-75411313D02*
G01*
X131127380Y-75450917D01*
X131149143Y-75457519D01*
X131157242Y-75459976D01*
X131289906Y-75530886D01*
X131305078Y-75538996D01*
X131434659Y-75645341D01*
X131541004Y-75774922D01*
X131541005Y-75774924D01*
X131620024Y-75922758D01*
X131668687Y-76083177D01*
X131685117Y-76250000D01*
X131668687Y-76416823D01*
X131620024Y-76577242D01*
X131580019Y-76652086D01*
X131541004Y-76725078D01*
X131434659Y-76854659D01*
X131305078Y-76961004D01*
X131305076Y-76961005D01*
X131157242Y-77040024D01*
X130996823Y-77088687D01*
X130871804Y-77101000D01*
X130788196Y-77101000D01*
X130663177Y-77088687D01*
X130502758Y-77040024D01*
X130354924Y-76961005D01*
X130354922Y-76961004D01*
X130225341Y-76854659D01*
X130118996Y-76725078D01*
X130079981Y-76652086D01*
X130039976Y-76577242D01*
X129991313Y-76416823D01*
X129974883Y-76250000D01*
X129991313Y-76083177D01*
X130039976Y-75922758D01*
X130118995Y-75774924D01*
X130118996Y-75774922D01*
X130225341Y-75645341D01*
X130354922Y-75538996D01*
X130370094Y-75530886D01*
X130502758Y-75459976D01*
X130510858Y-75457519D01*
X130532620Y-75450917D01*
X130663177Y-75411313D01*
X130788196Y-75399000D01*
X130871804Y-75399000D01*
X130996823Y-75411313D01*
X130996823Y-75411313D01*
G37*
G36*
X128456823Y-75411313D02*
G01*
X128587380Y-75450917D01*
X128609143Y-75457519D01*
X128617242Y-75459976D01*
X128749906Y-75530886D01*
X128765078Y-75538996D01*
X128894659Y-75645341D01*
X129001004Y-75774922D01*
X129001005Y-75774924D01*
X129080024Y-75922758D01*
X129128687Y-76083177D01*
X129145117Y-76250000D01*
X129128687Y-76416823D01*
X129080024Y-76577242D01*
X129040019Y-76652086D01*
X129001004Y-76725078D01*
X128894659Y-76854659D01*
X128765078Y-76961004D01*
X128765076Y-76961005D01*
X128617242Y-77040024D01*
X128456823Y-77088687D01*
X128331804Y-77101000D01*
X128248196Y-77101000D01*
X128123177Y-77088687D01*
X127962758Y-77040024D01*
X127814924Y-76961005D01*
X127814922Y-76961004D01*
X127685341Y-76854659D01*
X127578996Y-76725078D01*
X127539981Y-76652086D01*
X127499976Y-76577242D01*
X127451313Y-76416823D01*
X127434883Y-76250000D01*
X127451313Y-76083177D01*
X127499976Y-75922758D01*
X127578995Y-75774924D01*
X127578996Y-75774922D01*
X127685341Y-75645341D01*
X127814922Y-75538996D01*
X127830094Y-75530886D01*
X127962758Y-75459976D01*
X127970858Y-75457519D01*
X127992620Y-75450917D01*
X128123177Y-75411313D01*
X128248196Y-75399000D01*
X128331804Y-75399000D01*
X128456823Y-75411313D01*
X128456823Y-75411313D01*
G37*
G36*
X126601000Y-77101000D02*
G01*
X124899000Y-77101000D01*
X124899000Y-75399000D01*
X126601000Y-75399000D01*
X126601000Y-77101000D01*
X126601000Y-77101000D01*
G37*
G36*
X78998228Y-75181703D02*
G01*
X79153100Y-75245853D01*
X79292481Y-75338985D01*
X79411015Y-75457519D01*
X79504147Y-75596900D01*
X79568297Y-75751772D01*
X79601000Y-75916184D01*
X79601000Y-76083816D01*
X79568297Y-76248228D01*
X79504147Y-76403100D01*
X79411015Y-76542481D01*
X79292481Y-76661015D01*
X79153100Y-76754147D01*
X78998228Y-76818297D01*
X78833816Y-76851000D01*
X78666184Y-76851000D01*
X78501772Y-76818297D01*
X78346900Y-76754147D01*
X78207519Y-76661015D01*
X78088985Y-76542481D01*
X77995853Y-76403100D01*
X77931703Y-76248228D01*
X77899000Y-76083816D01*
X77899000Y-75916184D01*
X77931703Y-75751772D01*
X77995853Y-75596900D01*
X78088985Y-75457519D01*
X78207519Y-75338985D01*
X78346900Y-75245853D01*
X78501772Y-75181703D01*
X78666184Y-75149000D01*
X78833816Y-75149000D01*
X78998228Y-75181703D01*
X78998228Y-75181703D01*
G37*
G36*
X106901000Y-76151000D02*
G01*
X105099000Y-76151000D01*
X105099000Y-74349000D01*
X106901000Y-74349000D01*
X106901000Y-76151000D01*
X106901000Y-76151000D01*
G37*
G36*
X103570442Y-74355518D02*
G01*
X103636627Y-74362037D01*
X103806466Y-74413557D01*
X103962991Y-74497222D01*
X103997573Y-74525603D01*
X104100186Y-74609814D01*
X104183448Y-74711271D01*
X104212778Y-74747009D01*
X104296443Y-74903534D01*
X104347963Y-75073373D01*
X104365359Y-75250000D01*
X104347963Y-75426627D01*
X104296443Y-75596466D01*
X104212778Y-75752991D01*
X104194778Y-75774924D01*
X104100186Y-75890186D01*
X103998729Y-75973448D01*
X103962991Y-76002778D01*
X103806466Y-76086443D01*
X103636627Y-76137963D01*
X103570442Y-76144482D01*
X103504260Y-76151000D01*
X103415740Y-76151000D01*
X103349558Y-76144482D01*
X103283373Y-76137963D01*
X103113534Y-76086443D01*
X102957009Y-76002778D01*
X102921271Y-75973448D01*
X102819814Y-75890186D01*
X102725222Y-75774924D01*
X102707222Y-75752991D01*
X102623557Y-75596466D01*
X102572037Y-75426627D01*
X102554641Y-75250000D01*
X102572037Y-75073373D01*
X102623557Y-74903534D01*
X102707222Y-74747009D01*
X102736552Y-74711271D01*
X102819814Y-74609814D01*
X102922427Y-74525603D01*
X102957009Y-74497222D01*
X103113534Y-74413557D01*
X103283373Y-74362037D01*
X103349558Y-74355518D01*
X103415740Y-74349000D01*
X103504260Y-74349000D01*
X103570442Y-74355518D01*
X103570442Y-74355518D01*
G37*
G36*
X141070345Y-74263442D02*
G01*
X141160548Y-74272326D01*
X141334157Y-74324990D01*
X141494156Y-74410511D01*
X141537729Y-74446271D01*
X141634397Y-74525603D01*
X141703506Y-74609814D01*
X141749489Y-74665844D01*
X141835010Y-74825843D01*
X141887674Y-74999452D01*
X141905456Y-75180000D01*
X141887674Y-75360548D01*
X141835010Y-75534157D01*
X141749489Y-75694156D01*
X141713729Y-75737729D01*
X141634397Y-75834397D01*
X141537729Y-75913729D01*
X141494156Y-75949489D01*
X141334157Y-76035010D01*
X141160548Y-76087674D01*
X141070345Y-76096558D01*
X141025245Y-76101000D01*
X140474755Y-76101000D01*
X140429655Y-76096558D01*
X140339452Y-76087674D01*
X140165843Y-76035010D01*
X140005844Y-75949489D01*
X139962271Y-75913729D01*
X139865603Y-75834397D01*
X139786271Y-75737729D01*
X139750511Y-75694156D01*
X139664990Y-75534157D01*
X139612326Y-75360548D01*
X139594544Y-75180000D01*
X139612326Y-74999452D01*
X139664990Y-74825843D01*
X139750511Y-74665844D01*
X139796494Y-74609814D01*
X139865603Y-74525603D01*
X139962271Y-74446271D01*
X140005844Y-74410511D01*
X140165843Y-74324990D01*
X140339452Y-74272326D01*
X140429655Y-74263442D01*
X140474755Y-74259000D01*
X141025245Y-74259000D01*
X141070345Y-74263442D01*
X141070345Y-74263442D01*
G37*
G36*
X141070345Y-71723442D02*
G01*
X141160548Y-71732326D01*
X141334157Y-71784990D01*
X141494156Y-71870511D01*
X141537729Y-71906271D01*
X141634397Y-71985603D01*
X141713729Y-72082271D01*
X141749489Y-72125844D01*
X141835010Y-72285843D01*
X141887674Y-72459452D01*
X141905456Y-72640000D01*
X141887674Y-72820548D01*
X141835010Y-72994157D01*
X141749489Y-73154156D01*
X141713729Y-73197729D01*
X141634397Y-73294397D01*
X141537729Y-73373729D01*
X141494156Y-73409489D01*
X141334157Y-73495010D01*
X141160548Y-73547674D01*
X141070345Y-73556558D01*
X141025245Y-73561000D01*
X140474755Y-73561000D01*
X140429655Y-73556558D01*
X140339452Y-73547674D01*
X140165843Y-73495010D01*
X140005844Y-73409489D01*
X139962271Y-73373729D01*
X139865603Y-73294397D01*
X139786271Y-73197729D01*
X139750511Y-73154156D01*
X139664990Y-72994157D01*
X139612326Y-72820548D01*
X139594544Y-72640000D01*
X139612326Y-72459452D01*
X139664990Y-72285843D01*
X139750511Y-72125844D01*
X139786271Y-72082271D01*
X139865603Y-71985603D01*
X139962271Y-71906271D01*
X140005844Y-71870511D01*
X140165843Y-71784990D01*
X140339452Y-71732326D01*
X140429655Y-71723442D01*
X140474755Y-71719000D01*
X141025245Y-71719000D01*
X141070345Y-71723442D01*
X141070345Y-71723442D01*
G37*
G36*
X117248228Y-70931703D02*
G01*
X117403100Y-70995853D01*
X117542481Y-71088985D01*
X117661015Y-71207519D01*
X117754147Y-71346900D01*
X117818297Y-71501772D01*
X117851000Y-71666184D01*
X117851000Y-71833816D01*
X117818297Y-71998228D01*
X117754147Y-72153100D01*
X117661015Y-72292481D01*
X117542481Y-72411015D01*
X117403100Y-72504147D01*
X117248228Y-72568297D01*
X117083816Y-72601000D01*
X116916184Y-72601000D01*
X116751772Y-72568297D01*
X116596900Y-72504147D01*
X116457519Y-72411015D01*
X116338985Y-72292481D01*
X116245853Y-72153100D01*
X116181703Y-71998228D01*
X116149000Y-71833816D01*
X116149000Y-71666184D01*
X116181703Y-71501772D01*
X116245853Y-71346900D01*
X116338985Y-71207519D01*
X116457519Y-71088985D01*
X116596900Y-70995853D01*
X116751772Y-70931703D01*
X116916184Y-70899000D01*
X117083816Y-70899000D01*
X117248228Y-70931703D01*
X117248228Y-70931703D01*
G37*
G36*
X141759561Y-69182966D02*
G01*
X141792383Y-69192923D01*
X141822632Y-69209092D01*
X141849148Y-69230852D01*
X141870908Y-69257368D01*
X141887077Y-69287617D01*
X141897034Y-69320439D01*
X141901000Y-69360713D01*
X141901000Y-70839287D01*
X141897034Y-70879561D01*
X141887077Y-70912383D01*
X141870908Y-70942632D01*
X141849148Y-70969148D01*
X141822632Y-70990908D01*
X141792383Y-71007077D01*
X141759561Y-71017034D01*
X141719287Y-71021000D01*
X139780713Y-71021000D01*
X139740439Y-71017034D01*
X139707617Y-71007077D01*
X139677368Y-70990908D01*
X139650852Y-70969148D01*
X139629092Y-70942632D01*
X139612923Y-70912383D01*
X139602966Y-70879561D01*
X139599000Y-70839287D01*
X139599000Y-69360713D01*
X139602966Y-69320439D01*
X139612923Y-69287617D01*
X139629092Y-69257368D01*
X139650852Y-69230852D01*
X139677368Y-69209092D01*
X139707617Y-69192923D01*
X139740439Y-69182966D01*
X139780713Y-69179000D01*
X141719287Y-69179000D01*
X141759561Y-69182966D01*
X141759561Y-69182966D01*
G37*
G36*
X104401000Y-70401000D02*
G01*
X102599000Y-70401000D01*
X102599000Y-68599000D01*
X104401000Y-68599000D01*
X104401000Y-70401000D01*
X104401000Y-70401000D01*
G37*
G36*
X106150442Y-68605518D02*
G01*
X106216627Y-68612037D01*
X106386466Y-68663557D01*
X106542991Y-68747222D01*
X106578729Y-68776552D01*
X106680186Y-68859814D01*
X106760139Y-68957239D01*
X106792778Y-68997009D01*
X106876443Y-69153534D01*
X106927963Y-69323373D01*
X106945359Y-69500000D01*
X106927963Y-69676627D01*
X106876443Y-69846466D01*
X106792778Y-70002991D01*
X106763448Y-70038729D01*
X106680186Y-70140186D01*
X106578729Y-70223448D01*
X106542991Y-70252778D01*
X106386466Y-70336443D01*
X106216627Y-70387963D01*
X106150442Y-70394482D01*
X106084260Y-70401000D01*
X105995740Y-70401000D01*
X105929558Y-70394482D01*
X105863373Y-70387963D01*
X105693534Y-70336443D01*
X105537009Y-70252778D01*
X105501271Y-70223448D01*
X105399814Y-70140186D01*
X105316552Y-70038729D01*
X105287222Y-70002991D01*
X105203557Y-69846466D01*
X105152037Y-69676627D01*
X105134641Y-69500000D01*
X105152037Y-69323373D01*
X105203557Y-69153534D01*
X105287222Y-68997009D01*
X105319861Y-68957239D01*
X105399814Y-68859814D01*
X105501271Y-68776552D01*
X105537009Y-68747222D01*
X105693534Y-68663557D01*
X105863373Y-68612037D01*
X105929558Y-68605518D01*
X105995740Y-68599000D01*
X106084260Y-68599000D01*
X106150442Y-68605518D01*
X106150442Y-68605518D01*
G37*
G36*
X96851000Y-69851000D02*
G01*
X95149000Y-69851000D01*
X95149000Y-68149000D01*
X96851000Y-68149000D01*
X96851000Y-69851000D01*
X96851000Y-69851000D01*
G37*
G36*
X88546823Y-68161313D02*
G01*
X88677380Y-68200917D01*
X88699143Y-68207519D01*
X88707242Y-68209976D01*
X88839906Y-68280886D01*
X88855078Y-68288996D01*
X88984659Y-68395341D01*
X89091004Y-68524922D01*
X89091005Y-68524924D01*
X89170024Y-68672758D01*
X89218687Y-68833177D01*
X89235117Y-69000000D01*
X89218687Y-69166823D01*
X89170024Y-69327242D01*
X89125246Y-69411015D01*
X89091004Y-69475078D01*
X88984659Y-69604659D01*
X88855078Y-69711004D01*
X88855076Y-69711005D01*
X88707242Y-69790024D01*
X88546823Y-69838687D01*
X88421804Y-69851000D01*
X88338196Y-69851000D01*
X88213177Y-69838687D01*
X88052758Y-69790024D01*
X87904924Y-69711005D01*
X87904922Y-69711004D01*
X87775341Y-69604659D01*
X87668996Y-69475078D01*
X87634754Y-69411015D01*
X87589976Y-69327242D01*
X87541313Y-69166823D01*
X87524883Y-69000000D01*
X87541313Y-68833177D01*
X87589976Y-68672758D01*
X87668995Y-68524924D01*
X87668996Y-68524922D01*
X87775341Y-68395341D01*
X87904922Y-68288996D01*
X87920094Y-68280886D01*
X88052758Y-68209976D01*
X88060858Y-68207519D01*
X88082620Y-68200917D01*
X88213177Y-68161313D01*
X88338196Y-68149000D01*
X88421804Y-68149000D01*
X88546823Y-68161313D01*
X88546823Y-68161313D01*
G37*
G36*
X84248228Y-67931703D02*
G01*
X84403100Y-67995853D01*
X84542481Y-68088985D01*
X84661015Y-68207519D01*
X84754147Y-68346900D01*
X84818297Y-68501772D01*
X84851000Y-68666184D01*
X84851000Y-68833816D01*
X84818297Y-68998228D01*
X84754147Y-69153100D01*
X84661015Y-69292481D01*
X84542481Y-69411015D01*
X84403100Y-69504147D01*
X84248228Y-69568297D01*
X84083816Y-69601000D01*
X83916184Y-69601000D01*
X83751772Y-69568297D01*
X83596900Y-69504147D01*
X83457519Y-69411015D01*
X83338985Y-69292481D01*
X83245853Y-69153100D01*
X83181703Y-68998228D01*
X83149000Y-68833816D01*
X83149000Y-68666184D01*
X83181703Y-68501772D01*
X83245853Y-68346900D01*
X83338985Y-68207519D01*
X83457519Y-68088985D01*
X83596900Y-67995853D01*
X83751772Y-67931703D01*
X83916184Y-67899000D01*
X84083816Y-67899000D01*
X84248228Y-67931703D01*
X84248228Y-67931703D01*
G37*
G36*
X133536823Y-67791313D02*
G01*
X133697242Y-67839976D01*
X133807668Y-67899000D01*
X133845078Y-67918996D01*
X133974659Y-68025341D01*
X134081004Y-68154922D01*
X134081005Y-68154924D01*
X134160024Y-68302758D01*
X134208687Y-68463177D01*
X134225117Y-68630000D01*
X134208687Y-68796823D01*
X134160024Y-68957242D01*
X134138116Y-68998229D01*
X134081004Y-69105078D01*
X133974659Y-69234659D01*
X133845078Y-69341004D01*
X133845076Y-69341005D01*
X133697242Y-69420024D01*
X133536823Y-69468687D01*
X133411804Y-69481000D01*
X133328196Y-69481000D01*
X133203177Y-69468687D01*
X133042758Y-69420024D01*
X132894924Y-69341005D01*
X132894922Y-69341004D01*
X132765341Y-69234659D01*
X132658996Y-69105078D01*
X132601884Y-68998229D01*
X132579976Y-68957242D01*
X132531313Y-68796823D01*
X132514883Y-68630000D01*
X132531313Y-68463177D01*
X132579976Y-68302758D01*
X132658995Y-68154924D01*
X132658996Y-68154922D01*
X132765341Y-68025341D01*
X132894922Y-67918996D01*
X132932332Y-67899000D01*
X133042758Y-67839976D01*
X133203177Y-67791313D01*
X133328196Y-67779000D01*
X133411804Y-67779000D01*
X133536823Y-67791313D01*
X133536823Y-67791313D01*
G37*
G36*
X128456823Y-67791313D02*
G01*
X128617242Y-67839976D01*
X128727668Y-67899000D01*
X128765078Y-67918996D01*
X128894659Y-68025341D01*
X129001004Y-68154922D01*
X129001005Y-68154924D01*
X129080024Y-68302758D01*
X129128687Y-68463177D01*
X129145117Y-68630000D01*
X129128687Y-68796823D01*
X129080024Y-68957242D01*
X129058116Y-68998229D01*
X129001004Y-69105078D01*
X128894659Y-69234659D01*
X128765078Y-69341004D01*
X128765076Y-69341005D01*
X128617242Y-69420024D01*
X128456823Y-69468687D01*
X128331804Y-69481000D01*
X128248196Y-69481000D01*
X128123177Y-69468687D01*
X127962758Y-69420024D01*
X127814924Y-69341005D01*
X127814922Y-69341004D01*
X127685341Y-69234659D01*
X127578996Y-69105078D01*
X127521884Y-68998229D01*
X127499976Y-68957242D01*
X127451313Y-68796823D01*
X127434883Y-68630000D01*
X127451313Y-68463177D01*
X127499976Y-68302758D01*
X127578995Y-68154924D01*
X127578996Y-68154922D01*
X127685341Y-68025341D01*
X127814922Y-67918996D01*
X127852332Y-67899000D01*
X127962758Y-67839976D01*
X128123177Y-67791313D01*
X128248196Y-67779000D01*
X128331804Y-67779000D01*
X128456823Y-67791313D01*
X128456823Y-67791313D01*
G37*
G36*
X130996823Y-67791313D02*
G01*
X131157242Y-67839976D01*
X131267668Y-67899000D01*
X131305078Y-67918996D01*
X131434659Y-68025341D01*
X131541004Y-68154922D01*
X131541005Y-68154924D01*
X131620024Y-68302758D01*
X131668687Y-68463177D01*
X131685117Y-68630000D01*
X131668687Y-68796823D01*
X131620024Y-68957242D01*
X131598116Y-68998229D01*
X131541004Y-69105078D01*
X131434659Y-69234659D01*
X131305078Y-69341004D01*
X131305076Y-69341005D01*
X131157242Y-69420024D01*
X130996823Y-69468687D01*
X130871804Y-69481000D01*
X130788196Y-69481000D01*
X130663177Y-69468687D01*
X130502758Y-69420024D01*
X130354924Y-69341005D01*
X130354922Y-69341004D01*
X130225341Y-69234659D01*
X130118996Y-69105078D01*
X130061884Y-68998229D01*
X130039976Y-68957242D01*
X129991313Y-68796823D01*
X129974883Y-68630000D01*
X129991313Y-68463177D01*
X130039976Y-68302758D01*
X130118995Y-68154924D01*
X130118996Y-68154922D01*
X130225341Y-68025341D01*
X130354922Y-67918996D01*
X130392332Y-67899000D01*
X130502758Y-67839976D01*
X130663177Y-67791313D01*
X130788196Y-67779000D01*
X130871804Y-67779000D01*
X130996823Y-67791313D01*
X130996823Y-67791313D01*
G37*
G36*
X125916823Y-67791313D02*
G01*
X126077242Y-67839976D01*
X126187668Y-67899000D01*
X126225078Y-67918996D01*
X126354659Y-68025341D01*
X126461004Y-68154922D01*
X126461005Y-68154924D01*
X126540024Y-68302758D01*
X126588687Y-68463177D01*
X126605117Y-68630000D01*
X126588687Y-68796823D01*
X126540024Y-68957242D01*
X126518116Y-68998229D01*
X126461004Y-69105078D01*
X126354659Y-69234659D01*
X126225078Y-69341004D01*
X126225076Y-69341005D01*
X126077242Y-69420024D01*
X125916823Y-69468687D01*
X125791804Y-69481000D01*
X125708196Y-69481000D01*
X125583177Y-69468687D01*
X125422758Y-69420024D01*
X125274924Y-69341005D01*
X125274922Y-69341004D01*
X125145341Y-69234659D01*
X125038996Y-69105078D01*
X124981884Y-68998229D01*
X124959976Y-68957242D01*
X124911313Y-68796823D01*
X124894883Y-68630000D01*
X124911313Y-68463177D01*
X124959976Y-68302758D01*
X125038995Y-68154924D01*
X125038996Y-68154922D01*
X125145341Y-68025341D01*
X125274922Y-67918996D01*
X125312332Y-67899000D01*
X125422758Y-67839976D01*
X125583177Y-67791313D01*
X125708196Y-67779000D01*
X125791804Y-67779000D01*
X125916823Y-67791313D01*
X125916823Y-67791313D01*
G37*
G36*
X96166823Y-65621313D02*
G01*
X96327242Y-65669976D01*
X96459906Y-65740886D01*
X96475078Y-65748996D01*
X96604659Y-65855341D01*
X96711004Y-65984922D01*
X96711005Y-65984924D01*
X96790024Y-66132758D01*
X96838687Y-66293177D01*
X96855117Y-66460000D01*
X96838687Y-66626823D01*
X96790024Y-66787242D01*
X96723866Y-66911015D01*
X96711004Y-66935078D01*
X96604659Y-67064659D01*
X96475078Y-67171004D01*
X96475076Y-67171005D01*
X96327242Y-67250024D01*
X96166823Y-67298687D01*
X96041804Y-67311000D01*
X95958196Y-67311000D01*
X95833177Y-67298687D01*
X95672758Y-67250024D01*
X95524924Y-67171005D01*
X95524922Y-67171004D01*
X95395341Y-67064659D01*
X95288996Y-66935078D01*
X95276134Y-66911015D01*
X95209976Y-66787242D01*
X95161313Y-66626823D01*
X95144883Y-66460000D01*
X95161313Y-66293177D01*
X95209976Y-66132758D01*
X95288995Y-65984924D01*
X95288996Y-65984922D01*
X95395341Y-65855341D01*
X95524922Y-65748996D01*
X95540094Y-65740886D01*
X95672758Y-65669976D01*
X95833177Y-65621313D01*
X95958196Y-65609000D01*
X96041804Y-65609000D01*
X96166823Y-65621313D01*
X96166823Y-65621313D01*
G37*
G36*
X88546823Y-65621313D02*
G01*
X88707242Y-65669976D01*
X88839906Y-65740886D01*
X88855078Y-65748996D01*
X88984659Y-65855341D01*
X89091004Y-65984922D01*
X89091005Y-65984924D01*
X89170024Y-66132758D01*
X89218687Y-66293177D01*
X89235117Y-66460000D01*
X89218687Y-66626823D01*
X89170024Y-66787242D01*
X89103866Y-66911015D01*
X89091004Y-66935078D01*
X88984659Y-67064659D01*
X88855078Y-67171004D01*
X88855076Y-67171005D01*
X88707242Y-67250024D01*
X88546823Y-67298687D01*
X88421804Y-67311000D01*
X88338196Y-67311000D01*
X88213177Y-67298687D01*
X88052758Y-67250024D01*
X87904924Y-67171005D01*
X87904922Y-67171004D01*
X87775341Y-67064659D01*
X87668996Y-66935078D01*
X87656134Y-66911015D01*
X87589976Y-66787242D01*
X87541313Y-66626823D01*
X87524883Y-66460000D01*
X87541313Y-66293177D01*
X87589976Y-66132758D01*
X87668995Y-65984924D01*
X87668996Y-65984922D01*
X87775341Y-65855341D01*
X87904922Y-65748996D01*
X87920094Y-65740886D01*
X88052758Y-65669976D01*
X88213177Y-65621313D01*
X88338196Y-65609000D01*
X88421804Y-65609000D01*
X88546823Y-65621313D01*
X88546823Y-65621313D01*
G37*
G36*
X84248228Y-65431703D02*
G01*
X84403100Y-65495853D01*
X84542481Y-65588985D01*
X84661015Y-65707519D01*
X84754147Y-65846900D01*
X84818297Y-66001772D01*
X84851000Y-66166184D01*
X84851000Y-66333816D01*
X84818297Y-66498228D01*
X84754147Y-66653100D01*
X84661015Y-66792481D01*
X84542481Y-66911015D01*
X84403100Y-67004147D01*
X84248228Y-67068297D01*
X84083816Y-67101000D01*
X83916184Y-67101000D01*
X83751772Y-67068297D01*
X83596900Y-67004147D01*
X83457519Y-66911015D01*
X83338985Y-66792481D01*
X83245853Y-66653100D01*
X83181703Y-66498228D01*
X83149000Y-66333816D01*
X83149000Y-66166184D01*
X83181703Y-66001772D01*
X83245853Y-65846900D01*
X83338985Y-65707519D01*
X83457519Y-65588985D01*
X83596900Y-65495853D01*
X83751772Y-65431703D01*
X83916184Y-65399000D01*
X84083816Y-65399000D01*
X84248228Y-65431703D01*
X84248228Y-65431703D01*
G37*
G36*
X78916823Y-65001313D02*
G01*
X79077242Y-65049976D01*
X79209906Y-65120886D01*
X79225078Y-65128996D01*
X79354659Y-65235341D01*
X79461004Y-65364922D01*
X79461005Y-65364924D01*
X79540024Y-65512758D01*
X79588687Y-65673177D01*
X79605117Y-65840000D01*
X79588687Y-66006823D01*
X79540024Y-66167242D01*
X79472711Y-66293175D01*
X79461004Y-66315078D01*
X79354659Y-66444659D01*
X79225078Y-66551004D01*
X79225076Y-66551005D01*
X79077242Y-66630024D01*
X78916823Y-66678687D01*
X78791804Y-66691000D01*
X78708196Y-66691000D01*
X78583177Y-66678687D01*
X78422758Y-66630024D01*
X78274924Y-66551005D01*
X78274922Y-66551004D01*
X78145341Y-66444659D01*
X78038996Y-66315078D01*
X78027289Y-66293175D01*
X77959976Y-66167242D01*
X77911313Y-66006823D01*
X77894883Y-65840000D01*
X77911313Y-65673177D01*
X77959976Y-65512758D01*
X78038995Y-65364924D01*
X78038996Y-65364922D01*
X78145341Y-65235341D01*
X78274922Y-65128996D01*
X78290094Y-65120886D01*
X78422758Y-65049976D01*
X78583177Y-65001313D01*
X78708196Y-64989000D01*
X78791804Y-64989000D01*
X78916823Y-65001313D01*
X78916823Y-65001313D01*
G37*
G36*
X125998228Y-63681703D02*
G01*
X126153100Y-63745853D01*
X126292481Y-63838985D01*
X126411015Y-63957519D01*
X126504147Y-64096900D01*
X126568297Y-64251772D01*
X126601000Y-64416184D01*
X126601000Y-64583816D01*
X126568297Y-64748228D01*
X126504147Y-64903100D01*
X126411015Y-65042481D01*
X126292481Y-65161015D01*
X126153100Y-65254147D01*
X125998228Y-65318297D01*
X125833816Y-65351000D01*
X125666184Y-65351000D01*
X125501772Y-65318297D01*
X125346900Y-65254147D01*
X125207519Y-65161015D01*
X125088985Y-65042481D01*
X124995853Y-64903100D01*
X124931703Y-64748228D01*
X124899000Y-64583816D01*
X124899000Y-64416184D01*
X124931703Y-64251772D01*
X124995853Y-64096900D01*
X125088985Y-63957519D01*
X125207519Y-63838985D01*
X125346900Y-63745853D01*
X125501772Y-63681703D01*
X125666184Y-63649000D01*
X125833816Y-63649000D01*
X125998228Y-63681703D01*
X125998228Y-63681703D01*
G37*
G36*
X128498228Y-63681703D02*
G01*
X128653100Y-63745853D01*
X128792481Y-63838985D01*
X128911015Y-63957519D01*
X129004147Y-64096900D01*
X129068297Y-64251772D01*
X129101000Y-64416184D01*
X129101000Y-64583816D01*
X129068297Y-64748228D01*
X129004147Y-64903100D01*
X128911015Y-65042481D01*
X128792481Y-65161015D01*
X128653100Y-65254147D01*
X128498228Y-65318297D01*
X128333816Y-65351000D01*
X128166184Y-65351000D01*
X128001772Y-65318297D01*
X127846900Y-65254147D01*
X127707519Y-65161015D01*
X127588985Y-65042481D01*
X127495853Y-64903100D01*
X127431703Y-64748228D01*
X127399000Y-64583816D01*
X127399000Y-64416184D01*
X127431703Y-64251772D01*
X127495853Y-64096900D01*
X127588985Y-63957519D01*
X127707519Y-63838985D01*
X127846900Y-63745853D01*
X128001772Y-63681703D01*
X128166184Y-63649000D01*
X128333816Y-63649000D01*
X128498228Y-63681703D01*
X128498228Y-63681703D01*
G37*
G36*
X96166823Y-63081313D02*
G01*
X96327242Y-63129976D01*
X96459906Y-63200886D01*
X96475078Y-63208996D01*
X96604659Y-63315341D01*
X96711004Y-63444922D01*
X96711005Y-63444924D01*
X96790024Y-63592758D01*
X96838687Y-63753177D01*
X96855117Y-63920000D01*
X96838687Y-64086823D01*
X96790024Y-64247242D01*
X96786952Y-64252989D01*
X96711004Y-64395078D01*
X96604659Y-64524659D01*
X96475078Y-64631004D01*
X96475076Y-64631005D01*
X96327242Y-64710024D01*
X96166823Y-64758687D01*
X96041804Y-64771000D01*
X95958196Y-64771000D01*
X95833177Y-64758687D01*
X95672758Y-64710024D01*
X95524924Y-64631005D01*
X95524922Y-64631004D01*
X95395341Y-64524659D01*
X95288996Y-64395078D01*
X95213048Y-64252989D01*
X95209976Y-64247242D01*
X95161313Y-64086823D01*
X95144883Y-63920000D01*
X95161313Y-63753177D01*
X95209976Y-63592758D01*
X95288995Y-63444924D01*
X95288996Y-63444922D01*
X95395341Y-63315341D01*
X95524922Y-63208996D01*
X95540094Y-63200886D01*
X95672758Y-63129976D01*
X95833177Y-63081313D01*
X95958196Y-63069000D01*
X96041804Y-63069000D01*
X96166823Y-63081313D01*
X96166823Y-63081313D01*
G37*
G36*
X88546823Y-63081313D02*
G01*
X88707242Y-63129976D01*
X88839906Y-63200886D01*
X88855078Y-63208996D01*
X88984659Y-63315341D01*
X89091004Y-63444922D01*
X89091005Y-63444924D01*
X89170024Y-63592758D01*
X89218687Y-63753177D01*
X89235117Y-63920000D01*
X89218687Y-64086823D01*
X89170024Y-64247242D01*
X89166952Y-64252989D01*
X89091004Y-64395078D01*
X88984659Y-64524659D01*
X88855078Y-64631004D01*
X88855076Y-64631005D01*
X88707242Y-64710024D01*
X88546823Y-64758687D01*
X88421804Y-64771000D01*
X88338196Y-64771000D01*
X88213177Y-64758687D01*
X88052758Y-64710024D01*
X87904924Y-64631005D01*
X87904922Y-64631004D01*
X87775341Y-64524659D01*
X87668996Y-64395078D01*
X87593048Y-64252989D01*
X87589976Y-64247242D01*
X87541313Y-64086823D01*
X87524883Y-63920000D01*
X87541313Y-63753177D01*
X87589976Y-63592758D01*
X87668995Y-63444924D01*
X87668996Y-63444922D01*
X87775341Y-63315341D01*
X87904922Y-63208996D01*
X87920094Y-63200886D01*
X88052758Y-63129976D01*
X88213177Y-63081313D01*
X88338196Y-63069000D01*
X88421804Y-63069000D01*
X88546823Y-63081313D01*
X88546823Y-63081313D01*
G37*
G36*
X106150442Y-62855518D02*
G01*
X106216627Y-62862037D01*
X106386466Y-62913557D01*
X106542991Y-62997222D01*
X106578729Y-63026552D01*
X106680186Y-63109814D01*
X106761581Y-63208996D01*
X106792778Y-63247009D01*
X106876443Y-63403534D01*
X106927963Y-63573373D01*
X106945359Y-63750000D01*
X106927963Y-63926627D01*
X106876443Y-64096466D01*
X106792778Y-64252991D01*
X106763448Y-64288729D01*
X106680186Y-64390186D01*
X106578729Y-64473448D01*
X106542991Y-64502778D01*
X106386466Y-64586443D01*
X106216627Y-64637963D01*
X106150442Y-64644482D01*
X106084260Y-64651000D01*
X105995740Y-64651000D01*
X105929558Y-64644482D01*
X105863373Y-64637963D01*
X105693534Y-64586443D01*
X105537009Y-64502778D01*
X105501271Y-64473448D01*
X105399814Y-64390186D01*
X105316552Y-64288729D01*
X105287222Y-64252991D01*
X105203557Y-64096466D01*
X105152037Y-63926627D01*
X105134641Y-63750000D01*
X105152037Y-63573373D01*
X105203557Y-63403534D01*
X105287222Y-63247009D01*
X105318419Y-63208996D01*
X105399814Y-63109814D01*
X105501271Y-63026552D01*
X105537009Y-62997222D01*
X105693534Y-62913557D01*
X105863373Y-62862037D01*
X105929558Y-62855518D01*
X105995740Y-62849000D01*
X106084260Y-62849000D01*
X106150442Y-62855518D01*
X106150442Y-62855518D01*
G37*
G36*
X104401000Y-64651000D02*
G01*
X102599000Y-64651000D01*
X102599000Y-62849000D01*
X104401000Y-62849000D01*
X104401000Y-64651000D01*
X104401000Y-64651000D01*
G37*
G36*
X141401000Y-63651000D02*
G01*
X139599000Y-63651000D01*
X139599000Y-61849000D01*
X141401000Y-61849000D01*
X141401000Y-63651000D01*
X141401000Y-63651000D01*
G37*
G36*
X117166823Y-60751313D02*
G01*
X117327242Y-60799976D01*
X117459906Y-60870886D01*
X117475078Y-60878996D01*
X117604659Y-60985341D01*
X117711004Y-61114922D01*
X117711005Y-61114924D01*
X117790024Y-61262758D01*
X117838687Y-61423177D01*
X117855117Y-61590000D01*
X117838687Y-61756823D01*
X117790024Y-61917242D01*
X117753989Y-61984659D01*
X117711004Y-62065078D01*
X117604659Y-62194659D01*
X117475078Y-62301004D01*
X117475076Y-62301005D01*
X117327242Y-62380024D01*
X117166823Y-62428687D01*
X117041804Y-62441000D01*
X116958196Y-62441000D01*
X116833177Y-62428687D01*
X116672758Y-62380024D01*
X116524924Y-62301005D01*
X116524922Y-62301004D01*
X116395341Y-62194659D01*
X116288996Y-62065078D01*
X116246011Y-61984659D01*
X116209976Y-61917242D01*
X116161313Y-61756823D01*
X116144883Y-61590000D01*
X116161313Y-61423177D01*
X116209976Y-61262758D01*
X116288995Y-61114924D01*
X116288996Y-61114922D01*
X116395341Y-60985341D01*
X116524922Y-60878996D01*
X116540094Y-60870886D01*
X116672758Y-60799976D01*
X116833177Y-60751313D01*
X116958196Y-60739000D01*
X117041804Y-60739000D01*
X117166823Y-60751313D01*
X117166823Y-60751313D01*
G37*
G36*
X96166823Y-60541313D02*
G01*
X96327242Y-60589976D01*
X96459906Y-60660886D01*
X96475078Y-60668996D01*
X96604659Y-60775341D01*
X96711004Y-60904922D01*
X96711005Y-60904924D01*
X96790024Y-61052758D01*
X96838687Y-61213177D01*
X96855117Y-61380000D01*
X96838687Y-61546823D01*
X96790024Y-61707242D01*
X96763522Y-61756823D01*
X96711004Y-61855078D01*
X96604659Y-61984659D01*
X96475078Y-62091004D01*
X96475076Y-62091005D01*
X96327242Y-62170024D01*
X96166823Y-62218687D01*
X96041804Y-62231000D01*
X95958196Y-62231000D01*
X95833177Y-62218687D01*
X95672758Y-62170024D01*
X95524924Y-62091005D01*
X95524922Y-62091004D01*
X95395341Y-61984659D01*
X95288996Y-61855078D01*
X95236478Y-61756823D01*
X95209976Y-61707242D01*
X95161313Y-61546823D01*
X95144883Y-61380000D01*
X95161313Y-61213177D01*
X95209976Y-61052758D01*
X95288995Y-60904924D01*
X95288996Y-60904922D01*
X95395341Y-60775341D01*
X95524922Y-60668996D01*
X95540094Y-60660886D01*
X95672758Y-60589976D01*
X95833177Y-60541313D01*
X95958196Y-60529000D01*
X96041804Y-60529000D01*
X96166823Y-60541313D01*
X96166823Y-60541313D01*
G37*
G36*
X88546823Y-60541313D02*
G01*
X88707242Y-60589976D01*
X88839906Y-60660886D01*
X88855078Y-60668996D01*
X88984659Y-60775341D01*
X89091004Y-60904922D01*
X89091005Y-60904924D01*
X89170024Y-61052758D01*
X89218687Y-61213177D01*
X89235117Y-61380000D01*
X89218687Y-61546823D01*
X89170024Y-61707242D01*
X89143522Y-61756823D01*
X89091004Y-61855078D01*
X88984659Y-61984659D01*
X88855078Y-62091004D01*
X88855076Y-62091005D01*
X88707242Y-62170024D01*
X88546823Y-62218687D01*
X88421804Y-62231000D01*
X88338196Y-62231000D01*
X88213177Y-62218687D01*
X88052758Y-62170024D01*
X87904924Y-62091005D01*
X87904922Y-62091004D01*
X87775341Y-61984659D01*
X87668996Y-61855078D01*
X87616478Y-61756823D01*
X87589976Y-61707242D01*
X87541313Y-61546823D01*
X87524883Y-61380000D01*
X87541313Y-61213177D01*
X87589976Y-61052758D01*
X87668995Y-60904924D01*
X87668996Y-60904922D01*
X87775341Y-60775341D01*
X87904922Y-60668996D01*
X87920094Y-60660886D01*
X88052758Y-60589976D01*
X88213177Y-60541313D01*
X88338196Y-60529000D01*
X88421804Y-60529000D01*
X88546823Y-60541313D01*
X88546823Y-60541313D01*
G37*
G36*
X141431632Y-50604677D02*
G01*
X141737005Y-50731167D01*
X142168868Y-50910050D01*
X142832362Y-51353383D01*
X143396617Y-51917638D01*
X143839950Y-52581132D01*
X143983012Y-52926515D01*
X144145323Y-53318368D01*
X144301000Y-54101010D01*
X144301000Y-54898990D01*
X144145323Y-55681632D01*
X144018833Y-55987005D01*
X143839950Y-56418868D01*
X143396617Y-57082362D01*
X142832362Y-57646617D01*
X142168868Y-58089950D01*
X141737005Y-58268833D01*
X141431632Y-58395323D01*
X140648990Y-58551000D01*
X139851010Y-58551000D01*
X139068368Y-58395323D01*
X138762995Y-58268833D01*
X138331132Y-58089950D01*
X137667638Y-57646617D01*
X137103383Y-57082362D01*
X136660050Y-56418868D01*
X136481167Y-55987005D01*
X136354677Y-55681632D01*
X136199000Y-54898990D01*
X136199000Y-54101010D01*
X136354677Y-53318368D01*
X136516988Y-52926515D01*
X136660050Y-52581132D01*
X137103383Y-51917638D01*
X137667638Y-51353383D01*
X138331132Y-50910050D01*
X138762995Y-50731167D01*
X139068368Y-50604677D01*
X139851010Y-50449000D01*
X140648990Y-50449000D01*
X141431632Y-50604677D01*
X141431632Y-50604677D01*
G37*
G36*
X80931632Y-50604677D02*
G01*
X81237005Y-50731167D01*
X81668868Y-50910050D01*
X82332362Y-51353383D01*
X82896617Y-51917638D01*
X83339950Y-52581132D01*
X83483012Y-52926515D01*
X83645323Y-53318368D01*
X83801000Y-54101010D01*
X83801000Y-54898990D01*
X83645323Y-55681632D01*
X83518833Y-55987005D01*
X83339950Y-56418868D01*
X82896617Y-57082362D01*
X82332362Y-57646617D01*
X81668868Y-58089950D01*
X81237005Y-58268833D01*
X80931632Y-58395323D01*
X80148990Y-58551000D01*
X79351010Y-58551000D01*
X78568368Y-58395323D01*
X78262995Y-58268833D01*
X77831132Y-58089950D01*
X77167638Y-57646617D01*
X76603383Y-57082362D01*
X76160050Y-56418868D01*
X75981167Y-55987005D01*
X75854677Y-55681632D01*
X75699000Y-54898990D01*
X75699000Y-54101010D01*
X75854677Y-53318368D01*
X76016988Y-52926515D01*
X76160050Y-52581132D01*
X76603383Y-51917638D01*
X77167638Y-51353383D01*
X77831132Y-50910050D01*
X78262995Y-50731167D01*
X78568368Y-50604677D01*
X79351010Y-50449000D01*
X80148990Y-50449000D01*
X80931632Y-50604677D01*
X80931632Y-50604677D01*
G37*
G36*
X95260547Y-52862326D02*
G01*
X95434156Y-52914990D01*
X95434158Y-52914991D01*
X95594155Y-53000511D01*
X95734397Y-53115603D01*
X95813729Y-53212271D01*
X95849489Y-53255844D01*
X95935010Y-53415843D01*
X95987674Y-53589452D01*
X96001000Y-53724756D01*
X96001000Y-54275243D01*
X95987674Y-54410548D01*
X95935010Y-54584157D01*
X95849489Y-54744156D01*
X95813729Y-54787729D01*
X95734397Y-54884397D01*
X95637729Y-54963729D01*
X95594156Y-54999489D01*
X95434157Y-55085010D01*
X95260548Y-55137674D01*
X95080000Y-55155456D01*
X94899453Y-55137674D01*
X94725844Y-55085010D01*
X94565845Y-54999489D01*
X94522272Y-54963729D01*
X94425604Y-54884397D01*
X94310513Y-54744157D01*
X94310512Y-54744155D01*
X94224990Y-54584157D01*
X94172326Y-54410548D01*
X94159000Y-54275244D01*
X94159000Y-53724757D01*
X94172326Y-53589453D01*
X94224990Y-53415844D01*
X94310511Y-53255845D01*
X94310512Y-53255844D01*
X94425603Y-53115603D01*
X94551388Y-53012375D01*
X94565844Y-53000511D01*
X94725843Y-52914990D01*
X94899452Y-52862326D01*
X95080000Y-52844544D01*
X95260547Y-52862326D01*
X95260547Y-52862326D01*
G37*
G36*
X97800547Y-52862326D02*
G01*
X97974156Y-52914990D01*
X97974158Y-52914991D01*
X98134155Y-53000511D01*
X98274397Y-53115603D01*
X98353729Y-53212271D01*
X98389489Y-53255844D01*
X98475010Y-53415843D01*
X98527674Y-53589452D01*
X98541000Y-53724756D01*
X98541000Y-54275243D01*
X98527674Y-54410548D01*
X98475010Y-54584157D01*
X98389489Y-54744156D01*
X98353729Y-54787729D01*
X98274397Y-54884397D01*
X98177729Y-54963729D01*
X98134156Y-54999489D01*
X97974157Y-55085010D01*
X97800548Y-55137674D01*
X97620000Y-55155456D01*
X97439453Y-55137674D01*
X97265844Y-55085010D01*
X97105845Y-54999489D01*
X97062272Y-54963729D01*
X96965604Y-54884397D01*
X96850513Y-54744157D01*
X96850512Y-54744155D01*
X96764990Y-54584157D01*
X96712326Y-54410548D01*
X96699000Y-54275244D01*
X96699000Y-53724757D01*
X96712326Y-53589453D01*
X96764990Y-53415844D01*
X96850511Y-53255845D01*
X96850512Y-53255844D01*
X96965603Y-53115603D01*
X97091388Y-53012375D01*
X97105844Y-53000511D01*
X97265843Y-52914990D01*
X97439452Y-52862326D01*
X97620000Y-52844544D01*
X97800547Y-52862326D01*
X97800547Y-52862326D01*
G37*
G36*
X92720547Y-52862326D02*
G01*
X92894156Y-52914990D01*
X92894158Y-52914991D01*
X93054155Y-53000511D01*
X93194397Y-53115603D01*
X93273729Y-53212271D01*
X93309489Y-53255844D01*
X93395010Y-53415843D01*
X93447674Y-53589452D01*
X93461000Y-53724756D01*
X93461000Y-54275243D01*
X93447674Y-54410548D01*
X93395010Y-54584157D01*
X93309489Y-54744156D01*
X93273729Y-54787729D01*
X93194397Y-54884397D01*
X93097729Y-54963729D01*
X93054156Y-54999489D01*
X92894157Y-55085010D01*
X92720548Y-55137674D01*
X92540000Y-55155456D01*
X92359453Y-55137674D01*
X92185844Y-55085010D01*
X92025845Y-54999489D01*
X91982272Y-54963729D01*
X91885604Y-54884397D01*
X91770513Y-54744157D01*
X91770512Y-54744155D01*
X91684990Y-54584157D01*
X91632326Y-54410548D01*
X91619000Y-54275244D01*
X91619000Y-53724757D01*
X91632326Y-53589453D01*
X91684990Y-53415844D01*
X91770511Y-53255845D01*
X91770512Y-53255844D01*
X91885603Y-53115603D01*
X92011388Y-53012375D01*
X92025844Y-53000511D01*
X92185843Y-52914990D01*
X92359452Y-52862326D01*
X92540000Y-52844544D01*
X92720547Y-52862326D01*
X92720547Y-52862326D01*
G37*
G36*
X90779561Y-52852966D02*
G01*
X90812383Y-52862923D01*
X90842632Y-52879092D01*
X90869148Y-52900852D01*
X90890908Y-52927368D01*
X90907077Y-52957617D01*
X90917034Y-52990439D01*
X90921000Y-53030713D01*
X90921000Y-54969287D01*
X90917034Y-55009561D01*
X90907077Y-55042383D01*
X90890908Y-55072632D01*
X90869148Y-55099148D01*
X90842632Y-55120908D01*
X90812383Y-55137077D01*
X90779561Y-55147034D01*
X90739287Y-55151000D01*
X89260713Y-55151000D01*
X89220439Y-55147034D01*
X89187617Y-55137077D01*
X89157368Y-55120908D01*
X89130852Y-55099148D01*
X89109092Y-55072632D01*
X89092923Y-55042383D01*
X89082966Y-55009561D01*
X89079000Y-54969287D01*
X89079000Y-53030713D01*
X89082966Y-52990439D01*
X89092923Y-52957617D01*
X89109092Y-52927368D01*
X89130852Y-52900852D01*
X89157368Y-52879092D01*
X89187617Y-52862923D01*
X89220439Y-52852966D01*
X89260713Y-52849000D01*
X90739287Y-52849000D01*
X90779561Y-52852966D01*
X90779561Y-52852966D01*
G37*
M02*
