M48
; DRILL file {KiCad 5.1.4-e60b266~84~ubuntu18.04.1} date mar 02 jun 2020 14:49:38 -03
; FORMAT={-:-/ absolute / inch / decimal}
; #@! TF.CreationDate,2020-06-02T14:49:38-03:00
; #@! TF.GenerationSoftware,Kicad,Pcbnew,5.1.4-e60b266~84~ubuntu18.04.1
; #@! TF.FileFunction,Plated,1,2,PTH
FMAT,2
INCH
T1C0.0236
T2C0.0295
T3C0.0315
T4C0.0354
T5C0.0394
T6C0.0472
T7C0.1575
%
G90
G05
T1
X3.0217Y-2.1457
X3.0562Y-2.0622
X3.0562Y-2.2292
X3.1398Y-2.0276
X3.1398Y-2.2638
X3.2233Y-2.0622
X3.2233Y-2.2292
X3.2579Y-2.1457
X5.4035Y-4.1339
X5.4381Y-4.0503
X5.4381Y-4.2174
X5.5217Y-4.0157
X5.5217Y-4.252
X5.6052Y-4.0503
X5.6052Y-4.2174
X5.6398Y-4.1339
X3.0217Y-4.1339
X3.0562Y-4.0503
X3.0562Y-4.2174
X3.1398Y-4.0157
X3.1398Y-4.252
X3.2233Y-4.0503
X3.2233Y-4.2174
X3.2579Y-4.1339
X5.4035Y-2.1457
X5.4381Y-2.0622
X5.4381Y-2.2292
X5.5217Y-2.0276
X5.5217Y-2.2638
X5.6052Y-2.0622
X5.6052Y-2.2292
X5.6398Y-2.1457
T2
X4.5471Y-3.0315
X4.6098Y-3.0311
X4.6724Y-3.0311
T3
X4.6063Y-2.4248
X4.6063Y-2.8248
X5.2559Y-3.2382
X5.3543Y-3.2382
X4.4425Y-3.2185
X4.8425Y-3.2185
X3.4795Y-2.4165
X3.4795Y-2.5165
X3.4795Y-2.6165
X3.4795Y-2.7165
X3.7795Y-2.4165
X3.7795Y-2.5165
X3.7795Y-2.6165
X3.7795Y-2.7165
X4.9508Y-2.5394
X5.0492Y-2.5394
X3.5886Y-3.1811
X3.5886Y-3.6811
X3.6886Y-3.1811
X3.6886Y-3.6811
X3.7886Y-3.1811
X3.7886Y-3.6811
X3.8886Y-3.1811
X3.8886Y-3.6811
X3.9886Y-3.1811
X3.9886Y-3.6811
X4.0886Y-3.1811
X4.0886Y-3.6811
X4.1886Y-3.1811
X4.1886Y-3.6811
X4.2886Y-3.1811
X4.2886Y-3.6811
X3.3071Y-2.6083
X3.3071Y-2.7067
X5.2461Y-3.3909
X5.2461Y-3.6909
X5.3461Y-3.3909
X5.3461Y-3.6909
X5.4461Y-3.3909
X5.4461Y-3.6909
X5.5461Y-3.3909
X5.5461Y-3.6909
X4.75Y-3.9724
X4.8484Y-3.9724
X3.1004Y-2.5921
X3.1004Y-2.9921
X4.9508Y-2.702
X4.9508Y-3.002
X5.0508Y-2.702
X5.0508Y-3.002
X5.1508Y-2.702
X5.1508Y-3.002
X5.2508Y-2.702
X5.2508Y-3.002
T4
X3.0594Y-3.2087
X3.1594Y-3.2087
T5
X4.4882Y-3.4547
X4.4882Y-3.5547
X4.0732Y-2.9626
X4.1732Y-2.9626
X4.9508Y-3.4547
X4.9508Y-3.5547
X5.5315Y-2.4705
X4.7244Y-3.4547
X4.7244Y-3.5547
X4.0748Y-2.7362
X4.1748Y-2.7362
X4.0748Y-2.5098
X4.1748Y-2.5098
X3.5098Y-3.8701
T6
X3.1594Y-3.5236
X3.1594Y-3.7236
X3.8508Y-4.1535
X3.9508Y-4.1535
X3.522Y-4.1535
X3.622Y-4.1535
X3.5433Y-2.126
X3.6433Y-2.126
X3.7433Y-2.126
X3.8433Y-2.126
X5.5413Y-2.7598
X5.5413Y-2.8598
X5.5413Y-2.9598
X5.5413Y-3.0598
X4.25Y-4.1142
X4.45Y-4.1142
T7
X3.1398Y-2.1457
X5.5217Y-4.1339
X3.1398Y-4.1339
X5.5217Y-2.1457
T0
M30
