%TF.GenerationSoftware,KiCad,Pcbnew,5.1.4-e60b266~84~ubuntu18.04.1*%
%TF.CreationDate,2020-06-02T14:46:13-03:00*%
%TF.ProjectId,Driver Motor PaP_V2.0,44726976-6572-4204-9d6f-746f72205061,2.0*%
%TF.SameCoordinates,Original*%
%TF.FileFunction,Other,User*%
%FSLAX46Y46*%
G04 Gerber Fmt 4.6, Leading zero omitted, Abs format (unit mm)*
G04 Created by KiCad (PCBNEW 5.1.4-e60b266~84~ubuntu18.04.1) date 2020-06-02 14:46:13*
%MOMM*%
%LPD*%
G04 APERTURE LIST*
%ADD10C,0.050000*%
%ADD11C,0.150000*%
G04 APERTURE END LIST*
D10*
X75000000Y-109750000D02*
X75000000Y-49750000D01*
X145000000Y-109750000D02*
X75000000Y-109750000D01*
X145000000Y-49750000D02*
X145000000Y-109750000D01*
X75000000Y-49750000D02*
X145000000Y-49750000D01*
D11*
X106333333Y-32902380D02*
X106142857Y-32902380D01*
X106047619Y-32950000D01*
X106000000Y-32997619D01*
X105904761Y-33140476D01*
X105857142Y-33330952D01*
X105857142Y-33711904D01*
X105904761Y-33807142D01*
X105952380Y-33854761D01*
X106047619Y-33902380D01*
X106238095Y-33902380D01*
X106333333Y-33854761D01*
X106380952Y-33807142D01*
X106428571Y-33711904D01*
X106428571Y-33473809D01*
X106380952Y-33378571D01*
X106333333Y-33330952D01*
X106238095Y-33283333D01*
X106047619Y-33283333D01*
X105952380Y-33330952D01*
X105904761Y-33378571D01*
X105857142Y-33473809D01*
X106904761Y-33902380D02*
X107095238Y-33902380D01*
X107190476Y-33854761D01*
X107238095Y-33807142D01*
X107333333Y-33664285D01*
X107380952Y-33473809D01*
X107380952Y-33092857D01*
X107333333Y-32997619D01*
X107285714Y-32950000D01*
X107190476Y-32902380D01*
X107000000Y-32902380D01*
X106904761Y-32950000D01*
X106857142Y-32997619D01*
X106809523Y-33092857D01*
X106809523Y-33330952D01*
X106857142Y-33426190D01*
X106904761Y-33473809D01*
X107000000Y-33521428D01*
X107190476Y-33521428D01*
X107285714Y-33473809D01*
X107333333Y-33426190D01*
X107380952Y-33330952D01*
X107857142Y-33854761D02*
X107857142Y-33902380D01*
X107809523Y-33997619D01*
X107761904Y-34045238D01*
X108476190Y-32902380D02*
X108571428Y-32902380D01*
X108666666Y-32950000D01*
X108714285Y-32997619D01*
X108761904Y-33092857D01*
X108809523Y-33283333D01*
X108809523Y-33521428D01*
X108761904Y-33711904D01*
X108714285Y-33807142D01*
X108666666Y-33854761D01*
X108571428Y-33902380D01*
X108476190Y-33902380D01*
X108380952Y-33854761D01*
X108333333Y-33807142D01*
X108285714Y-33711904D01*
X108238095Y-33521428D01*
X108238095Y-33283333D01*
X108285714Y-33092857D01*
X108333333Y-32997619D01*
X108380952Y-32950000D01*
X108476190Y-32902380D01*
X109428571Y-32902380D02*
X109523809Y-32902380D01*
X109619047Y-32950000D01*
X109666666Y-32997619D01*
X109714285Y-33092857D01*
X109761904Y-33283333D01*
X109761904Y-33521428D01*
X109714285Y-33711904D01*
X109666666Y-33807142D01*
X109619047Y-33854761D01*
X109523809Y-33902380D01*
X109428571Y-33902380D01*
X109333333Y-33854761D01*
X109285714Y-33807142D01*
X109238095Y-33711904D01*
X109190476Y-33521428D01*
X109190476Y-33283333D01*
X109238095Y-33092857D01*
X109285714Y-32997619D01*
X109333333Y-32950000D01*
X109428571Y-32902380D01*
X110380952Y-32902380D02*
X110476190Y-32902380D01*
X110571428Y-32950000D01*
X110619047Y-32997619D01*
X110666666Y-33092857D01*
X110714285Y-33283333D01*
X110714285Y-33521428D01*
X110666666Y-33711904D01*
X110619047Y-33807142D01*
X110571428Y-33854761D01*
X110476190Y-33902380D01*
X110380952Y-33902380D01*
X110285714Y-33854761D01*
X110238095Y-33807142D01*
X110190476Y-33711904D01*
X110142857Y-33521428D01*
X110142857Y-33283333D01*
X110190476Y-33092857D01*
X110238095Y-32997619D01*
X110285714Y-32950000D01*
X110380952Y-32902380D01*
X111904761Y-33902380D02*
X111904761Y-33235714D01*
X111904761Y-33330952D02*
X111952380Y-33283333D01*
X112047619Y-33235714D01*
X112190476Y-33235714D01*
X112285714Y-33283333D01*
X112333333Y-33378571D01*
X112333333Y-33902380D01*
X112333333Y-33378571D02*
X112380952Y-33283333D01*
X112476190Y-33235714D01*
X112619047Y-33235714D01*
X112714285Y-33283333D01*
X112761904Y-33378571D01*
X112761904Y-33902380D01*
X113238095Y-33902380D02*
X113238095Y-33235714D01*
X113238095Y-33330952D02*
X113285714Y-33283333D01*
X113380952Y-33235714D01*
X113523809Y-33235714D01*
X113619047Y-33283333D01*
X113666666Y-33378571D01*
X113666666Y-33902380D01*
X113666666Y-33378571D02*
X113714285Y-33283333D01*
X113809523Y-33235714D01*
X113952380Y-33235714D01*
X114047619Y-33283333D01*
X114095238Y-33378571D01*
X114095238Y-33902380D01*
X75500000Y-34750000D02*
X144500000Y-34750000D01*
X75500000Y-50250000D02*
X75500000Y-34163579D01*
X144500000Y-50250000D02*
X144500000Y-34163579D01*
X144500000Y-34750000D02*
X143373496Y-35336421D01*
X144500000Y-34750000D02*
X143373496Y-34163579D01*
X75500000Y-34750000D02*
X76626504Y-35336421D01*
X75500000Y-34750000D02*
X76626504Y-34163579D01*
X172502380Y-83369047D02*
X172502380Y-83845238D01*
X172978571Y-83892857D01*
X172930952Y-83845238D01*
X172883333Y-83750000D01*
X172883333Y-83511904D01*
X172930952Y-83416666D01*
X172978571Y-83369047D01*
X173073809Y-83321428D01*
X173311904Y-83321428D01*
X173407142Y-83369047D01*
X173454761Y-83416666D01*
X173502380Y-83511904D01*
X173502380Y-83750000D01*
X173454761Y-83845238D01*
X173407142Y-83892857D01*
X173502380Y-82845238D02*
X173502380Y-82654761D01*
X173454761Y-82559523D01*
X173407142Y-82511904D01*
X173264285Y-82416666D01*
X173073809Y-82369047D01*
X172692857Y-82369047D01*
X172597619Y-82416666D01*
X172550000Y-82464285D01*
X172502380Y-82559523D01*
X172502380Y-82750000D01*
X172550000Y-82845238D01*
X172597619Y-82892857D01*
X172692857Y-82940476D01*
X172930952Y-82940476D01*
X173026190Y-82892857D01*
X173073809Y-82845238D01*
X173121428Y-82750000D01*
X173121428Y-82559523D01*
X173073809Y-82464285D01*
X173026190Y-82416666D01*
X172930952Y-82369047D01*
X173454761Y-81892857D02*
X173502380Y-81892857D01*
X173597619Y-81940476D01*
X173645238Y-81988095D01*
X172502380Y-81273809D02*
X172502380Y-81178571D01*
X172550000Y-81083333D01*
X172597619Y-81035714D01*
X172692857Y-80988095D01*
X172883333Y-80940476D01*
X173121428Y-80940476D01*
X173311904Y-80988095D01*
X173407142Y-81035714D01*
X173454761Y-81083333D01*
X173502380Y-81178571D01*
X173502380Y-81273809D01*
X173454761Y-81369047D01*
X173407142Y-81416666D01*
X173311904Y-81464285D01*
X173121428Y-81511904D01*
X172883333Y-81511904D01*
X172692857Y-81464285D01*
X172597619Y-81416666D01*
X172550000Y-81369047D01*
X172502380Y-81273809D01*
X172502380Y-80321428D02*
X172502380Y-80226190D01*
X172550000Y-80130952D01*
X172597619Y-80083333D01*
X172692857Y-80035714D01*
X172883333Y-79988095D01*
X173121428Y-79988095D01*
X173311904Y-80035714D01*
X173407142Y-80083333D01*
X173454761Y-80130952D01*
X173502380Y-80226190D01*
X173502380Y-80321428D01*
X173454761Y-80416666D01*
X173407142Y-80464285D01*
X173311904Y-80511904D01*
X173121428Y-80559523D01*
X172883333Y-80559523D01*
X172692857Y-80511904D01*
X172597619Y-80464285D01*
X172550000Y-80416666D01*
X172502380Y-80321428D01*
X172502380Y-79369047D02*
X172502380Y-79273809D01*
X172550000Y-79178571D01*
X172597619Y-79130952D01*
X172692857Y-79083333D01*
X172883333Y-79035714D01*
X173121428Y-79035714D01*
X173311904Y-79083333D01*
X173407142Y-79130952D01*
X173454761Y-79178571D01*
X173502380Y-79273809D01*
X173502380Y-79369047D01*
X173454761Y-79464285D01*
X173407142Y-79511904D01*
X173311904Y-79559523D01*
X173121428Y-79607142D01*
X172883333Y-79607142D01*
X172692857Y-79559523D01*
X172597619Y-79511904D01*
X172550000Y-79464285D01*
X172502380Y-79369047D01*
X173502380Y-77845238D02*
X172835714Y-77845238D01*
X172930952Y-77845238D02*
X172883333Y-77797619D01*
X172835714Y-77702380D01*
X172835714Y-77559523D01*
X172883333Y-77464285D01*
X172978571Y-77416666D01*
X173502380Y-77416666D01*
X172978571Y-77416666D02*
X172883333Y-77369047D01*
X172835714Y-77273809D01*
X172835714Y-77130952D01*
X172883333Y-77035714D01*
X172978571Y-76988095D01*
X173502380Y-76988095D01*
X173502380Y-76511904D02*
X172835714Y-76511904D01*
X172930952Y-76511904D02*
X172883333Y-76464285D01*
X172835714Y-76369047D01*
X172835714Y-76226190D01*
X172883333Y-76130952D01*
X172978571Y-76083333D01*
X173502380Y-76083333D01*
X172978571Y-76083333D02*
X172883333Y-76035714D01*
X172835714Y-75940476D01*
X172835714Y-75797619D01*
X172883333Y-75702380D01*
X172978571Y-75654761D01*
X173502380Y-75654761D01*
X171750000Y-109250000D02*
X171750000Y-50250000D01*
X144500000Y-109250000D02*
X172336421Y-109250000D01*
X144500000Y-50250000D02*
X172336421Y-50250000D01*
X171750000Y-50250000D02*
X172336421Y-51376504D01*
X171750000Y-50250000D02*
X171163579Y-51376504D01*
X171750000Y-109250000D02*
X172336421Y-108123496D01*
X171750000Y-109250000D02*
X171163579Y-108123496D01*
X75500000Y-109250000D02*
X144500000Y-109250000D01*
X75500000Y-50250000D02*
X75500000Y-109250000D01*
X144500000Y-50250000D02*
X75500000Y-50250000D01*
X144500000Y-109250000D02*
X144500000Y-50250000D01*
M02*
