%TF.GenerationSoftware,KiCad,Pcbnew,5.1.4-e60b266~84~ubuntu18.04.1*%
%TF.CreationDate,2020-06-02T14:46:13-03:00*%
%TF.ProjectId,Driver Motor PaP_V2.0,44726976-6572-4204-9d6f-746f72205061,2.0*%
%TF.SameCoordinates,Original*%
%TF.FileFunction,Other,User*%
%FSLAX46Y46*%
G04 Gerber Fmt 4.6, Leading zero omitted, Abs format (unit mm)*
G04 Created by KiCad (PCBNEW 5.1.4-e60b266~84~ubuntu18.04.1) date 2020-06-02 14:46:13*
%MOMM*%
%LPD*%
G04 APERTURE LIST*
%ADD10C,0.050000*%
%ADD11C,0.120000*%
G04 APERTURE END LIST*
D10*
X75000000Y-109750000D02*
X75000000Y-49750000D01*
X145000000Y-109750000D02*
X75000000Y-109750000D01*
X145000000Y-49750000D02*
X145000000Y-109750000D01*
X75000000Y-49750000D02*
X145000000Y-49750000D01*
%TO.C,Q1*%
X119750000Y-79010000D02*
X114290000Y-79010000D01*
X119750000Y-79010000D02*
X119750000Y-74270000D01*
X114290000Y-74270000D02*
X114290000Y-79010000D01*
X114290000Y-74270000D02*
X119750000Y-74270000D01*
%TO.C,R2*%
X115500000Y-60540000D02*
X115500000Y-72800000D01*
X118500000Y-60540000D02*
X115500000Y-60540000D01*
X118500000Y-72800000D02*
X118500000Y-60540000D01*
X115500000Y-72800000D02*
X118500000Y-72800000D01*
%TO.C,JP6*%
X101700000Y-67700000D02*
X101700000Y-71300000D01*
X107850000Y-67700000D02*
X101700000Y-67700000D01*
X107850000Y-71300000D02*
X107850000Y-67700000D01*
X101700000Y-71300000D02*
X107850000Y-71300000D01*
%TO.C,U2*%
X131650000Y-84600000D02*
X131650000Y-95300000D01*
X142450000Y-84600000D02*
X131650000Y-84600000D01*
X142450000Y-95300000D02*
X142450000Y-84600000D01*
X131650000Y-95300000D02*
X142450000Y-95300000D01*
%TO.C,A1*%
X110450000Y-79290000D02*
X110450000Y-95030000D01*
X110450000Y-79290000D02*
X89630000Y-79290000D01*
X89630000Y-95030000D02*
X110450000Y-95030000D01*
X89630000Y-95030000D02*
X89630000Y-79290000D01*
%TO.C,J6*%
X87690000Y-108920000D02*
X93770000Y-108920000D01*
X87690000Y-102120000D02*
X87690000Y-108920000D01*
X93770000Y-102120000D02*
X87690000Y-102120000D01*
X93770000Y-108920000D02*
X93770000Y-102120000D01*
%TO.C,U3*%
X124150000Y-67100000D02*
X124150000Y-77800000D01*
X134950000Y-67100000D02*
X124150000Y-67100000D01*
X134950000Y-77800000D02*
X134950000Y-67100000D01*
X124150000Y-77800000D02*
X134950000Y-77800000D01*
%TO.C,U1*%
X86850000Y-70600000D02*
X97550000Y-70600000D01*
X86850000Y-59800000D02*
X86850000Y-70600000D01*
X97550000Y-59800000D02*
X86850000Y-59800000D01*
X97550000Y-70600000D02*
X97550000Y-59800000D01*
%TO.C,R3*%
X111790000Y-83250000D02*
X124050000Y-83250000D01*
X111790000Y-80250000D02*
X111790000Y-83250000D01*
X124050000Y-80250000D02*
X111790000Y-80250000D01*
X124050000Y-83250000D02*
X124050000Y-80250000D01*
%TO.C,R1*%
X77250000Y-64790000D02*
X77250000Y-77050000D01*
X80250000Y-64790000D02*
X77250000Y-64790000D01*
X80250000Y-77050000D02*
X80250000Y-64790000D01*
X77250000Y-77050000D02*
X80250000Y-77050000D01*
%TO.C,JP5*%
X101700000Y-61950000D02*
X101700000Y-65550000D01*
X107850000Y-61950000D02*
X101700000Y-61950000D01*
X107850000Y-65550000D02*
X107850000Y-61950000D01*
X101700000Y-65550000D02*
X107850000Y-65550000D01*
%TO.C,JP4*%
X107800000Y-77050000D02*
X107800000Y-73450000D01*
X101650000Y-77050000D02*
X107800000Y-77050000D01*
X101650000Y-73450000D02*
X101650000Y-77050000D01*
X107800000Y-73450000D02*
X101650000Y-73450000D01*
%TO.C,JP3*%
X127550000Y-85950000D02*
X123950000Y-85950000D01*
X127550000Y-92100000D02*
X127550000Y-85950000D01*
X123950000Y-92100000D02*
X127550000Y-92100000D01*
X123950000Y-85950000D02*
X123950000Y-92100000D01*
%TO.C,JP2*%
X121800000Y-85950000D02*
X118200000Y-85950000D01*
X121800000Y-92100000D02*
X121800000Y-85950000D01*
X118200000Y-92100000D02*
X121800000Y-92100000D01*
X118200000Y-85950000D02*
X118200000Y-92100000D01*
%TO.C,JP1*%
X115800000Y-85950000D02*
X112200000Y-85950000D01*
X115800000Y-92100000D02*
X115800000Y-85950000D01*
X112200000Y-92100000D02*
X115800000Y-92100000D01*
X112200000Y-85950000D02*
X112200000Y-92100000D01*
%TO.C,J8*%
X87350000Y-96500000D02*
X87350000Y-100100000D01*
X90950000Y-96500000D02*
X87350000Y-96500000D01*
X90950000Y-100100000D02*
X90950000Y-96500000D01*
X87350000Y-100100000D02*
X90950000Y-100100000D01*
%TO.C,J7*%
X96040000Y-108920000D02*
X102120000Y-108920000D01*
X96040000Y-102120000D02*
X96040000Y-108920000D01*
X102120000Y-102120000D02*
X96040000Y-102120000D01*
X102120000Y-108920000D02*
X102120000Y-102120000D01*
%TO.C,J5*%
X138700000Y-60950000D02*
X138700000Y-64550000D01*
X142300000Y-60950000D02*
X138700000Y-60950000D01*
X142300000Y-64550000D02*
X142300000Y-60950000D01*
X138700000Y-64550000D02*
X142300000Y-64550000D01*
%TO.C,J4*%
X144170000Y-79490000D02*
X144170000Y-68330000D01*
X137370000Y-79490000D02*
X144170000Y-79490000D01*
X137370000Y-68330000D02*
X137370000Y-79490000D01*
X144170000Y-68330000D02*
X137370000Y-68330000D01*
%TO.C,J3*%
X99390000Y-50580000D02*
X88230000Y-50580000D01*
X99390000Y-57380000D02*
X99390000Y-50580000D01*
X88230000Y-57380000D02*
X99390000Y-57380000D01*
X88230000Y-50580000D02*
X88230000Y-57380000D01*
%TO.C,H4*%
X144500000Y-105000000D02*
G75*
G03X144500000Y-105000000I-4250000J0D01*
G01*
%TO.C,H3*%
X144500000Y-54500000D02*
G75*
G03X144500000Y-54500000I-4250000J0D01*
G01*
%TO.C,H2*%
X84000000Y-105000000D02*
G75*
G03X84000000Y-105000000I-4250000J0D01*
G01*
%TO.C,D1*%
X75750000Y-84750000D02*
X82200000Y-84750000D01*
X75750000Y-78250000D02*
X75750000Y-84750000D01*
X82200000Y-78250000D02*
X75750000Y-78250000D01*
X82200000Y-84750000D02*
X82200000Y-78250000D01*
%TO.C,H1*%
X84000000Y-54500000D02*
G75*
G03X84000000Y-54500000I-4250000J0D01*
G01*
%TO.C,C1*%
X82500000Y-64750000D02*
X82500000Y-70250000D01*
X85500000Y-64750000D02*
X82500000Y-64750000D01*
X85500000Y-70250000D02*
X85500000Y-64750000D01*
X82500000Y-70250000D02*
X85500000Y-70250000D01*
%TO.C,C2*%
X137500000Y-80750000D02*
X132000000Y-80750000D01*
X137500000Y-83750000D02*
X137500000Y-80750000D01*
X132000000Y-83750000D02*
X137500000Y-83750000D01*
X132000000Y-80750000D02*
X132000000Y-83750000D01*
%TO.C,C3*%
X129750000Y-63000000D02*
X124250000Y-63000000D01*
X129750000Y-66000000D02*
X129750000Y-63000000D01*
X124250000Y-66000000D02*
X129750000Y-66000000D01*
X124250000Y-63000000D02*
X124250000Y-66000000D01*
D11*
%TO.C,J1*%
X75932000Y-86198000D02*
X85330000Y-86198000D01*
X85330000Y-86198000D02*
X85330000Y-97374000D01*
X85330000Y-97374000D02*
X75932000Y-97374000D01*
X75932000Y-97374000D02*
X75932000Y-86198000D01*
%TO.C,J2*%
X115824000Y-108818000D02*
X104648000Y-108818000D01*
X115824000Y-99420000D02*
X115824000Y-108818000D01*
X104648000Y-99420000D02*
X115824000Y-99420000D01*
X104648000Y-108818000D02*
X104648000Y-99420000D01*
D10*
%TO.C,C4*%
X125300000Y-100900000D02*
G75*
G03X125300000Y-100900000I-3400000J0D01*
G01*
%TD*%
M02*
